<?xml version="1.0" standalone="no"?>
<!DOCTYPE svg PUBLIC "-//W3C//DTD SVG 1.1//EN" "http://www.w3.org/Graphics/SVG/1.1/DTD/svg11.dtd" >
<svg xmlns="http://www.w3.org/2000/svg" xmlns:xlink="http://www.w3.org/1999/xlink" version="1.1">
<metadata>
Created by FontForge 20150102 at Thu Feb 12 19:26:10 2015
 By uniteet7
Corel
</metadata>
<defs>
<font id="koalab" horiz-adv-x="500" >
  <font-face 
    font-family="koalab"
    font-weight="700"
    font-stretch="normal"
    units-per-em="1000"
    panose-1="0 0 0 0 0 0 0 0 0 0"
    ascent="800"
    descent="-200"
    x-height="350"
    cap-height="723"
    bbox="-148 -301 1010 880"
    underline-thickness="61"
    underline-position="-58"
    unicode-range="U+0020-2219"
  />
<missing-glyph horiz-adv-x="699" 
d="M43 0v699h613v-699h-613zM613 43v613h-527v-613h527z" />
    <glyph glyph-name=".notdef" horiz-adv-x="699" 
d="M43 0v699h613v-699h-613zM613 43v613h-527v-613h527z" />
    <glyph glyph-name=".null" horiz-adv-x="0" 
 />
    <glyph glyph-name="nonmarkingreturn" horiz-adv-x="240" 
 />
    <glyph glyph-name="space" unicode=" " horiz-adv-x="240" 
 />
    <glyph glyph-name="exclam" unicode="!" horiz-adv-x="260" 
d="M82 -6q-28 0 -41.5 17t-13.5 40q18 50 23 58q18 28 55 28q27 0 42 -23q11 -17 13 -40q0 -27 -23 -53.5t-55 -26.5zM105 205l143 389q2 11 18 11h25q19 0 30 -3t11 -14q0 -4 -4 -16l-174 -390l-25 -2q-24 0 -25 15z" />
    <glyph glyph-name="quotedbl" unicode="&#x22;" horiz-adv-x="332" 
d="M250 432l-20 232q0 29 11.5 44t29.5 15q42 0 42 -53l-20 -236q0 -13 -6.5 -20.5t-16.5 -9.5q-9 2 -14.5 8.5t-5.5 19.5zM88 438l-18 238q0 23 11 35t28 12q41 0 41 -53l-17 -232q0 -15 -6.5 -23.5t-17.5 -10.5q-10 2 -15.5 12.5t-5.5 21.5z" />
    <glyph glyph-name="numbersign" unicode="#" horiz-adv-x="480" 
d="M154 -2h-58l25 172h-78l2 53h82l18 115h-81l2 51h84l24 172h58l-23 -172h96l23 172h59l-24 -170h75l-2 -55h-79l-17 -113h74l-2 -51h-80l-25 -174h-57l23 172h-93zM281 223l16 115h-96l-15 -115h95z" />
    <glyph glyph-name="dollar" unicode="$" horiz-adv-x="480" 
d="M113 43q-34 14 -54 48t-20 79q3 28 15.5 39.5t31.5 11.5q15 0 27 -4.5t14 -9.5q1 -17 3.5 -39t17.5 -39q9 -9 22.5 -13.5t34.5 -6.5q28 0 53 16t25 45t-58.5 103.5t-58.5 126.5q0 57 42 93q48 42 99 42l29 65q9 19 43 19q16 0 27.5 -6.5t11.5 -18.5l-27 -71
q33 -14 53.5 -38t20.5 -57q0 -24 -14.5 -37.5t-34.5 -13.5q-17 2 -27 11t-10 28q0 16 -16.5 25.5t-40.5 9.5q-23 0 -39.5 -11t-16.5 -32q0 -23 58.5 -92.5t58.5 -141.5q0 -65 -57.5 -107t-132.5 -42l-41 -97q-3 -8 -17.5 -13t-32.5 -5q-15 0 -24 4.5t-10 17.5q1 1 2 7z" />
    <glyph glyph-name="percent" unicode="%" horiz-adv-x="760" 
d="M707 170q-19 -71 -70.5 -116.5t-113.5 -45.5q-54 0 -80 38q-21 31 -21 81q0 74 53 143q61 80 152 80q42 0 66 -30t24 -82q0 -26 -10 -68zM527 68q56 0 91 59q30 51 30 107q0 49 -31 55q-41 0 -75 -33q-29 -28 -40 -67q-5 -16 -7.5 -32t-4.5 -36q0 -26 10.5 -38.5
t26.5 -14.5zM156 273q40 0 77.5 48t37.5 118q-4 0 -9.5 9t-7.5 17q3 14 10 14q-12 17 -37 17q-54 0 -85 -58q-23 -43 -31 -106q0 -27 11 -43t34 -16zM340 428q-9 -89 -64 -151t-124 -62q-52 0 -80.5 31.5t-28.5 83.5q3 28 4 36t6 25q20 69 72.5 117.5t104.5 48.5t80 -28
q20 -19 26 -49q39 0 108 34q57 28 93 56q6 5 12.5 10.5t11.5 5.5q7 0 17 -10.5t29 -36.5l2 -10q0 -9 -7.5 -20t-11.5 -17q-106 -126 -234 -300q-123 -167 -143 -212q-12 -26 -19 -36q-16 -24 -32 -24q-11 0 -23 14t-12 31q1 1 2 8q10 31 90 145q71 102 160.5 216t132.5 158
l-2 2q-56 -29 -95.5 -45.5t-74.5 -20.5z" />
    <glyph glyph-name="ampersand" unicode="&#x26;" horiz-adv-x="557" 
d="M293 145q-5 8 -11 19t-14 29q0 12 26 30q18 13 36 21q4 -7 13 -23t11 -22q1 1 17 28q5 9 16 23q4 4 19 7t30 3q11 0 19 -1t14 -3q0 -22 -22 -58q-26 -36 -51 -71q17 -27 34 -49q24 -31 49 -62v-6q0 -8 -23 -9t-38 -1q-28 0 -36 5q-5 7 -7 9t-23 34q-9 14 -18 20
q-56 -44 -95 -60t-89 -16q-45 0 -84 29q-43 32 -43 79q0 36 27.5 74t84.5 76q19 13 19 20q0 1 -14.5 26t-14.5 63q0 93 75.5 152t180.5 59q63 0 94 -25q27 -22 27 -57q0 -17 -6 -31t-17 -25q-56 -47 -89 -75q-38 -33 -48 -44q-19 7 -40 19t-27 22q8 28 93 91q38 28 38 41
q-3 6 -25 6q-62 0 -113 -37q-57 -41 -57 -100q1 -12 27 -54q12 -20 12 -35q0 -33 -86 -100q-41 -32 -41 -66q0 -21 35 -24q6 1 12.5 1.5t9.5 0.5q59 9 113 67z" />
    <glyph glyph-name="quotesingle" unicode="'" horiz-adv-x="203" 
d="M109 443l86 221q5 16 9.5 24.5t12.5 8.5h39h58q12 0 12 -8q-1 -2 -1 -3l-5 -10l-166 -244h-25q-20 0 -22 6z" />
    <glyph glyph-name="parenleft" unicode="(" horiz-adv-x="406" 
d="M84 -244q-9 51 -13.5 87.5t-4.5 76.5q0 84 21 180q12 53 44 164q36 104 133 254q85 132 134 179h96q-158 -182 -245 -371q-99 -216 -99 -430q0 -33 3.5 -68t10.5 -72h-80z" />
    <glyph glyph-name="parenright" unicode=")" horiz-adv-x="406" 
d="M326 699q12 -65 12 -133q0 -99 -29 -210q-19 -73 -57 -168q-25 -71 -88 -167q-56 -86 -118 -160q-57 -68 -97 -103h-97q82 94 163 188q86 109 147 238q40 88 66 195t26 209q0 21 -0.5 46.5t-7.5 64.5h80z" />
    <glyph glyph-name="asterisk" unicode="*" horiz-adv-x="369" 
d="M229 574l9 123h78l-35 -134l123 42l14 -72l-131 -17l74 -108l-68 -33l-53 119l-80 -105l-56 50l101 88l-121 39l37 71z" />
    <glyph glyph-name="plus" unicode="+" horiz-adv-x="600" 
d="M271 207v150h59v-150h149v-59h-149v-146h-59v146h-150v59h150z" />
    <glyph glyph-name="comma" unicode="," horiz-adv-x="240" 
d="M-20 -129l94 242q4 10 6 12t16 2h93q8 0 8 -8q0 -3 -2.5 -7.5t-3.5 -6.5l-166 -246h-39q-6 0 -6 8v4z" />
    <glyph glyph-name="hyphen" unicode="-" horiz-adv-x="332" 
d="M23 137l-5 9q8 27 16 55q9 18 25 20h191q16 0 16 -14q-2 -13 -6 -25t-14 -34q-5 -9 -6 -10t-2 -1h-215z" />
    <glyph glyph-name="period" unicode="." horiz-adv-x="240" 
d="M90 -6q-59 0 -59 55q14 43 23 57q19 29 53 29q24 0 39.5 -19.5t15.5 -51.5q-3 -26 -24 -48t-48 -22z" />
    <glyph glyph-name="slash" unicode="/" horiz-adv-x="277" 
d="M-18 -23l270 691l21 55h86l-273 -694l-22 -52h-82z" />
    <glyph glyph-name="zero" unicode="0" horiz-adv-x="480" 
d="M168 82q59 0 110 56q44 48 74 130q23 69 23 121q0 88 -64 88q-54 0 -107.5 -56.5t-76.5 -143.5q-9 -33 -15.5 -64t-6.5 -51q0 -80 63 -80zM133 -6q-54 0 -87.5 52.5t-33.5 131.5q0 139 84 257q93 131 228 131q65 0 103 -42q42 -46 42 -131q0 -32 -6 -67t-20 -76
q-33 -104 -109 -177q-83 -80 -180 -80z" />
    <glyph glyph-name="one" unicode="1" horiz-adv-x="480" 
d="M135 0h-88q-7 0 -10 6l4 10q51 65 125 217q34 69 55 119l-2 2q-26 -22 -50.5 -36t-41.5 -15q-11 6 -13 8.5t-5 18.5q0 18 3.5 34t8.5 25q37 10 90 46.5t70 58.5q21 35 32 51q20 29 50 29q20 0 32.5 -13.5t12.5 -33.5q0 -24 -21 -53q-14 -18 -28 -35q-11 -21 -100 -211
q-35 -75 -73 -146l-34 -66q-10 -16 -17 -16z" />
    <glyph glyph-name="two" unicode="2" horiz-adv-x="480" 
d="M176 51q-24 -16 -47 -32q-39 -22 -86 -22l-23 1q-35 0 -55 25.5t-20 60.5q0 42 25 71q29 33 77 33q40 0 71 -12l54 -28q15 0 90 96q81 104 99 162l4 26q0 25 -15.5 37.5t-40.5 12.5q-31 0 -61 -21q-12 -8 -78 -78q-4 -7 -18 -10q-16 1 -31.5 17.5t-15.5 29.5
q27 70 92 110q59 36 125 36q58 0 97.5 -32t39.5 -89q0 -49 -29 -109q-25 -51 -81 -120q-44 -54 -97 -107q9 -8 43 -16.5t68 -8.5q42 0 75 12l7 2q8 0 8 -14q0 -12 -7 -35q-3 -10 -11 -32.5t-60 -22.5q-47 0 -99 14t-100 43zM123 96q-26 13 -44 19t-30 6q-18 0 -30 -7.5
t-15 -25.5q3 -27 33 -33q30 0 54 15q24 20 32 26z" />
    <glyph glyph-name="three" unicode="3" horiz-adv-x="480" 
d="M273 254q-27 -13 -60 -16q-32 6 -43 12q-19 10 -22 37q3 31 24 46t53 15q27 0 56 -6q17 0 53 48q23 30 23 53q0 36 -43 36q-25 0 -54 -15.5t-57 -49.5q-8 -11 -25 -14q-14 0 -26.5 13t-14.5 26l4 12q21 46 79 79.5t116 33.5q49 0 87 -33t38 -84q0 -40 -23 -76
q-27 -41 -81 -74l24 -38q15 -29 15 -62q0 -91 -74 -149q-68 -54 -162 -54q-68 0 -111 30q-49 34 -49 99q4 39 8 47q9 19 41 19q16 0 26.5 -4t10.5 -13q0 -48 15.5 -71t60.5 -23q53 0 95 35t42 86q0 41 -26 55z" />
    <glyph glyph-name="four" unicode="4" horiz-adv-x="480" 
d="M229 570h72q19 0 19 -17q0 -6 -3 -17t-4 -15q-11 -19 -47 -86.5t-69 -131.5q-18 -34 -35 -67q13 -8 34.5 -11.5t41.5 -5.5l14 2q38 79 61 122q28 53 54 91q18 21 31 31q18 14 34 14q12 0 23.5 -7t11.5 -19q0 -7 -3 -13.5t-5 -11.5q-53 -106 -105 -211q2 -6 11 -6h73
q11 0 11 -14q0 -18 -14 -46t-29 -28q-23 0 -70 5q-8 0 -23 3q-33 -59 -57 -119q-20 -45 -37 -45h-53q-8 0 -13 7t-7 18q1 1 2 6q6 26 45 106q8 13 10 19.5t2 13.5q0 8 -8 8q-20 0 -52 2t-45 5l-37 -37q-26 -23 -47 -23q-18 3 -30.5 15t-12.5 30q0 39 42 65.5t46 29.5
q21 16 78 129q62 122 90 209z" />
    <glyph glyph-name="five" unicode="5" horiz-adv-x="480" 
d="M117 379l72 160q7 9 14 19q13 8 59 8h197q12 0 17.5 -3t5.5 -14q0 -38 -16 -55t-38 -17h-168q-8 -6 -18 -27q-9 -24 -17 -48l22.5 2.5t29.5 1.5q61 0 103 -40t42 -100q0 -107 -94 -189q-90 -79 -197 -79q-67 0 -100 38q-25 29 -25 68q4 21 22 29t42 8q15 0 22.5 -5
t7.5 -19q0 -35 43 -35q61 0 120 56t59 120q0 27 -16.5 43.5t-43.5 16.5q-25 0 -50.5 -10t-41.5 -27q-40 -40 -66 -43q-24 6 -34 15t-13 32l7 33q12 22 30 35.5t23 25.5z" />
    <glyph glyph-name="six" unicode="6" horiz-adv-x="480" 
d="M393 619q10 0 26.5 -13.5t16.5 -31.5q0 -12 -16 -25q-87 -60 -162 -136q-54 -55 -88 -102q-24 -36 -39 -69q-24 -53 -24 -90q0 -34 23 -50q15 -10 54 -18q56 0 104 53q44 49 52 107q0 19 -6.5 31t-24.5 12q-13 0 -27 -6q-42 -18 -46 -19q-24 0 -27 31q6 40 39.5 63
t77.5 23q47 0 77 -24q35 -28 35 -84q0 -103 -79 -189t-185 -86q-71 0 -115.5 45.5t-44.5 116.5q0 57 29.5 122t93.5 138q79 90 153 144q59 43 103 57z" />
    <glyph glyph-name="seven" unicode="7" horiz-adv-x="480" 
d="M117 18q40 55 85 142q38 76 77 152q49 93 96 155q-16 0 -55 3t-60 3q-30 0 -40 -1.5t-23 -6.5q-13 -28 -21 -43q-26 -46 -45 -55l-26 -6q-18 0 -30 12t-12 29l1 10q7 30 24 55q16 19 33 39q13 43 26 58q19 22 58 22q14 0 18.5 -11.5t8.5 -15.5q12 1 24.5 1.5t23.5 0.5h19
q23 0 55 -3q74 -7 93 -7l51 4q23 0 23 -10q0 -9 -10 -24l-15 -21q-26 -25 -86 -131t-110 -201q-43 -82 -85 -164q-8 -16 -23 -23.5t-34 -7.5t-32 7.5t-15 21.5z" />
    <glyph glyph-name="eight" unicode="8" horiz-adv-x="480" 
d="M230 223q-56 -27 -98 -57.5t-42 -46.5q0 -19 20.5 -30t51.5 -11q61 14 71 18q37 16 37 54q0 20 -12 40t-28 33zM318 273q22 -17 36.5 -46.5t14.5 -64.5q0 -74 -58 -121q-51 -41 -129 -51l-26 -1q-73 0 -115.5 33.5t-42.5 82.5q0 21 1.5 28.5t6.5 18.5q16 39 63 74
q46 31 93 63q-20 22 -36 48.5t-19 57.5q0 89 92 134q70 34 166 34q19 0 31 -1t32 -3q15 -3 21 -12t6 -24q0 -21 -16 -31t-62 -10q-41 0 -62.5 -2.5t-51.5 -12.5t-46 -23t-16 -34q11 -31 17 -41q13 -21 36 -29q20 6 88 47q99 60 117 70q8 0 8 -23v-24q0 -16 -0.5 -30.5
t-9.5 -20.5z" />
    <glyph glyph-name="nine" unicode="9" horiz-adv-x="480" 
d="M232 297l12 2q14 0 22.5 -7t8.5 -24q0 -40 -45 -64q-37 -20 -80 -20q-21 2 -28 3.5t-18 5.5q-30 12 -44.5 39t-14.5 63q0 102 78.5 186.5t181.5 84.5q70 0 117 -44t47 -112q0 -52 -13 -90q-22 -63 -89 -154q-60 -78 -124 -139q-88 -84 -171 -127q-13 0 -32 18t-19 35
q4 15 14 20q61 37 131 105q41 40 100 108q35 41 66 97q41 74 41 121q0 33 -22 52t-54 19q-60 0 -104 -55q-37 -46 -50 -111q0 -35 31 -38q31 3 58 26z" />
    <glyph glyph-name="colon" unicode=":" horiz-adv-x="240" 
d="M25 -6q-56 0 -56 55q0 31 21.5 58.5t52.5 27.5q25 0 41 -20t16 -51q-3 -26 -25 -48t-50 -22zM109 219q-58 0 -58 54q15 46 22 58q19 30 54 30q25 0 41 -20t16 -50q-3 -28 -24.5 -50t-50.5 -22z" />
    <glyph glyph-name="semicolon" unicode=";" horiz-adv-x="240" 
d="M109 219q-58 0 -58 56q14 45 22 57q19 29 54 29q25 0 41 -20t16 -50q-3 -27 -24 -48t-51 -24zM-92 -129l86 221q5 16 9.5 24.5t12.5 8.5h39h58q12 0 12 -8q0 -4 -6 -13l-166 -245h-25q-13 0 -16.5 1t-3.5 7v4z" />
    <glyph glyph-name="less" unicode="&#x3c;" horiz-adv-x="600" 
d="M117 203l363 162v-60l-287 -129l287 -125v-59l-363 160v51z" />
    <glyph glyph-name="equal" unicode="=" horiz-adv-x="600" 
d="M121 279h356v-56h-356v56zM121 133h356v-57h-356v57z" />
    <glyph glyph-name="greater" unicode="&#x3e;" horiz-adv-x="600" 
d="M482 152l-363 -160v59l287 129l-287 125v60l363 -162v-51z" />
    <glyph glyph-name="question" unicode="?" horiz-adv-x="369" 
d="M96 -6q-51 0 -51 67q0 27 23.5 51.5t50.5 24.5q26 0 41.5 -19.5t15.5 -49.5q0 -26 -24 -50t-56 -24zM293 336q-65 -32 -100 -80q-21 -29 -29 -61q-1 -6 -7 -8.5t-16 -4.5q-1 1 -8 2l-14 -2q-8 2 -10 3.5t-5 11.5q0 22 11 49q17 42 59 86q50 42 101 85q23 25 28 63
q0 51 -47 51q-22 0 -47 -15.5t-47 -48.5q-7 -11 -14 -21.5t-15 -11.5q-16 9 -24 16q-17 13 -17 34q0 27 44 69q55 52 122 52q57 0 96 -28q44 -32 44 -87q0 -49 -29 -90t-76 -64z" />
    <glyph glyph-name="A" unicode="A" horiz-adv-x="648" 
d="M141 301q74 119 135 194q78 95 155 146q88 58 176 58q39 0 56 -19t17 -53q0 -38 -20 -98q-14 -39 -27 -78l-80 -267q-7 -28 -14.5 -49.5t-7.5 -25.5q2 -8 6 -26t4 -26q0 -21 -10 -34q-13 -17 -45 -21q-24 0 -40 14.5t-16 44.5l2 20q0 67 -89 107q-73 33 -150 33
q-34 -50 -64 -116q-21 -46 -33 -85q-1 -11 -17.5 -15.5t-43.5 -4.5q-12 1 -21.5 1.5t-15.5 0.5h-10q4 13 55 121q32 66 43 90l-70 -10q-8 0 -10 10q5 23 11 46q10 28 30 32q41 4 65 5.5t29 4.5zM463 201q18 81 52 193q21 68 42 137q6 20 11.5 39.5t5.5 29.5q0 13 -11 13
q-5 0 -14.5 -4t-30.5 -15q-61 -35 -153 -142q-42 -48 -119 -149q52 -7 113.5 -31t103.5 -71z" />
    <glyph glyph-name="B" unicode="B" horiz-adv-x="594" 
d="M-20 -6l245 527q43 95 101 140q49 38 102 38q69 0 110 -51q38 -47 38 -117q0 -75 -37 -134q-41 -64 -111 -84q-11 -3 -22.5 -6.5t-12.5 -7.5q1 -2 7 -5.5t28 -8.5q49 -11 76 -48t27 -85q0 -75 -73 -113q-47 -24 -140 -37l-88 -2h-37q-31 2 -35 8l-4 8q0 21 14.5 48.5
t24.5 27.5l84 -4l49 4q36 5 61 14q40 15 45 39q0 39 -55 60q-66 26 -76 41q-13 27 -16 45q0 23 15 43t40 33q61 24 84 42q53 42 53 111q0 35 -7 55q-11 32 -40 32q-30 0 -64 -33q-39 -37 -65 -101l-211 -479h-110z" />
    <glyph glyph-name="C" unicode="C" horiz-adv-x="557" 
d="M410 199q12 0 41.5 -14t32.5 -27q-22 -70 -99 -118t-166 -48q-63 0 -113.5 26.5t-76 71.5t-25.5 101q0 59 24.5 125t63.5 125q68 103 157 173q108 85 208 85q69 0 107 -37t38 -107q-7 -83 -97 -172q-81 -80 -167 -108l-39 -9q-13 0 -16 17q2 12 3 17.5t1 10.5q8 38 27 55
q29 18 49 30q60 37 87 64q39 39 54 93l2 12q0 42 -61 42q-18 0 -37 -5t-45 -18q-81 -43 -155 -140q-55 -72 -87 -147q-8 -21 -13.5 -45.5t-5.5 -46.5q0 -46 22.5 -79t70.5 -40l32 -3q62 0 117 42q42 32 66 74z" />
    <glyph glyph-name="D" unicode="D" horiz-adv-x="797" 
d="M469 488q-25 24 -45 39q-62 47 -141 78q-18 6 -33 6q-20 0 -23 -23q11 -44 52 -84q53 -44 78 -66v-8q0 -17 -10 -37t-29 -28q-19 0 -83 58q-69 62 -87 106q-16 43 -19 76q0 50 39 75q30 19 74 19q90 0 193 -65q34 -21 86 -66q3 4 22 29q13 18 16 18q15 -6 33 -19t33 -32
q-1 -7 -19 -35q-9 -14 -10 -21l2 -4l92 -118q39 -63 44 -115l3 -48q0 -70 -27 -118q-33 -58 -108 -89q-45 -16 -131 -16q-82 0 -171 9q-16 1 -40 5q-38 -7 -69 -10.5t-56 -3.5q-52 0 -79 8q-48 14 -52 51q0 34 34 49q26 11 66 11q35 0 74 -5t84 -10q16 2 17 3q37 28 110 173
t80 208zM545 414q-43 -117 -82 -194t-82 -128l74 -6q73 0 124 28q64 35 64 103q0 57 -40 124q-30 50 -58 73z" />
    <glyph glyph-name="E" unicode="E" horiz-adv-x="520" 
d="M113 313q-16 24 -23.5 46t-7.5 47q0 117 98 205t218 88q65 0 93 -21q23 -18 23 -51q0 -39 -28 -82q-13 -20 -54 -68q-2 -3 -31 -48q-20 -32 -36 -40q-20 6 -40 22q-24 19 -28 38q6 12 8 15.5t77 92.5q28 33 28 45q-5 3 -8 4q-12 5 -23 5q-23 0 -49.5 -10.5t-52.5 -34.5
q-43 -34 -66.5 -75t-30.5 -95q0 -33 21 -65q2 -3 28 -36l3 -10q0 -16 -83 -68t-83 -92q11 -45 61 -45q56 0 120 35q72 40 120 110q2 4 16 4h49q21 0 26 -4t5 -10q-33 -83 -117 -147q-98 -74 -211 -74l-24 -1q-69 0 -107 33q-26 23 -33 56l-2 27q0 68 45 118q49 40 99 80v6z
" />
    <glyph glyph-name="F" unicode="F" horiz-adv-x="668" 
d="M12 273q0 119 183 269q188 154 348 154q14 0 22 -1t32 -5t38.5 -24.5t14.5 -54.5q0 -23 -6 -49t-17 -58q-16 -45 -84 -188q-31 -64 -37 -86h121l-18 -41q-10 -28 -15 -36t-14 -10l-4 2h-115q-37 -67 -58 -104q-40 -70 -61 -86q-2 -4 -37 -6t-71 -2h-23q30 33 74 92
q59 79 59 100q-2 6 -4 6h-51q-16 0 -18 3q2 7 5.5 14.5t6.5 13.5q13 23 19 34q11 20 18 20h75q33 53 77 151q33 74 65 156q5 12 9.5 28t4.5 25t-7.5 11.5t-20.5 2.5q-66 0 -133 -34q-54 -27 -117 -83q-38 -33 -99 -98q-26 -29 -47 -61q-25 -38 -25 -55q1 -3 2.5 -4.5
l2.5 -2.5l12 -2q39 0 103 69q64 76 128 153q8 -21 12 -33q16 -44 21 -68q-34 -60 -104 -127q-94 -90 -166 -90q-57 0 -83 33q-20 25 -20 61z" />
    <glyph glyph-name="G" unicode="G" horiz-adv-x="557" 
d="M459 205q-35 -102 -76.5 -196.5t-93.5 -186.5q-17 -32 -40 -52t-40 -20q-12 0 -12 12q0 10 4 46t4 55q16 26 42.5 72.5t53.5 111.5q-56 -53 -139 -53q-68 0 -109 44q-47 50 -47 148q0 164 132 335q136 176 278 176q75 0 115.5 -31.5t40.5 -89.5l-2 -25q-9 -59 -67 -117
q-54 -55 -93 -55q-4 0 -5 12t-1 35v31.5t2 17.5q22 11 42 31q26 26 29 51q0 48 -59 48q-22 0 -46.5 -7t-47.5 -22q-95 -59 -156 -181q-52 -104 -70 -231q0 -34 17 -55q21 -25 61 -25q45 0 107.5 50.5t87.5 104t26 55.5q27 46 58 46q21 0 34 -13t13 -34v-16q-4 -22 -16 -40
q-14 -16 -27 -32z" />
    <glyph glyph-name="H" unicode="H" horiz-adv-x="814" 
d="M-43 100q10 79 98 120q66 31 174 40q47 4 136 4q56 97 79 156q27 70 54 197q2 9 11 13t42 7l41 2q4 0 6 -2q0 -60 -44 -190t-77 -179l19 -4q14 0 42 4t44 9q38 124 68 203q36 95 69 149q28 45 68 72q33 22 55 22q12 0 12 -18q0 -9 -4 -19q-29 -46 -84 -183
q-47 -119 -75 -204l45 14q14 0 22 -34t8 -50q-3 -5 -51 -16t-61 -16q-10 -26 -28 -95l-22 -86q-2 -13 -26 -16h-29q-24 0 -33.5 3.5t-11.5 10.5q12 35 28 102q7 32 15 64q-23 0 -71 -3t-60 -3q-61 -86 -145.5 -133t-188.5 -47q-50 0 -81 19q-44 27 -44 87zM293 170
q-115 0 -180.5 -20.5t-65.5 -51.5q3 -26 51 -26q44 0 95 24q58 27 100 74z" />
    <glyph glyph-name="I" unicode="I" horiz-adv-x="443" 
d="M287 309q42 97 60 148t32 106l4 35q0 21 -16 21q-12 0 -31 -16t-29 -33q-29 -40 -50 -99q-14 -40 -25 -86q-7 -6 -49 -28.5t-54 -22.5q-5 2 -8 21q0 91 77 217q92 151 202 151q44 -4 63 -33.5t19 -78.5q0 -75 -44 -196q-2 -4 -57 -138q-75 -154 -174 -229
q-77 -58 -152 -58q-33 0 -54 11.5t-21 27.5q9 19 23 40q21 31 34 31q9 -2 17 -4t20 -4q66 0 132 82q43 53 81 135z" />
    <glyph glyph-name="J" unicode="J" horiz-adv-x="443" 
d="M197 117q-65 -54 -123 -141t-58 -128q3 -22 13 -24q30 0 105 159q49 103 65 130zM156 494q43 110 115 172q67 57 137 57q42 -6 61 -31t19 -67q0 -33 -13 -82q-9 -33 -28 -88q-37 -104 -86.5 -218.5t-99.5 -215.5q-40 -81 -109 -210q-15 -25 -47 -48q-44 -31 -89 -31
q-44 6 -65 35t-21 75q0 16 3.5 37t9.5 43q15 41 47 90q44 66 104 123q75 71 170 121q33 67 73 176q48 129 48 170q0 17 -6 17q-53 0 -102 -95q-39 -76 -58 -174q-4 -17 -45 -41q-23 -14 -37.5 -21.5t-19.5 -8.5q0 18 -2 26q0 35 11.5 86.5t29.5 102.5z" />
    <glyph glyph-name="K" unicode="K" horiz-adv-x="537" 
d="M188 428l121 263q0 4 12.5 6t32.5 2q24 0 42 -1t24 -3q-7 -12 -40 -78.5t-67 -134.5q56 36 112 88q65 60 106 119q5 10 20 10h43q13 0 19 -5t6 -14q0 -5 -1 -10t-3 -10q-32 -62 -102 -129q-52 -50 -136 -109q-57 -40 -121 -78q-14 -7 -16 -16l6 -10q30 -65 119 -171
q105 -124 178 -153h-172q-39 35 -89 106q-84 121 -89 121q-7 -3 -48 -97q-37 -87 -45 -112q-5 -10 -22 -10h-90l143 307v4q0 4 -9.5 16.5t-10.5 25.5l2 10q4 13 24 29q25 17 51 34z" />
    <glyph glyph-name="L" unicode="L" horiz-adv-x="611" 
d="M137 105q28 24 65 94q43 81 79 194q45 140 106 215q72 89 168 89q49 -4 72 -31.5t23 -73.5q0 -51 -29 -124q-25 -63 -72 -140q-4 -6 -24.5 -9.5t-35.5 -5.5t-30.5 -6t-24.5 -6q-8 3 -8 8q28 49 57 100q60 105 70 152l2 14q0 29 -28 29q-17 0 -39.5 -18.5t-42.5 -54.5
q-34 -65 -75 -169q-48 -124 -61 -153q-35 -80 -67 -119q13 -2 39 -5t43 -3q61 0 119 7.5t112 19.5q-6 -31 -11 -62q-9 -34 -26 -37q-72 -10 -182 -10q-71 0 -119.5 4.5t-70.5 13.5q-58 -22 -103 -22q-44 0 -70 17t-26 44q0 30 30.5 43t77.5 13q26 0 43 -2t39 -6z" />
    <glyph glyph-name="M" unicode="M" horiz-adv-x="797" 
d="M-45 -14q40 34 91 106q48 68 89 138q18 32 74 135q24 44 79 151q45 88 66 129q13 26 31 40t35 14q26 0 42.5 -19.5t16.5 -48.5q-10 -61 -31 -159q-6 -25 -41 -176q-10 -42 -20 -83q72 102 135 180q53 66 115 134q37 41 121 129q18 18 40.5 29.5t45.5 11.5q19 0 31 -11
t12 -38q0 -12 -3 -27t-11 -35q-4 -9 -74 -135.5t-108 -218.5q-56 -135 -56 -220l-2 -4q0 -8 -24 -8l-41 -4q-19 0 -22 7t-3 11q0 87 36 187q28 77 80 174q39 71 79 143q-84 -95 -154 -184q-36 -46 -116 -154q-72 -97 -116 -153q-20 -24 -51 -27q-17 0 -28 13t-11 34
q9 78 33 177q18 73 44.5 172t31.5 125q-67 -153 -158 -319q-96 -174 -139 -216h-119z" />
    <glyph glyph-name="N" unicode="N" horiz-adv-x="611" 
d="M-47 -18q48 51 119 186q56 105 126 260q21 47 97 220q8 23 27.5 36t40.5 13q26 0 42.5 -18.5t16.5 -55.5v-420q13 26 76 213q22 67 65.5 141t59.5 74q2 0 3.5 -1.5l2.5 -2.5q7 -22 12 -48t7 -50q0 -10 -17 -38q-28 -46 -47.5 -93t-46.5 -123t-45 -126q-27 -73 -41 -100
q-8 -21 -26.5 -35t-39.5 -14q-22 0 -35.5 18t-13.5 56v469q-43 -114 -97.5 -235.5t-93 -197t-55.5 -98.5q-9 -12 -15.5 -21t-15.5 -9h-106z" />
    <glyph glyph-name="O" unicode="O" horiz-adv-x="594" 
d="M10 217q18 193 155.5 349.5t281.5 156.5h12q20 0 34.5 -7.5t14.5 -29.5q0 -44 -33 -52q-22 -3 -28 -3q-123 -20 -233 -156t-110 -272l3 -37q4 -39 27.5 -59.5t58.5 -20.5q67 0 133 55q57 47 110.5 149t53.5 163q0 47 -39 47q-30 0 -55 -35t-39 -94q-5 -21 -41 -38
q-28 -13 -58 -17l-4 2l-3 32q0 85 70.5 161.5t147.5 76.5q57 0 87 -37t30 -96q0 -65 -28 -142.5t-68 -132.5q-63 -88 -127 -133q-75 -53 -158 -53q-89 0 -139 45q-58 52 -58 162q1 4 1.5 9t0.5 7z" />
    <glyph glyph-name="P" unicode="P" 
d="M84 334q43 120 92 205q42 73 84 119q23 28 59.5 46.5t73.5 18.5q32 0 59.5 -14t47.5 -45q11 -15 17 -51.5t6 -77.5q0 -16 -0.5 -31t-4.5 -49q-20 -118 -89 -210q-83 -110 -197 -110q-17 0 -28 13t-11 32q2 21 13.5 35t35.5 14q49 0 95 51q58 64 83 183q8 39 8 76
q0 42 -13.5 63t-37.5 21q-22 0 -49 -20.5t-49 -57.5q-42 -72 -77.5 -159.5t-56.5 -166.5q-7 -26 -8 -51t-7 -51.5t-18.5 -60.5t-27.5 -64q-12 -27 -28.5 -41t-35.5 -14q-28 0 -28 47q0 20 2 30q7 40 35 141t55 179z" />
    <glyph glyph-name="Q" unicode="Q" horiz-adv-x="611" 
d="M141 115q136 60 267 199t131 225q0 56 -60 66l-29 3q-81 0 -163 -83q-69 -70 -101 -154q-9 0 -38 28t-31 39q34 98 120 173q101 88 222 88q71 0 122 -37q60 -43 60 -119q0 -42 -20 -92q-31 -78 -102 -159q-55 -62 -134 -125q-44 -35 -108 -79h73q56 0 102.5 2.5t96.5 9.5
q0 -11 -2 -19q-5 -16 -8 -26q-5 -28 -7 -33q-7 -16 -28 -16q-23 0 -72 -3t-77 -3q-91 0 -189 21q-57 -25 -113 -25q-41 0 -65.5 15t-24.5 44q0 27 14 44q22 26 74 26q21 0 48 -4t42 -6z" />
    <glyph glyph-name="R" unicode="R" horiz-adv-x="463" 
d="M20 232q34 98 68 197q41 111 94 190q24 37 62 57.5t78 20.5q73 0 112 -52q27 -38 27 -122q0 -90 -33 -165q-38 -88 -106 -114q-19 -8 -27 -11q-15 -7 -16 -16q3 -13 16 -26q33 -33 78.5 -93t54.5 -86l2 -8q0 -5 -8 -12t-27 -19q-26 -18 -38 -18l-3 2q-45 65 -91 123
q-35 43 -79 92q-17 20 -20 51q2 19 13 36t36 30q81 41 111 81q43 56 43 157q0 32 -14.5 57t-39.5 25q-17 0 -34.5 -13t-34.5 -41q-40 -66 -75.5 -159t-47.5 -166q-18 -114 -47.5 -175t-63.5 -61l-12 2q-25 6 -25 41q0 26 17 85q25 88 30 110z" />
    <glyph glyph-name="S" unicode="S" horiz-adv-x="557" 
d="M-43 133q6 57 74 90q60 29 137 29q36 0 62 -6q7 -1 10.5 -10t3.5 -23q0 -21 -5.5 -36.5t-15.5 -20.5l-90 4q-29 0 -53 -8.5t-27 -30.5q2 -12 13 -20.5t32 -8.5l97 -8q20 0 32.5 1t49.5 7q58 9 89.5 31.5t31.5 52.5q0 41 -50 70l-134 70q-71 47 -71 123l3 38
q18 102 119 165q91 57 202 57q60 0 93 -28q30 -25 30 -66q0 -76 -84 -131q-65 -42 -152 -58q-17 0 -20 33q0 21 6 40t14 21q42 11 86 33q56 29 56 53q0 5 -9.5 8t-23.5 3q-77 0 -145 -37q-82 -45 -82 -115q2 -19 12 -35.5t33 -30.5q35 -22 61 -36l78 -40q35 -21 57.5 -54
t22.5 -71q0 -101 -107 -153q-84 -41 -194 -41q-99 0 -153 20q-89 33 -89 119z" />
    <glyph glyph-name="T" unicode="T" horiz-adv-x="574" 
d="M59 496q4 43 101 77q64 23 205 49l184 34q14 22 33 36.5t43 14.5q22 0 36.5 -15.5t14.5 -37.5q0 -8 -1 -12.5t-7 -16.5q-13 -18 -27 -28t-14 -11q-41 -97 -81 -193q-62 -145 -107 -245q-58 -127 -82 -164q-5 -7 -41 -7h-21h-14q-27 0 -36 1.5t-11 7.5l6 10q62 86 155 280
q97 201 113 283h-6q-41 0 -186.5 -34t-145.5 -50q0 -3 53 -35q30 -18 54 -34q0 -16 -26 -41t-40 -25q-50 21 -93 58q-59 50 -59 98z" />
    <glyph glyph-name="U" unicode="U" horiz-adv-x="686" 
d="M88 508q34 80 87 129q63 58 139 58q52 0 82 -21q38 -27 38 -88q-6 -52 -53 -156q-29 -65 -92 -187.5t-72 -144.5l230 232q47 49 95 98q41 43 75.5 85t46.5 69q6 11 32.5 21t47.5 10q20 0 20 -13q0 -8 -2 -12q-55 -105 -84 -165q-61 -124 -93 -213q-44 -121 -44 -189
q0 -10 -35.5 -17.5t-64.5 -7.5l-3 25q0 46 25 121q21 65 58 141q-81 -82 -161 -164q-70 -65 -131 -107q-27 -18 -57 -18q-26 0 -45.5 17.5t-19.5 47.5q2 19 4.5 27.5t9.5 24.5q56 135 94 217q32 67 90 178q12 24 17.5 42t5.5 32q0 25 -25 25q-13 0 -25.5 -5t-25.5 -14
q-36 -28 -62 -83q-23 -60 -45 -120q-11 -13 -39 -31q-35 -22 -53 -22q-14 4 -14 14q0 23 15.5 73.5t33.5 90.5z" />
    <glyph glyph-name="V" unicode="V" horiz-adv-x="648" 
d="M33 357q28 126 87 215q76 114 185 127q53 0 90 -23.5t37 -66.5l-4 -31q-18 -65 -65 -153q-40 -75 -80 -149q-43 -87 -54 -157q0 -14 10 -22.5t25 -10.5q18 0 39.5 9t40.5 22q109 87 200 249q83 147 83 222q2 10 41 35t52 25l3 -2q0 -100 -65 -245.5t-157 -256.5
q-100 -120 -188 -142q-10 -2 -31.5 -5t-29.5 -3q-51 0 -81.5 29.5t-35.5 80.5q0 60 43 159q13 31 47 98q50 102 101 205l4 18q0 21 -29 21q-22 0 -46 -12.5t-36 -31.5q-34 -51 -52 -94q-3 -6 -26 -78q-5 -17 -35 -38t-53 -21q-20 3 -20 27z" />
    <glyph glyph-name="W" unicode="W" horiz-adv-x="889" 
d="M23 369q18 83 61 160q37 68 84 116q54 54 131 54q51 0 85 -25.5t34 -73.5q0 -27 -16 -65q-40 -87 -73 -153.5t-64 -129.5t-60 -125q62 63 121 129q44 49 122 141q31 36 128 152q6 8 14.5 11t20.5 3q24 0 41.5 -11.5t17.5 -28.5l-170 -410q0 -26 29 -29q30 3 57 25
q73 60 140 166q55 87 102 196q37 86 55 154q4 17 30 29t48 12q14 0 14 -4q0 -82 -60 -221q-56 -129 -135 -246q-82 -121 -143 -160q-27 -18 -59 -28.5t-64 -10.5q-41 0 -68 22q-31 25 -38 74q0 8 -2 12q0 38 84 216l-130 -150q-80 -91 -118 -125q-28 -25 -52 -36t-47 -11
q-27 0 -43 15t-16 42l6 31q19 54 61 138l83 166q48 98 77 169q5 15 5 25q0 25 -31 25q-18 0 -39.5 -11.5t-34.5 -31.5q-34 -50 -53 -94q-13 -30 -27 -79q-3 -14 -35.5 -35.5t-54.5 -21.5q-17 0 -20 19z" />
    <glyph glyph-name="X" unicode="X" horiz-adv-x="557" 
d="M324 361l4 192q0 54 -17 54q-14 0 -43 -33q-16 -15 -49 -54t-45 -57q-10 7 -22 36t-15 54q22 54 82 98t119 44q41 0 65.5 -20.5t24.5 -55.5q0 -11 -1 -45t-1 -54q1 -13 1.5 -26t0.5 -25q47 55 89 99q83 87 133 114q2 -12 3 -18.5t1 -20.5q0 -26 -9 -50t-28 -36
q-50 -54 -100.5 -109.5t-88.5 -107.5q0 -10 -2 -31t-2 -34q0 -66 11.5 -127.5t35.5 -118.5q6 -17 6 -27q0 -8 -12 -8h-33q-27 0 -46.5 2.5t-22.5 9.5q-17 40 -25 104q-13 115 -14 115q-4 0 -115 -118q-68 -73 -117 -109q-2 -2 -18.5 -3t-30.5 -1h-63q-11 3 -11 10t9 14.5
t24 14.5q59 33 163 143q84 89 159 185z" />
    <glyph glyph-name="Y" unicode="Y" horiz-adv-x="668" 
d="M23 340q11 101 64 196q42 75 89 114q26 24 59.5 36.5t65.5 12.5q41 0 70.5 -18.5t38.5 -51.5l2 -20q0 -49 -39 -140q-48 -102 -96 -203q-10 -29 -42 -98q-24 -51 -38 -80l6 -4q55 46 111 93q107 91 177 169q99 111 124 195q1 10 17 16t36 6q19 0 30 -5t11 -13
q-37 -103 -75 -196q-47 -115 -99 -224q-48 -106 -72 -154q-40 -81 -74 -134q-38 -60 -71 -85q-8 -4 -19 -4q-16 0 -32 9.5t-17 25.5q2 9 5.5 14.5t8.5 11.5q20 20 97 172q69 136 112 230l-4 2q-29 -39 -80 -90q-61 -62 -102 -86q-37 -21 -60 -30q-33 -13 -61 -13
q-30 0 -49.5 14.5t-22.5 44.5q0 21 7 43q2 6 30 68q68 153 94 212q47 106 57 128q20 45 27 64q2 6 2 18q0 21 -28 21q-15 0 -30.5 -6.5t-23.5 -14.5q-27 -22 -49 -65q-28 -52 -49 -136q-4 -11 -40 -36t-56 -25q-12 3 -12 16z" />
    <glyph glyph-name="Z" unicode="Z" horiz-adv-x="463" 
d="M166 314q29 33 98.5 88t102.5 92q20 21 28.5 38t8.5 32q0 20 -16.5 30t-41.5 10q-15 0 -22 -1q-8 -3 -11 -3q-56 -16 -103 -51q-40 -32 -79 -63q-2 3 -2 4q-3 7 -4 10q0 24 14 71t19 52q39 35 91.5 54.5t102.5 19.5q67 0 105 -32q43 -36 43 -106q0 -72 -69 -144
q-83 -62 -165 -124q64 -13 85 -35q32 -34 32 -99l-2 -32q0 -114 -91 -225q-75 -92 -159 -127q-35 -19 -86 -19q-54 0 -88 25q-39 29 -39 82q7 78 58 143q27 35 88 84q13 10 28 15.5t27 5.5q37 0 37 -33q0 -13 -8 -21q-2 -3 -85 -86q-36 -36 -43 -73q-2 -6 -2 -12v-9
q0 -33 31 -33q27 0 64 22t59 50q48 60 74 110q35 67 35 126q0 42 -30 59q-10 6 -67 20q-12 2 -21 17t-11 33q3 23 14 35z" />
    <glyph glyph-name="bracketleft" unicode="[" horiz-adv-x="443" 
d="M484 635h-97l-239 -694l-43 -125h96l-17 -60h-178l234 693l86 248h178z" />
    <glyph glyph-name="backslash" unicode="\" horiz-adv-x="277" 
d="M-29 723h86l234 -694l18 -52h-84l-237 691z" />
    <glyph glyph-name="bracketright" unicode="]" horiz-adv-x="443" 
d="M-96 -180h98l238 694l45 127h-96l18 58h178l-237 -693l-84 -248h-177z" />
    <glyph glyph-name="asciicircum" unicode="^" horiz-adv-x="600" 
d="M113 197l160 366h53l162 -366h-60l-127 289l-129 -289h-59z" />
    <glyph glyph-name="underscore" unicode="_" 
d="M0 -74h500v-53h-500v53z" />
    <glyph glyph-name="grave" unicode="`" horiz-adv-x="223" 
d="M146 598q22 -41 48.5 -86t51.5 -86h-49q-10 0 -27 20q-13 15 -25 31q-17 25 -48 60q-27 30 -54 61h103z" />
    <glyph glyph-name="a" unicode="a" horiz-adv-x="426" 
d="M289 88q14 0 50.5 24t74.5 58q1 1 6 2q10 0 10 -35q0 -33 -23 -57q-3 -3 -93 -60q-17 -10 -36.5 -17t-39.5 -7q-21 0 -29.5 8t-11.5 31l2 10q-30 -29 -37 -33q-29 -18 -74 -18q-54 0 -80 42q-22 35 -22 91q0 101 89 167.5t204 66.5q31 0 51.5 -1.5t23.5 -5t4.5 -20
t2.5 -25.5v-22q0 -10 -6 -10q-15 7 -34.5 12.5t-37.5 5.5q-54 0 -116 -37q-70 -42 -81 -94l-8 -51q0 -18 7 -26.5t19 -10.5q50 5 97 64q20 24 65 102q5 -2 18.5 -4t16.5 -2h51q-32 -67 -43 -92q-20 -43 -20 -56z" />
    <glyph glyph-name="b" unicode="b" horiz-adv-x="406" 
d="M270 691q14 32 44 32q18 0 29.5 -12.5t11.5 -34.5q0 -19 -5 -33q-25 -73 -81 -183q-68 -134 -89 -182q-47 -107 -61 -190q0 -21 18 -24q27 4 52.5 23t42.5 44v4l-5 49q6 48 17.5 84t36.5 68q6 8 20 15.5t25 7.5q35 0 35 -62q0 -31 -10 -66q-13 -41 -25 -81q0 -7 12 -11
q11 1 30 11t30 20q1 1 6 2q6 0 6 -22l2 -21q0 -34 -27 -51q-22 -14 -59 -14q-17 2 -27 4.5t-22 9.5q-58 -53 -73 -61q-41 -21 -91 -21q-40 0 -63 19.5t-23 60.5l6 43l-45 -37q-6 0 -8.5 13t-2.5 34q0 27 20 44.5t40 35.5q24 22 40 40t23 32q18 40 56 136q52 130 55 138
q31 77 59 136z" />
    <glyph glyph-name="c" unicode="c" horiz-adv-x="352" 
d="M344 172q8 0 9.5 -11.5t1.5 -25.5q0 -33 -26 -57q-5 -4 -56 -39q-26 -17 -66.5 -31t-83.5 -14q-51 0 -83 17q-39 21 -46 67l-2 47q0 81 45 141t125 84q19 4 40 7.5t36 3.5q35 0 59 -10q35 -14 35 -44q0 -25 -11.5 -56.5t-19.5 -37.5h-71q-15 0 -17 2q13 25 14 27
q7 16 7 31q0 14 -4 19t-17 5q-51 0 -89 -48.5t-38 -100.5q0 -46 17 -65q12 -13 34 -15l17 2q41 0 100 37q22 14 90 65z" />
    <glyph glyph-name="d" unicode="d" horiz-adv-x="463" 
d="M301 246q50 65 93 178.5t53 206.5l-2 2q-48 -78 -87 -181.5t-59 -203.5zM227 281q0 6 -16 6q-39 0 -82 -34q-55 -44 -55 -115l2 -25q4 -36 35 -39l22 6q26 12 46 27t20 26q0 35 11 84q6 27 17 64zM248 352q21 80 55 156q39 88 88 152q26 35 44 50t32 15q20 0 30.5 -20.5
t10.5 -50.5l2 -36q0 -117 -60.5 -254.5t-158.5 -248.5q-7 -10 -10 -23q0 -14 26 -18q38 10 95 55q25 20 51 41q6 0 10 -13.5t4 -29.5v-14q-7 -31 -85 -76q-73 -41 -107 -45h-15q-20 0 -34 9.5t-27 37.5q-28 -23 -56.5 -33t-64.5 -10q-37 0 -58.5 17.5t-27.5 50.5
q-6 42 -6 73q0 90 62.5 153.5t152.5 63.5h23t24 -2z" />
    <glyph glyph-name="e" unicode="e" horiz-adv-x="352" 
d="M84 178q58 7 103 33.5t45 52.5q0 11 -9 19t-20 8q-31 0 -70 -36.5t-49 -76.5zM346 172q9 0 9 -35q0 -16 -2 -28t-7 -17q-36 -36 -89 -62q-69 -34 -134 -34q-18 0 -35 2t-31 8q-35 11 -51 43.5t-16 77.5q0 95 73.5 165.5t170.5 70.5q43 0 67.5 -19.5t24.5 -60.5
q0 -52 -47 -95q-37 -33 -95 -55q-28 -12 -57 -15t-34 -6t-9 -12q0 -12 20.5 -22t45.5 -10q71 23 103 39q52 25 93 65z" />
    <glyph glyph-name="f" unicode="f" horiz-adv-x="277" 
d="M129 344q59 164 119 328q10 20 24.5 32.5t28.5 12.5q31 0 31 -35q0 -43 -23 -113q-10 -29 -82 -202q-33 -77 -69 -174q-29 -76 -63 -176q-23 -66 -60 -177l-8 -33q0 -18 10 -18q13 0 24 20q20 31 31 56q17 36 39 102q5 16 10.5 63.5t10.5 51.5q27 20 42 32q48 37 74 58
q13 -7 13 -37q0 -36 -38 -65q-20 -15 -40 -29q0 -104 -27 -175q-17 -43 -53 -91q-24 -24 -47 -48q-30 -26 -62 -26q-30 0 -48.5 21.5t-18.5 60.5q0 21 6 45q25 85 51 163q32 91 51 148q-28 -24 -47 -39t-29 -22q-5 0 -6.5 7t-1.5 22q0 48 44 90q39 37 79 74q11 13 18.5 32
t16.5 41z" />
    <glyph glyph-name="g" unicode="g" horiz-adv-x="426" 
d="M361 240q-13 -23 -37.5 -81t-30.5 -79l129 94q3 -10 5.5 -21.5t2.5 -25.5q0 -30 -10 -37q-70 -53 -109 -85q-70 -58 -92 -89q-9 -13 -36 -79.5t-58 -107.5q-7 -9 -19 -15.5t-28 -6.5q-20 0 -30.5 13t-10.5 34q2 21 4.5 31t9.5 29q13 38 47 88.5t68 99.5l2 16
q-11 -9 -30.5 -15.5t-45.5 -6.5q-50 0 -75 31t-25 84l-1 21q0 69 25 113q30 53 103 85q36 16 81 23.5t83 7.5q22 0 36.5 -1t26.5 -2.5t16.5 -13t4.5 -30.5q0 -33 -10 -33q-13 5 -35.5 8.5t-48.5 3.5q-77 0 -133 -42.5t-56 -113.5q0 -26 7 -42.5t18 -16.5q37 0 75 39
q26 30 31 36q28 35 60 87h86z" />
    <glyph glyph-name="h" unicode="h" 
d="M117 305q30 88 50 140q28 73 52 126q28 61 62 117q13 21 17 25q9 10 22 10q17 0 28 -12t11 -29l-4 -34q-18 -72 -59.5 -154.5t-81.5 -159.5q-48 -95 -66 -162q31 23 51 38q64 49 108 87q32 28 60.5 43t50.5 15q17 0 29 -8.5t12 -26.5q0 -11 -10.5 -36.5t-20.5 -51.5
q-15 -33 -48 -94q-17 -32 -17 -44q2 -5 4 -6q16 1 81 51q24 18 48 37q3 0 6 -18.5t4 -24.5q0 -24 -15 -42q-19 -18 -24 -23q-42 -32 -79 -49q-48 -23 -89 -23q-22 0 -34.5 8t-12.5 27q3 23 19 65q23 52 38 82q6 12 15 29q2 3 3 6t1 6q-2 4 -4 4q-6 0 -21 -12
q-51 -39 -107 -88q-40 -36 -79.5 -71.5t-57.5 -47.5q-12 -8 -30 -8q-11 0 -16 2q-13 6 -13 25q0 24 15 60l14 34l-2 2l-21 -18q-23 -19 -26 -19l-3 33q0 43 36 79q101 102 104 111z" />
    <glyph glyph-name="i" unicode="i" horiz-adv-x="260" 
d="M223 410q-21 0 -32 13t-13 32q11 33 20 45q16 21 46 21q20 0 31.5 -14t11.5 -36q0 -26 -17.5 -43.5t-46.5 -17.5zM141 350h93q-33 -72 -50 -109q-52 -114 -59 -136l-2 -9q4 -5 6 -6q30 7 71 40q14 11 38 32q10 10 16 10q8 0 8 -14v-21q0 -47 -54 -84q-28 -19 -97 -47
q-18 -8 -54 -8q-24 0 -35.5 7t-15.5 28q0 17 10 41.5t19 46.5l-2 2l-17 -14q-7 -9 -19.5 -18t-16.5 -9l-1 37l1 43q13 13 55 48q64 54 84 91q6 8 15 29q2 7 7 20z" />
    <glyph glyph-name="j" unicode="j" horiz-adv-x="297" 
d="M246 406q-22 0 -34.5 14.5t-12.5 34.5l2 10q2 20 17 36q19 20 46 20q20 0 32.5 -15.5t12.5 -40.5q-5 -30 -27 -46q-17 -13 -36 -13zM186 350h74q-19 -57 -43 -121q-34 -89 -67 -178q8 5 51 44q65 59 74 67l4 4q5 4 10 4q4 0 8 -4q4 -8 4 -29q0 -43 -46 -85l-46 -40
q-49 -45 -76.5 -70.5t-32.5 -33.5q-20 -55 -36.5 -100.5t-32.5 -71.5q-22 -37 -52 -37q-40 0 -40 53q0 48 28 107q36 63 72 125l74 205l-131 -111q-2 8 -2 13q-3 20 -3 30q0 25 0.5 31t2.5 10q47 39 74 62t44 40z" />
    <glyph glyph-name="k" unicode="k" 
d="M98 273q23 49 52 116l56 132q43 101 69 157q9 21 26 33t35 12q35 0 35 -51q-4 -40 -45.5 -122.5t-81.5 -160.5l-34 -72q-9 -20 -21 -49q45 42 81 63q50 30 97 30q45 0 72.5 -21.5t27.5 -64.5q0 -52 -43 -90q-28 -25 -90 -54q-31 -15 -35 -19q-8 -8 -8 -20q0 -13 14 -16
q51 11 94 31.5t81 54.5q3 3 5.5 4t4.5 2q12 0 12 -31q0 -49 -53 -85q-35 -24 -99 -44q-23 -7 -41 -10.5t-36 -3.5q-36 0 -58.5 17t-25.5 52l6 29q6 18 21.5 49t19.5 31q42 0 81 27q44 30 44 71q0 13 -15 13q-36 0 -92 -51q-37 -32 -82.5 -88t-76 -103t-70.5 -47
q-27 0 -27 31q0 21 10.5 45t20.5 47l-45 -35q-5 0 -8 10t-3 25q0 45 49 85q66 54 76 71z" />
    <glyph glyph-name="l" unicode="l" horiz-adv-x="260" 
d="M100 281q27 82 52 155q33 96 94 255q11 34 43 34q30 0 33 -30q0 -45 -17.5 -111t-40.5 -115q-27 -60 -54 -121.5t-48 -120.5q-26 -70 -39 -125q0 -7 10 -10l12 4q25 15 65 47q27 22 42 33q12 0 12 -37q0 -52 -61 -90q-34 -22 -107 -47q-15 -6 -32 -6q-19 0 -31.5 12
t-14.5 29l2 10q2 16 8.5 37t14.5 43l-2 4q-29 -23 -57 -45q-3 0 -5 9.5t-2 21.5q0 45 53 93q37 34 48 50q14 10 22 21z" />
    <glyph glyph-name="m" unicode="m" horiz-adv-x="686" 
d="M166 211v-4l139 115q11 10 36.5 22.5t41.5 12.5q14 0 29.5 -8t15.5 -21l-2 -10q-5 -14 -26 -61q-17 -37 -19 -54q84 68 168 137q7 6 22 11.5t29 5.5q15 0 30 -10t15 -25q0 -9 -8 -29q-12 -30 -66 -140q-22 -45 -22 -49q0 -11 10 -14q27 6 64 34q29 24 59 48q6 -3 9 -22
q0 -25 -3 -36q-6 -21 -24 -36q-42 -35 -85 -56q-53 -26 -97 -26q-24 0 -38 14q-10 10 -12 25l2 8q13 38 27.5 68.5t17.5 36.5q11 23 22 47q7 16 7 20v4q-3 0 -30 -22q-23 -19 -35 -31l-166 -158q-14 -12 -37 -12q-29 0 -29 27q0 13 12 42q9 21 45 99l12 24q11 24 11 33v4
q-1 0 -23 -19q-8 -7 -16 -13q-15 -15 -120 -112q-39 -36 -77 -75q-10 -10 -28 -10q-13 0 -23 8t-10 19v8q9 23 23 66q2 7 6 18q-23 -18 -46 -35v29v18q0 21 1.5 29.5t11.5 15.5q27 22 77 73q16 17 46 48q6 10 15.5 32t12.5 25h88q-19 -37 -37 -74q-23 -47 -26 -65z" />
    <glyph glyph-name="n" unicode="n" 
d="M121 313q8 18 11 25q7 14 13 14h84q-2 -7 -35 -78q-10 -23 -32 -69l-2 -2l2 -2q15 5 27 18q42 31 94 69q71 51 88 60q21 7 39 7q17 0 31 -3.5t14 -27.5q0 -13 -5 -29t-22 -53l-36 -72q-23 -47 -33 -74q4 -5 8 -6q16 4 31 14q39 26 66 46q12 9 30 24q6 0 10 -7.5t4 -31.5
q0 -37 -26 -57l-98 -58q-49 -24 -79 -24q-54 0 -57 35q3 22 13 48t33 74q7 16 22 44q4 8 4 18q-2 4 -4 4q-4 0 -12 -6q-2 -1 -31 -25q-71 -60 -124 -105q-65 -55 -94 -77q-13 -10 -30 -10q-29 0 -29 33l2 18l27 70q-13 -12 -19 -17q-21 -18 -26 -18q-1 10 -1.5 18.5
t-1.5 20.5q0 26 2.5 35.5t14.5 19.5q33 22 77 71t50 66z" />
    <glyph glyph-name="o" unicode="o" horiz-adv-x="369" 
d="M207 385q55 0 86 -35q27 -30 27 -73q0 -39 -19 -52q6 -18 6 -34q0 -13 -3 -22l-9 -21l12 -3q13 0 27.5 7.5t28.5 19.5q8 0 8 -35q0 -73 -78 -73q-6 1 -14 2.5t-13 5.5q-65 -78 -162 -78q-51 0 -79 22q-43 33 -43 118l2 36q8 75 59 137q65 78 164 78zM193 113q0 3 -7.5 19
t-7.5 30q4 12 4 18q5 25 27.5 45.5t22.5 26.5q0 18 -11.5 29.5t-31.5 11.5q-51 0 -84 -55q-29 -48 -29 -101q3 -37 20 -51q8 -3 17 -6t16 -4q17 2 34 10t30 27z" />
    <glyph glyph-name="p" unicode="p" horiz-adv-x="537" 
d="M238 350q-5 -21 -13.5 -44t-17.5 -46q32 32 65 64q37 27 82 31q52 0 78.5 -23.5t26.5 -73.5v-14q-5 -55 -49 -116q-14 -20 -43 -50q48 9 84 32q19 12 70 56l8 4q12 0 12 -33q0 -16 -3.5 -28t-12.5 -19q-43 -41 -93 -63.5t-96 -22.5q-12 1 -24 3t-25 5q-27 -16 -60 -16
q-56 0 -65 51q0 21 22 21q21 0 46 -5q49 25 89 77q44 58 44 110q0 21 -19 21t-43 -17q-79 -53 -133 -141q-43 -71 -77 -179q-16 -52 -50 -190q-3 -14 -16.5 -23.5t-30.5 -9.5q-16 0 -25.5 7.5t-11.5 25.5q0 47 33 151q23 73 67 182q34 84 48 112q-21 -20 -66 -60t-55 -47
q-5 0 -6 17.5t-1 21.5v20q0 6 1 11l2 10q11 13 46 42q45 38 91 77q1 1 24 23q19 18 21 26q6 20 14 20h62z" />
    <glyph glyph-name="q" unicode="q" horiz-adv-x="443" 
d="M84 -160l84 176l-2 4q-9 -6 -21 -12.5t-26 -9t-35 -2.5q-54 0 -76 43q-16 31 -16 90q0 108 98 174q86 58 201 58q72 0 107 -23v-82q-21 16 -47 25q-33 12 -70 12q-71 0 -127 -38q-62 -42 -68 -109q0 -70 25 -72q13 2 26.5 9t28.5 21q28 23 58 64q25 36 51 72h26
q13 0 20 -0.5t27 -3.5q4 -4 4 -7t-2.5 -9t-5.5 -13q-20 -45 -64 -133q-36 -73 -64 -134q-38 -84 -56 -137q0 -18 16 -18q13 0 21 8q33 33 60 105q19 52 30 108q5 33 6 38.5t12 16.5q27 28 79 71q47 38 54 42q4 0 8.5 -15t4.5 -32q0 -29 -35 -59q-30 -23 -59 -45
q-20 -131 -40 -181q-40 -103 -124 -129q-20 -6 -45 -6q-35 0 -54 17q-22 20 -22 59q3 24 12 57z" />
    <glyph glyph-name="r" unicode="r" horiz-adv-x="369" 
d="M109 318q-14 18 -17 39q0 26 15.5 43.5t40.5 17.5q21 0 35 -10.5t16.5 -25t4 -23t7.5 -13.5q4 0 20 2t27 2q25 0 41.5 -14.5t16.5 -38.5q0 -18 -7 -37l-79 -156l-1 -4q0 -6 11 -10l8 2q16 6 52.5 31t49.5 39q3 5 9 10l2 2q3 0 5.5 -2t5.5 -5t3 -38q0 -27 -6 -33
q-68 -58 -118 -81q-42 -19 -81 -19q-25 0 -40 13t-15 34q10 50 42 115l56 110q0 11 -18 11q-24 0 -50 -34l-22 -30q-31 -35 -82 -82q-47 -43 -61 -51q-2 6 -2 9q-3 15 -3 24q0 24 1.5 35.5t5.5 15.5q47 39 92 100q14 20 35 52z" />
    <glyph glyph-name="s" unicode="s" horiz-adv-x="332" 
d="M27 205q45 43 83 88.5t50 67.5q0 37 14 68q19 42 53 42q22 0 32 -19q7 -14 7 -38q0 -20 -10 -33q-13 -18 -14 -20v-97q0 -60 -4 -87q-7 -49 -29 -81q13 0 52 27q23 16 52 39q8 10 15 10q12 0 12 -16v-19q0 -38 -40 -73q-32 -28 -75 -43q-21 -7 -42 -11.5t-35 -5.5
q-5 2 -12 2h-11q-11 0 -24 -5t-25 -5q-32 0 -51 12q-23 15 -23 45q3 19 21 19q13 0 28 -3t29 -6q38 9 55 62q13 40 13 90q0 12 -0.5 14t-2.5 3q-5 0 -92 -87q-46 -46 -69 -63q-5 0 -5 35l1 47q2 5 27 25z" />
    <glyph glyph-name="t" unicode="t" horiz-adv-x="277" 
d="M193 486q15 63 32.5 105t36.5 65q7 11 22 23t27 12q23 -4 23 -41q0 -35 -19 -79.5t-36 -84.5h47q12 0 12 -27q0 -16 -7.5 -29.5t-19.5 -13.5h-55q-13 -30 -53 -117q-60 -128 -74 -203q0 -11 10 -14q31 8 68 38q30 26 61 52q10 0 12.5 -13t2.5 -22q-1 -7 -2 -19.5
t-11 -25.5q-17 -19 -76 -54q-67 -40 -100 -44q-35 0 -52 11.5t-19 29.5q13 36 19 54q12 35 15 56l-71 -61q-5 0 -8 10.5t-3 24.5q0 16 3 31t8 18q14 9 72 69q62 64 71 85q3 7 17.5 45.5t17.5 48.5h-57q-2 3 -3 5q-5 9 -6 15q2 21 9.5 35.5t21.5 14.5h64z" />
    <glyph glyph-name="u" unicode="u" 
d="M438 350q39 0 39 -10l-2 -8l-110 -232q4 -5 8 -6l25 8q36 21 67 46q11 9 27 24l4 2q4 0 7 -11t3 -26q0 -35 -29 -61q-11 -10 -61 -39q-82 -43 -111 -43q-52 0 -55 37q10 61 41 114l-4 3q-41 -40 -91 -76q-59 -43 -114 -68q-20 -8 -43 -8q-19 0 -30 8.5t-11 28.5
q0 11 7 35t20 47l-2 2l-41 -35q-1 2 -1 4q-4 14 -4 33q0 14 0.5 27t6.5 20q39 34 79 69q45 42 64 83q7 24 10.5 28t16.5 4h65q8 0 8 -10q0 -12 -10 -22q-45 -85 -53 -101q-29 -58 -45 -106l2 -2q5 1 10.5 3.5t14.5 8.5q54 36 114 94l103 103q14 13 28 27q7 5 31 5h16z" />
    <glyph glyph-name="v" unicode="v" horiz-adv-x="426" 
d="M264 184q0 21 20 74q27 71 64 92q12 7 25 7q33 0 33 -44q0 -36 -24 -92q-15 -35 -38 -73q0 -4 6 -8t11 -5q12 6 22 13q35 27 37 28q6 0 8 -3q6 -7 6 -32q0 -35 -22.5 -56.5t-57.5 -25.5q-4 2 -28 6.5t-35 16.5q-21 -24 -36 -37q-47 -39 -93 -47l-39 -2q-45 0 -70.5 17
t-25.5 57q4 29 4.5 33.5t5.5 19.5v4q-5 -3 -20 -18q-26 -26 -33 -27q-7 3 -7 14v49q0 15 16 29t31 26t36.5 31.5t31.5 28.5q25 26 38 52l18 36q6 2 10 2h35q22 0 27.5 -0.5t8.5 -1.5v-4q0 -5 -5 -14q-1 -3 -5 -8l-104 -230q0 -23 26 -26q41 14 75 44q39 35 48 74z" />
    <glyph glyph-name="w" unicode="w" horiz-adv-x="594" 
d="M107 287q4 12 6 19q7 20 14 30q3 8 10 11t22 3h11h27q18 0 18 -6v-4q-21 -53 -53 -125q-35 -78 -41 -88q-4 -16 -9.5 -30.5t-6.5 -18.5q4 -8 8.5 -9.5t5.5 -2.5q11 1 24 10.5t27 23.5q41 40 64 71.5t73 115.5q10 18 26 28.5t28 10.5q11 -2 16.5 -6t5.5 -19l-4 -24
q-1 -3 -39 -119q-17 -52 -20 -70l-2 -10q0 -8 12 -12q75 20 120 147q29 83 48 109q13 18 26.5 26.5t26.5 8.5q17 0 25 -12.5t8 -31.5q0 -37 -25 -83q-34 -62 -38 -78q0 -12 8 -15q16 6 26.5 12.5t30.5 22.5l4 2q6 0 8 -12.5t2 -16.5q0 -10 -2 -26.5t-4 -22.5
q-10 -12 -19 -18q-20 -14 -50 -17q-40 0 -54 17q-37 -37 -73 -58q-45 -26 -87 -26q-34 0 -54.5 19.5t-20.5 54.5q-59 -72 -148 -72q-28 0 -46.5 9t-23.5 32l-4 20q0 18 8 40q4 11 9 22l-2 2q-10 -10 -16 -15q-19 -18 -29 -24q-3 0 -5 11t-2 28q0 14 1 23t2.5 15t29.5 31
q71 63 97 97z" />
    <glyph glyph-name="x" unicode="x" horiz-adv-x="480" 
d="M367 350h80q2 -2 2 -4q-1 -3 -2 -5q-4 -7 -11 -15q-27 -25 -79 -78l-70 -72q0 -13 -3 -37t-3 -37q2 -12 4 -17q7 -17 22 -17q43 11 89 43q23 16 77 63q6 0 9.5 -5.5t3.5 -23.5q0 -37 -9 -49q-10 -17 -60.5 -49t-98.5 -49q-12 -3 -16 -3.5t-15 -0.5q-20 0 -37 6t-21 14
q-16 21 -20.5 35.5t-7.5 50.5l-105 -100h-82q0 10 62 72l102 102q12 12 15 16q12 16 12 39q-3 31 -14 31q-4 0 -8.5 -5t-6.5 -7q-72 -63 -111 -97q-73 -64 -85 -71q-3 9 -3 18v37q0 23 7 29q20 14 95 84t105 88q10 6 26.5 12.5t29.5 6.5q28 0 40 -28q9 -21 9 -54z" />
    <glyph glyph-name="y" unicode="y" horiz-adv-x="463" 
d="M225 350l-106 -229l2 -4l139 121l113 112h74q-33 -77 -51 -118q-47 -107 -72 -160q22 14 55 40l80 64q4 0 8 -14.5t4 -30.5q0 -23 -9 -35q-5 -7 -17 -14l-116 -94q-65 -54 -79 -78q-15 -22 -41 -81.5t-38 -80t-28 -31t-32 -10.5q-21 0 -32 15.5t-11 37.5q1 5 2.5 9
t1.5 12q9 35 36 79q40 60 81 120q17 29 43.5 91t38.5 81l-3 2q-65 -54 -118 -96q-59 -47 -86 -56q-5 -2 -17.5 -4t-15.5 -2q-18 0 -25 7t-8 20q0 20 12 50q8 20 17 40l-4 4l-15 -15q-17 -16 -24 -16t-7 19v24q1 11 1.5 21.5t5.5 17.5q36 31 71.5 64.5t55.5 58.5l26 59h88z
" />
    <glyph glyph-name="z" unicode="z" horiz-adv-x="443" 
d="M-16 166q18 14 91 88q99 100 181 100q46 0 75.5 -30.5t29.5 -77.5q0 -38 -23 -74q-7 -11 -90 -94q2 -12 10 -29q5 -11 8 -14q5 0 65 48.5t107 90.5q3 -3 5 -8t4 -14l2 -27q0 -16 -5 -25.5t-12 -15.5q-15 -12 -86 -66q-49 -37 -94 -73l-22 -56q-28 -63 -63 -109
q-47 -63 -95 -75q-26 -6 -51 -6q-34 0 -52 23.5t-18 58.5q0 29 21 58q26 35 81 73q16 11 53 32t49.5 29.5t12.5 32.5q0 31 -14 31q-9 -4 -15 -5q-19 -5 -35 -5q-20 3 -28.5 9t-12.5 23q0 28 26.5 46t58.5 18l28 -2q19 0 56.5 40.5t37.5 72.5q0 19 -9.5 33t-28.5 14
q-12 0 -27 -7t-35 -24q-33 -27 -81 -74q-76 -73 -103 -92q-5 0 -8 9t-3 22q0 16 1.5 31.5t7.5 19.5zM137 -113q-37 -15 -78 -47q-47 -37 -47 -61q4 -19 19 -19q26 0 57.5 36.5t48.5 90.5z" />
    <glyph glyph-name="braceleft" unicode="{" horiz-adv-x="443" 
d="M488 637h-47q-22 0 -41 -19q-6 -6 -15 -20.5t-38 -94.5q-11 -30 -21 -52q-15 -46 -30 -91q-28 -70 -67 -96q-19 -14 -44 -26q-8 -3 -21 -9q8 -2 12 -4q27 -13 35 -36l4.5 -28.5t1.5 -14.5q0 -26 -15 -67t-24 -66q-28 -78 -37 -113q-5 -16 -7 -26q-5 -17 -5 -20
q3 -19 13.5 -26.5t29.5 -7.5h39l-22 -62h-76q-25 0 -46 20q-24 23 -24 58l4 25q0 1 58 180q20 62 20 94q0 22 -10 38q-13 20 -35 20h-6l24 71q8 0 21 4t22 9q57 30 101 160q18 56 37 112q28 70 53 101q39 49 98 49h80z" />
    <glyph glyph-name="bar" unicode="|" horiz-adv-x="223" 
d="M82 0v693v30h59v-694v-29h-59z" />
    <glyph glyph-name="braceright" unicode="}" horiz-adv-x="443" 
d="M-94 -184h47q22 0 43 19q7 6 16 20q9 17 29 74.5t27 76.5q15 44 31 89q28 70 67 98q17 12 44 24q8 3 20 8q-13 5 -19 9q-20 13 -24 26.5t-6 23t-3 19.5q43 150 86 301q0 33 -30 33h-48l21 62h74q26 0 48.5 -21.5t22.5 -58.5q0 -51 -42 -148t-42 -151q4 -34 15 -46.5
t31 -15.5l6 2l-23 -67q-7 0 -20 -4t-23 -9q-56 -30 -101 -162q-19 -57 -39 -116.5t-51 -95.5q-42 -48 -98 -48h-80z" />
    <glyph glyph-name="asciitilde" unicode="~" horiz-adv-x="600" 
d="M68 164q25 45 57 65.5t66 20.5q35 0 82 -19q114 -46 135 -49q22 0 45 20q18 16 43 52l35 -63q-35 -51 -64 -69q-22 -14 -57 -17q-38 0 -138 45q-49 22 -81 22q-27 0 -46.5 -14t-39.5 -56z" />
    <glyph glyph-name="c141" horiz-adv-x="574" 
d="M59 496q4 43 101 77q64 23 205 49l184 34q14 22 33 36.5t43 14.5q22 0 36.5 -15.5t14.5 -37.5q0 -8 -1 -12.5t-7 -16.5q-13 -18 -27 -28t-14 -11q-41 -97 -81 -193q-62 -145 -107 -245q-58 -127 -82 -164q-5 -7 -41 -7h-21h-14q-27 0 -36 1.5t-11 7.5l6 10q62 86 155 280
q97 201 113 283h-6q-41 0 -186.5 -34t-145.5 -50q0 -3 53 -35q30 -18 54 -34q0 -16 -26 -41t-40 -25q-50 21 -93 58q-59 50 -59 98zM510 833q3 -20 16.5 -27.5t39.5 -7.5q7 0 19.5 5t24.5 10q26 10 65 39q30 22 54 22q12 -3 12 -17q0 -15 -7 -24q-41 -47 -93.5 -75.5
t-97.5 -28.5q-41 0 -62.5 24.5t-21.5 79.5q0 10 9.5 21.5t20.5 11.5q15 0 21 -33z" />
    <glyph glyph-name="c142" horiz-adv-x="463" 
d="M166 314q29 33 98.5 88t102.5 92q20 21 28.5 38t8.5 32q0 20 -16.5 30t-41.5 10q-15 0 -22 -1q-8 -3 -11 -3q-56 -16 -103 -51q-40 -32 -79 -63q-2 3 -2 4q-3 7 -4 10q0 24 14 71t19 52q39 35 91.5 54.5t102.5 19.5q67 0 105 -32q43 -36 43 -106q0 -72 -69 -144
q-83 -62 -165 -124q64 -13 85 -35q32 -34 32 -99l-2 -32q0 -114 -91 -225q-75 -92 -159 -127q-35 -19 -86 -19q-54 0 -88 25q-39 29 -39 82q7 78 58 143q27 35 88 84q13 10 28 15.5t27 5.5q37 0 37 -33q0 -13 -8 -21q-2 -3 -85 -86q-36 -36 -43 -73q-2 -6 -2 -12v-9
q0 -33 31 -33q27 0 64 22t59 50q48 60 74 110q35 67 35 126q0 42 -30 59q-10 6 -67 20q-12 2 -21 17t-11 33q3 23 14 35zM339 833q3 -20 16.5 -27.5t39.5 -7.5q7 0 19.5 5t24.5 10q26 10 65 39q30 22 54 22q12 -3 12 -17q0 -15 -7 -24q-41 -47 -93.5 -75.5t-97.5 -28.5
q-41 0 -62.5 24.5t-21.5 79.5q0 10 9.5 21.5t20.5 11.5q15 0 21 -33z" />
    <glyph glyph-name="c143" horiz-adv-x="463" 
d="M166 314q29 33 98.5 88t102.5 92q20 21 28.5 38t8.5 32q0 20 -16.5 30t-41.5 10q-15 0 -22 -1q-8 -3 -11 -3q-56 -16 -103 -51q-40 -32 -79 -63q-2 3 -2 4q-3 7 -4 10q0 24 14 71t19 52q39 35 91.5 54.5t102.5 19.5q67 0 105 -32q43 -36 43 -106q0 -72 -69 -144
q-83 -62 -165 -124q64 -13 85 -35q32 -34 32 -99l-2 -32q0 -114 -91 -225q-75 -92 -159 -127q-35 -19 -86 -19q-54 0 -88 25q-39 29 -39 82q7 78 58 143q27 35 88 84q13 10 28 15.5t27 5.5q37 0 37 -33q0 -13 -8 -21q-2 -3 -85 -86q-36 -36 -43 -73q-2 -6 -2 -12v-9
q0 -33 31 -33q27 0 64 22t59 50q48 60 74 110q35 67 35 126q0 42 -30 59q-10 6 -67 20q-12 2 -21 17t-11 33q3 23 14 35zM349 737q22 22 50.5 57t47.5 63q8 14 43 14q13 0 22.5 -4.5t9.5 -13.5q-41 -36 -71 -66q-19 -19 -55 -58q-24 0 -35.5 1.5t-11.5 6.5z" />
    <glyph glyph-name="c157" horiz-adv-x="277" 
d="M193 486q15 63 32.5 105t36.5 65q7 11 22 23t27 12q23 -4 23 -41q0 -35 -19 -79.5t-36 -84.5h47q12 0 12 -27q0 -16 -7.5 -29.5t-19.5 -13.5h-55q-13 -30 -53 -117q-60 -128 -74 -203q0 -11 10 -14q31 8 68 38q30 26 61 52q10 0 12.5 -13t2.5 -22q-1 -7 -2 -19.5
t-11 -25.5q-17 -19 -76 -54q-67 -40 -100 -44q-35 0 -52 11.5t-19 29.5q13 36 19 54q12 35 15 56l-71 -61q-5 0 -8 10.5t-3 24.5q0 16 3 31t8 18q14 9 72 69q62 64 71 85q3 7 17.5 45.5t17.5 48.5h-57q-2 3 -3 5q-5 9 -6 15q2 21 9.5 35.5t21.5 14.5h64zM446 683
q2 -3 4.5 -7.5t2.5 -8.5l-3 -9q-5 -7 -42 -62q-25 -37 -29 -37l-25 2q-4 1 -4 10q0 19 14 61q4 14 15 40q3 5 7 10.5t17 7.5q29 0 43 -7z" />
    <glyph glyph-name="c158" horiz-adv-x="443" 
d="M-16 166q18 14 91 88q99 100 181 100q46 0 75.5 -30.5t29.5 -77.5q0 -38 -23 -74q-7 -11 -90 -94q2 -12 10 -29q5 -11 8 -14q5 0 65 48.5t107 90.5q3 -3 5 -8t4 -14l2 -27q0 -16 -5 -25.5t-12 -15.5q-15 -12 -86 -66q-49 -37 -94 -73l-22 -56q-28 -63 -63 -109
q-47 -63 -95 -75q-26 -6 -51 -6q-34 0 -52 23.5t-18 58.5q0 29 21 58q26 35 81 73q16 11 53 32t49.5 29.5t12.5 32.5q0 31 -14 31q-9 -4 -15 -5q-19 -5 -35 -5q-20 3 -28.5 9t-12.5 23q0 28 26.5 46t58.5 18l28 -2q19 0 56.5 40.5t37.5 72.5q0 19 -9.5 33t-28.5 14
q-12 0 -27 -7t-35 -24q-33 -27 -81 -74q-76 -73 -103 -92q-5 0 -8 9t-3 22q0 16 1.5 31.5t7.5 19.5zM137 -113q-37 -15 -78 -47q-47 -37 -47 -61q4 -19 19 -19q26 0 57.5 36.5t48.5 90.5zM243 539q3 -20 16.5 -27.5t39.5 -7.5q7 0 19.5 5t24.5 10q26 10 65 39q30 22 54 22
q12 -3 12 -17q0 -15 -7 -24q-41 -47 -93.5 -75.5t-97.5 -28.5q-41 0 -62.5 24.5t-21.5 79.5q0 10 9.5 21.5t20.5 11.5q15 0 21 -33z" />
    <glyph glyph-name="nonbreakingspace" unicode="&#xa0;" horiz-adv-x="240" 
 />
    <glyph glyph-name="exclamdown" unicode="&#xa1;" horiz-adv-x="223" 
d="M129 539q3 -20 16.5 -27.5t39.5 -7.5q7 0 19.5 5t24.5 10q26 10 65 39q30 22 54 22q12 -3 12 -17q0 -15 -7 -24q-41 -47 -93.5 -75.5t-97.5 -28.5q-41 0 -62.5 24.5t-21.5 79.5q0 10 9.5 21.5t20.5 11.5q15 0 21 -33z" />
    <glyph glyph-name="cent" unicode="&#xa2;" horiz-adv-x="223" 
d="M129 532q0 -23 22.5 -34.5t59.5 -11.5q17 0 31.5 5.5t24.5 14.5q20 22 40 45q16 16 41 16q9 -6 9 -18q0 -13 -8 -23q-38 -50 -71.5 -71t-78.5 -21q-123 0 -123 107q0 8 9.5 17.5t20.5 9.5q10 0 16.5 -8t6.5 -28z" />
    <glyph glyph-name="sterling" unicode="&#xa3;" horiz-adv-x="611" 
d="M325 246q22 0 56 -3t45 -3q21 0 28 3q7 -5 7 -14l-4 -23q-1 -6 -4.5 -11.5t-7.5 -10.5q-7 -11 -21 -11q-9 -2 -15 -3t-19 -1q-34 0 -94 9q-25 -52 -54 -88q13 -2 39 -5t43 -3q61 0 119 7.5t112 19.5q-6 -31 -11 -62q-9 -34 -26 -37q-72 -10 -182 -10q-71 0 -119.5 4.5
t-70.5 13.5q-58 -22 -103 -22q-44 0 -70 17t-26 44q0 30 30.5 43t77.5 13q26 0 43 -2t39 -6q27 24 63 90l-83 17l-17 6q-9 3 -13.5 3.5t-4.5 4.5l2 6q2 5 16 15t16 12q7 8 19.5 12t22.5 4q7 0 11.5 -1t10.5 -2l52 -9q14 33 29 73.5t20 56.5q45 140 106 215q72 89 168 89
q49 -4 72 -31.5t23 -73.5q0 -51 -29 -124q-25 -63 -72 -140q-4 -6 -24.5 -9.5t-35.5 -5.5t-30.5 -6t-24.5 -6q-8 3 -8 8q28 49 57 100q60 105 70 152l2 14q0 29 -28 29q-17 0 -39.5 -18.5t-42.5 -54.5q-30 -57 -66 -147z" />
    <glyph glyph-name="currency" unicode="&#xa4;" horiz-adv-x="443" 
d="M207 83q59 0 96 55q32 48 32 105q0 30 -12 46.5t-38 16.5q-59 0 -95 -57q-31 -49 -31 -107q0 -59 48 -59zM282 65q-19 -12 -39.5 -19.5t-42.5 -7.5q-35 0 -58 21l-23 -36q-10 -11 -23 -11q-14 0 -14 13q0 8 6.5 18.5t17.5 23.5t17 19q-11 24 -11 50q0 47 23.5 96t62.5 81
l-16 18q-12 14 -18.5 24.5t-6.5 18.5q0 13 14 13q13 0 23 -11l30 -46q16 9 35 14.5t38 5.5q30 0 51 -16q2 3 12.5 18.5t14.5 23.5q10 11 23 11q14 0 14 -13q0 -8 -5.5 -17t-10.5 -15q-14 -16 -27 -32q14 -26 14 -63q0 -42 -20.5 -87.5t-55.5 -75.5q26 -30 32.5 -40.5
t6.5 -18.5q0 -13 -14 -13q-13 0 -23 11q-3 6 -11 17.5t-16 24.5z" />
    <glyph glyph-name="yen" unicode="&#xa5;" horiz-adv-x="648" 
d="M452 13q-22 15 -22 48l2 20q0 67 -89 107q-73 33 -150 33q-34 -50 -64 -116q-21 -46 -33 -85q-1 -11 -17.5 -15.5t-43.5 -4.5q-12 1 -21.5 1.5t-15.5 0.5h-10q4 13 55 121q32 66 43 90l-70 -10q-8 0 -10 10q5 23 11 46q10 28 30 32q41 4 65 5.5t29 4.5q74 119 135 194
q78 95 155 146q88 58 176 58q39 0 56 -19t17 -53q0 -38 -20 -98q-14 -39 -27 -78l-80 -267q-7 -28 -14.5 -49.5t-7.5 -25.5q2 -8 6 -26t4 -26q0 -19 -10.5 -33.5t-36.5 -20.5q-43 -47 -57 -73t-14 -53q0 -36 47 -36q8 0 19.5 4t15 6.5t8.5 3.5q15 0 15 -18q0 -9 -7 -14.5
t-32 -14t-37 -8.5q-47 0 -74 21t-27 56q0 53 43 92q16 14 58 44zM463 201q18 81 52 193q21 68 42 137q6 20 11.5 39.5t5.5 29.5q0 13 -11 13q-5 0 -14.5 -4t-30.5 -15q-61 -35 -153 -142q-42 -48 -119 -149q52 -7 113.5 -31t103.5 -71z" />
    <glyph glyph-name="brokenbar" unicode="&#xa6;" horiz-adv-x="146" 
d="M25 -1l57 347l3 18h59l-58 -350l-2 -15h-59zM90 407l57 347l3 18h59l-57 -350l-3 -15h-59z" />
    <glyph glyph-name="section" unicode="&#xa7;" horiz-adv-x="557" 
d="M367 223q22 11 22 39q0 25 -16 56t-41 59q-29 32 -54 48t-51 16t-43 -15t-20 -41q0 -43 53 -102q30 -35 57 -53.5t54 -18.5q21 3 39 12zM512 572l-20 -6q-19 0 -39 26q-45 58 -82 58h-14q-28 0 -48.5 -14.5t-23.5 -39.5q0 -26 18 -56.5t47 -59.5q37 -41 74 -81
q49 -63 49 -118q0 -58 -36.5 -95.5t-94.5 -37.5l-14 2q14 -30 15 -33q11 -29 11 -54q0 -59 -54 -96q-48 -33 -111 -33q-64 0 -111 31q-51 34 -51 84q0 15 10 27t24 12l9 -2q7 -3 51 -49q30 -31 90 -31q19 0 38 18t19 44q0 27 -16 47q-67 69 -105 113q-71 81 -71 145
q8 56 38 90q34 39 89 39l27 2q-9 14 -16 30q-10 22 -15 50l-2 8q0 61 51 97q46 32 111 32q55 0 108 -31q62 -36 62 -88q0 -22 -17 -30z" />
    <glyph glyph-name="dieresis" unicode="&#xa8;" horiz-adv-x="223" 
d="M108 502q6 21 22 35t34 14q30 0 30 -46q-5 -18 -20.5 -32.5t-33.5 -14.5q-32 0 -32 44zM246 502q6 21 22 35t34 14q30 0 30 -46q-5 -18 -20.5 -32.5t-33.5 -14.5q-32 0 -32 44z" />
    <glyph glyph-name="copyright" unicode="&#xa9;" horiz-adv-x="801" 
d="M404 14q-122 0 -202 79t-80 197q0 30 6 60q25 139 139.5 236.5t253.5 97.5q122 0 202.5 -78.5t80.5 -197.5q0 -28 -6 -60q-25 -138 -140 -236t-254 -98zM415 53q122 0 219.5 87.5t119.5 210.5q4 26 4.5 36.5t0.5 16.5q0 102 -67.5 168.5t-175.5 66.5q-121 0 -220 -83
t-121 -205q-3 -13 -4 -27.5t-1 -30.5q0 -105 65.5 -172.5t179.5 -67.5zM508 258q7 0 25 -8.5t20 -16.5q-13 -41 -60 -70t-99 -29q-39 0 -68.5 15t-45 43t-15.5 61q0 37 13 74t39 76q41 62 94 104q65 51 125 51q41 0 64 -22t23 -65q-4 -50 -58 -103q-48 -47 -100 -65l-23 -5
q-8 0 -10 10l2 17q5 24 16 33q18 11 30 18q36 22 52 38q23 23 33 56l1 7q0 26 -37 26q-19 0 -49 -14q-49 -26 -93 -84q-33 -44 -52 -88q-9 -23 -12 -56q0 -29 13 -48t43 -23l19 -2q38 0 71 25q24 18 39 45z" />
    <glyph glyph-name="ordfeminine" unicode="&#xaa;" horiz-adv-x="557" 
d="M166 -5q-85 0 -137 25q-72 35 -72 113q6 57 74 90q60 29 137 29q36 0 62 -6q7 -1 10.5 -10t3.5 -23q0 -21 -5.5 -36.5t-15.5 -20.5l-90 4q-29 0 -53 -8.5t-27 -30.5q2 -12 13 -20.5t32 -8.5l97 -8q20 0 32.5 1t49.5 7q58 9 89.5 31.5t31.5 52.5q0 41 -50 70l-134 70
q-71 47 -71 123l3 38q18 102 119 165q91 57 202 57q60 0 93 -28q30 -25 30 -66q0 -76 -84 -131q-65 -42 -152 -58q-17 0 -20 33q0 21 6 40t14 21q42 11 86 33q56 29 56 53q0 5 -9.5 8t-23.5 3q-77 0 -145 -37q-82 -45 -82 -115q2 -19 12 -35.5t33 -30.5q35 -22 61 -36
l78 -40q35 -21 57.5 -54t22.5 -71q0 -96 -97 -150q-80 -44 -184 -44l-25 -49q39 0 63 -17t24 -52q0 -34 -32.5 -55t-73.5 -21q-45 0 -71 7.5t-41 19.5q-5 5 -5 12q0 9 7 16t16 7q6 -1 7 -2q13 -9 25.5 -14t37.5 -5q53 0 53 36q0 24 -18 35.5t-42 11.5q-20 0 -20 6l2 9
q9 11 14 18q13 17 26 38z" />
    <glyph glyph-name="guillemotleft" unicode="&#xab;" 
d="M201 332h88l-166 -154l102 -155h-75q-12 18 -49 70q-58 81 -62 91q0 4 92 86zM379 332h88l-166 -154l101 -155h-72q-26 36 -51 72q-60 83 -62 89q0 3 36 35q125 112 126 113z" />
    <glyph glyph-name="logicalnot" unicode="&#xac;" horiz-adv-x="600" 
d="M534 195l-445 1l20 59h498l-72 -253l-64 -14z" />
    <glyph glyph-name="minus" unicode="&#xad;" horiz-adv-x="332" 
d="M23 137l-5 9q8 27 16 55q9 18 25 20h191q16 0 16 -14q-2 -13 -6 -25t-14 -34q-5 -9 -6 -10t-2 -1h-215z" />
    <glyph glyph-name="registered" unicode="&#xae;" horiz-adv-x="801" 
d="M404 14q-122 0 -202 79t-80 197q0 30 6 60q25 139 139.5 236.5t253.5 97.5q122 0 202.5 -78.5t80.5 -197.5q0 -28 -6 -60q-25 -138 -140 -236t-254 -98zM415 53q122 0 219.5 87.5t119.5 210.5q4 26 4.5 36.5t0.5 16.5q0 102 -67.5 168.5t-175.5 66.5q-121 0 -220 -83
t-121 -205q-3 -13 -4 -27.5t-1 -30.5q0 -105 65.5 -172.5t179.5 -67.5zM339 314q20 59 41 118q25 67 56 114t84 47q44 0 67 -32q16 -22 16 -73q0 -55 -19 -99q-23 -52 -64 -68q-11 -4 -18 -7t-8 -9q2 -7 10 -16q20 -21 47 -56.5t33 -50.5l1 -5q0 -3 -4 -7t-19 -13.5
t-21 -9.5l-2 2q-27 39 -52.5 71.5t-49.5 57.5q-12 14 -12 30q0 24 30 40q48 25 67 49q25 33 25 94q0 19 -8.5 34t-23.5 15q-21 0 -42 -33q-25 -41 -45.5 -95t-28.5 -100q-23 -141 -66 -141l-7 1q-15 3 -15 25q0 18 13 62t15 55z" />
    <glyph glyph-name="macron" unicode="&#xaf;" horiz-adv-x="463" 
d="M166 314q29 33 98.5 88t102.5 92q20 21 28.5 38t8.5 32q0 20 -16.5 30t-41.5 10q-15 0 -22 -1q-8 -3 -11 -3q-56 -16 -103 -51q-40 -32 -79 -63q-2 3 -2 4q-3 7 -4 10q0 24 14 71t19 52q39 35 91.5 54.5t102.5 19.5q67 0 105 -32q43 -36 43 -106q0 -72 -69 -144
q-83 -62 -165 -124q64 -13 85 -35q32 -34 32 -99l-2 -32q0 -114 -91 -225q-75 -92 -159 -127q-35 -19 -86 -19q-54 0 -88 25q-39 29 -39 82q7 78 58 143q27 35 88 84q13 10 28 15.5t27 5.5q37 0 37 -33q0 -13 -8 -21q-2 -3 -85 -86q-36 -36 -43 -73q-2 -6 -2 -12v-9
q0 -33 31 -33q27 0 64 22t59 50q48 60 74 110q35 67 35 126q0 42 -30 59q-10 6 -67 20q-12 2 -21 17t-11 33q3 23 14 35zM382 749q-21 0 -32 13t-13 32q11 33 20 45q16 21 46 21q20 0 31.5 -14t11.5 -36q0 -26 -17.5 -43.5t-46.5 -17.5z" />
    <glyph glyph-name="degree" unicode="&#xb0;" horiz-adv-x="225" 
d="M183 461q26 0 40 18.5t14 41.5q0 24 -21 24q-25 0 -40 -21q-11 -16 -15 -42q0 -21 22 -21zM175 432q-21 0 -32.5 12.5t-11.5 31.5q0 36 24 65q28 33 70 33q21 0 32.5 -12.5t11.5 -34.5q0 -34 -26.5 -64.5t-67.5 -30.5z" />
    <glyph glyph-name="plusminus" unicode="&#xb1;" horiz-adv-x="600" 
d="M52 -1q9 23 19 45.5t22 22.5h465q-18 -51 -23.5 -59.5t-21.5 -8.5h-461zM315 263h-209q9 21 18 41.5t21 20.5h180l29 158q65 -11 65 -29l-23 -129h214q-17 -48 -21.5 -55t-21.5 -7h-181l-32 -173q-20 4 -42.5 9.5t-22.5 23.5z" />
    <glyph glyph-name="twosuperior" unicode="&#xb2;" horiz-adv-x="223" 
d="M-15 0h50q-44 -43 -59 -69t-15 -54q0 -36 47 -36q8 0 19.5 4t15 6.5t8.5 3.5q15 0 15 -18q0 -9 -7 -14.5t-32 -14t-37 -8.5q-47 0 -74 21t-27 56q0 46 29 77q20 22 67 46z" />
    <glyph glyph-name="threesuperior" unicode="&#xb3;" horiz-adv-x="260" 
d="M322 692q0 -45 -17.5 -109.5t-40.5 -113.5q-27 -60 -54 -121.5t-48 -120.5q-26 -70 -39 -125q0 -7 10 -10l12 4q25 15 65 47q27 22 42 33q12 0 12 -37q0 -52 -61 -90q-34 -22 -107 -47q-15 -6 -32 -6q-19 0 -31.5 12t-14.5 29l2 10q2 16 8.5 37t14.5 43l-2 4
q-29 -23 -57 -45q-3 0 -5 9.5t-2 21.5q0 45 53 93q37 34 48 50q14 10 22 21q29 92 70 205q30 83 75 202l-77 -7l-22 -2q-9 0 -15 3t-14 14q0 6 -4 14l-4 16q0 9 5 11.5t6.5 3.5t2.5 2q155 18 231 18q58 0 78 -9q14 0 20 -13q10 -20 10 -23l2 -21q0 -11 -9 -15
q-28 12 -133 12z" />
    <glyph glyph-name="acute" unicode="&#xb4;" horiz-adv-x="223" 
d="M127 443q22 22 50.5 57t47.5 63q8 14 43 14q13 0 22.5 -4.5t9.5 -13.5q-41 -36 -71 -66q-19 -19 -55 -58q-24 0 -35.5 1.5t-11.5 6.5z" />
    <glyph glyph-name="mu" unicode="&#xb5;" 
d="M72 2q-10 -24 -36 -131q-15 -61 -34 -131q-3 -14 -14.5 -24.5t-26.5 -10.5q-20 0 -31.5 14.5t-11.5 32.5v8q14 96 46 192q42 110 61 165l-37 -31l-6 -4q-5 2 -5 20v29q0 21 2 26.5t11 14.5q54 46 85 79q46 50 56 83q6 16 14 16h72q10 0 10 -8l-2 -12l-106 -217l-2 -4
l4 -4q75 37 175 140q46 48 93 97q8 8 15 8h59q12 0 12 -12v-4l-110 -232l-2 -4q6 -5 10 -6q1 1 6 2q28 12 56 31.5t55 44.5q1 1 6 2l4 -2q6 -9 6 -35q0 -21 -5 -31.5t-28 -31.5q-35 -25 -80 -48q-59 -30 -88 -30t-41 10.5t-12 28.5q0 17 12 48.5t25 63.5q-59 -51 -119 -90.5
t-98 -52.5z" />
    <glyph glyph-name="paragraph" unicode="&#xb6;" horiz-adv-x="600" 
d="M448 721q97 27 163 27q61 0 89.5 -21.5t28.5 -61.5q-8 -73 -43 -194q-28 -97 -49 -148q-55 -132 -91 -207q-54 -112 -99 -174q-53 -73 -94 -73q-40 0 -61 3t-30 10q4 13 9.5 22.5t15.5 16.5q11 -7 25 -7q11 0 20 3.5t20 14.5q43 72 88 160q36 69 68 137q20 42 40 85
q28 73 50 146q27 91 43 179l2 30q0 17 -10 25t-44 8q-46 0 -76.5 -2t-56.5 -13q0 -54 -15 -123q-18 -85 -59 -188q-36 -91 -78 -185q-49 -111 -109 -233q-8 -9 -19.5 -26t-16.5 -22q-15 -15 -26 -20.5t-20 -5.5l-13 2q-7 0 -7 8q0 10 18 52q36 82 65 145q52 112 92 188
q44 105 69 180q33 98 43 173l2 24q0 54 -39 54q-32 0 -79 -64q-29 -40 -57 -79q-21 -40 -41 -81t-20 -62q0 -19 16 -29.5t54 -10.5q35 0 35 -7l-4 -9q-15 -21 -59 -21q-63 0 -91 23.5t-28 64.5q0 40 25 96q20 44 52 93q38 57 93 91t121 34q20 0 48 -11q14 -5 40 -17z" />
    <glyph glyph-name="glyph125" unicode="&#xb7;" horiz-adv-x="223" 
d="M78 135q-20 0 -23 27l2 14q5 16 19.5 27.5t28.5 11.5q24 0 24 -26q0 -21 -15.5 -37.5t-35.5 -16.5z" />
    <glyph glyph-name="cedilla" unicode="&#xb8;" horiz-adv-x="223" 
d="M11 -55q39 0 63 -17t24 -52q0 -34 -32.5 -55t-73.5 -21q-45 0 -71 7.5t-41 19.5q-5 5 -5 12q0 9 7 16t16 7q6 -1 7 -2q13 -9 25.5 -14t37.5 -5q53 0 53 36q0 24 -18 35.5t-42 11.5q-20 0 -20 6l2 9q6 7 9 12q21 29 34 49h53z" />
    <glyph glyph-name="onesuperior" unicode="&#xb9;" horiz-adv-x="426" 
d="M219 -2q-18 7 -22 37l2 10q-30 -29 -37 -33q-29 -18 -74 -18q-54 0 -80 42q-22 35 -22 91q0 101 89 167.5t204 66.5q31 0 51.5 -1.5t23.5 -5t4.5 -20t2.5 -25.5v-22q0 -10 -6 -10q-15 7 -34.5 12.5t-37.5 5.5q-54 0 -116 -37q-70 -42 -81 -94l-8 -51q0 -18 7 -26.5
t19 -10.5q50 5 97 64q20 24 65 102q5 -2 18.5 -4t16.5 -2h51q-32 -67 -43 -92q-20 -43 -20 -56q14 0 50.5 24t74.5 58q1 1 6 2q10 0 10 -35q0 -33 -23 -57q-3 -3 -93 -60q-14 -8 -23 -12t-24 -8q-39 -42 -54 -69.5t-15 -53.5q0 -36 47 -36q8 0 19.5 4t15 6.5t8.5 3.5
q15 0 15 -18q0 -9 -7 -14.5t-32 -14t-37 -8.5q-47 0 -74 21t-27 56q0 45 28 76q20 22 65 45z" />
    <glyph glyph-name="ordmasculine" unicode="&#xba;" horiz-adv-x="332" 
d="M76 -4q-32 0 -51 12q-23 15 -23 45q3 19 21 19q13 0 28 -3t29 -6q38 9 55 62q13 40 13 90q0 12 -0.5 14t-2.5 3q-5 0 -92 -87q-46 -46 -69 -63q-5 0 -5 35l1 47q2 5 27 25l20 16q45 43 83 88.5t50 67.5q0 37 14 68q19 42 53 42q22 0 32 -19q7 -14 7 -38q0 -20 -10 -33
q-13 -18 -14 -20v-97q0 -60 -4 -87q-7 -49 -29 -81q13 0 52 27q23 16 52 39q8 10 15 10q12 0 12 -16v-19q0 -38 -40 -73q-32 -28 -75 -43q-21 -7 -42 -11.5t-35 -5.5l-38 -59q39 0 63 -17t24 -52q0 -34 -32.5 -55t-73.5 -21q-45 0 -71 7.5t-41 19.5q-5 5 -5 12q0 9 7 16
t16 7q6 -1 7 -2q13 -9 25.5 -14t37.5 -5q53 0 53 36q0 24 -18 35.5t-42 11.5q-20 0 -20 6l2 9q8 10 12 17q14 21 22 40z" />
    <glyph glyph-name="guillemotright" unicode="&#xbb;" 
d="M88 332h74l108 -152q3 -4 3 -8l-3 -6l-159 -143h-88l166 155zM266 334h74l107 -152q4 -4 4 -8l-4 -8l-158 -143h-88l166 157z" />
    <glyph glyph-name="onequarter" unicode="&#xbc;" horiz-adv-x="611" 
d="M137 105q28 24 65 94q43 81 79 194q45 140 106 215q72 89 168 89q49 -4 72 -31.5t23 -73.5q0 -51 -29 -124q-25 -63 -72 -140q-4 -6 -24.5 -9.5t-35.5 -5.5t-30.5 -6t-24.5 -6q-8 3 -8 8q28 49 57 100q60 105 70 152l2 14q0 29 -28 29q-17 0 -39.5 -18.5t-42.5 -54.5
q-34 -65 -75 -169q-48 -124 -61 -153q-35 -80 -67 -119q13 -2 39 -5t43 -3q61 0 119 7.5t112 19.5q-6 -31 -11 -62q-9 -34 -26 -37q-72 -10 -182 -10q-71 0 -119.5 4.5t-70.5 13.5q-58 -22 -103 -22q-44 0 -70 17t-26 44q0 30 30.5 43t77.5 13q26 0 43 -2t39 -6zM543 833
q3 -20 16.5 -27.5t39.5 -7.5q7 0 19.5 5t24.5 10q26 10 65 39q30 22 54 22q12 -3 12 -17q0 -15 -7 -24q-41 -47 -93.5 -75.5t-97.5 -28.5q-41 0 -62.5 24.5t-21.5 79.5q0 10 9.5 21.5t20.5 11.5q15 0 21 -33z" />
    <glyph glyph-name="onehalf" unicode="&#xbd;" horiz-adv-x="223" 
d="M88 443q22 22 50.5 57t47.5 63q8 14 43 14q13 0 22.5 -4.5t9.5 -13.5q-41 -36 -71 -66q-19 -19 -55 -58q-24 0 -35.5 1.5t-11.5 6.5zM254 442q22 22 50.5 57t47.5 63q8 14 43 14q13 0 22.5 -4.5t9.5 -13.5q-41 -36 -71 -66q-19 -19 -55 -58q-24 0 -35.5 1.5t-11.5 6.5z
" />
    <glyph glyph-name="threequarters" unicode="&#xbe;" horiz-adv-x="260" 
d="M100 281q27 82 52 155q33 96 94 255q11 34 43 34q30 0 33 -30q0 -45 -17.5 -111t-40.5 -115q-27 -60 -54 -121.5t-48 -120.5q-26 -70 -39 -125q0 -7 10 -10l12 4q25 15 65 47q27 22 42 33q12 0 12 -37q0 -52 -61 -90q-34 -22 -107 -47q-15 -6 -32 -6q-19 0 -31.5 12
t-14.5 29l2 10q2 16 8.5 37t14.5 43l-2 4q-29 -23 -57 -45q-3 0 -5 9.5t-2 21.5q0 45 53 93q37 34 48 50q14 10 22 21zM434 717q2 -3 4.5 -8t2.5 -9l-3 -9q-11 -15 -42 -64q-25 -40 -29 -40l-25 7q-4 1 -4 10q0 18 14 61q4 14 15 41q5 7 6 9q5 7 18 9q14 0 24.5 -2t18.5 -5z
" />
    <glyph glyph-name="questiondown" unicode="&#xbf;" horiz-adv-x="443" 
d="M-16 166q18 14 91 88q99 100 181 100q46 0 75.5 -30.5t29.5 -77.5q0 -38 -23 -74q-7 -11 -90 -94q2 -12 10 -29q5 -11 8 -14q5 0 65 48.5t107 90.5q3 -3 5 -8t4 -14l2 -27q0 -16 -5 -25.5t-12 -15.5q-15 -12 -86 -66q-49 -37 -94 -73l-22 -56q-28 -63 -63 -109
q-47 -63 -95 -75q-26 -6 -51 -6q-34 0 -52 23.5t-18 58.5q0 29 21 58q26 35 81 73q16 11 53 32t49.5 29.5t12.5 32.5q0 31 -14 31q-9 -4 -15 -5q-19 -5 -35 -5q-20 3 -28.5 9t-12.5 23q0 28 26.5 46t58.5 18l28 -2q19 0 56.5 40.5t37.5 72.5q0 19 -9.5 33t-28.5 14
q-12 0 -27 -7t-35 -24q-33 -27 -81 -74q-76 -73 -103 -92q-5 0 -8 9t-3 22q0 16 1.5 31.5t7.5 19.5zM137 -113q-37 -15 -78 -47q-47 -37 -47 -61q4 -19 19 -19q26 0 57.5 36.5t48.5 90.5zM269 414q-21 0 -32 13t-13 32q11 33 20 45q16 21 46 21q20 0 31.5 -14t11.5 -36
q0 -26 -17.5 -43.5t-46.5 -17.5z" />
    <glyph glyph-name="Agrave" unicode="&#xc0;" horiz-adv-x="463" 
d="M20 232q34 98 68 197q41 111 94 190q24 37 62 57.5t78 20.5q73 0 112 -52q27 -38 27 -122q0 -90 -33 -165q-38 -88 -106 -114q-19 -8 -27 -11q-15 -7 -16 -16q3 -13 16 -26q33 -33 78.5 -93t54.5 -86l2 -8q0 -5 -8 -12t-27 -19q-26 -18 -38 -18l-3 2q-45 65 -91 123
q-35 43 -79 92q-17 20 -20 51q2 19 13 36t36 30q81 41 111 81q43 56 43 157q0 32 -14.5 57t-39.5 25q-17 0 -34.5 -13t-34.5 -41q-40 -66 -75.5 -159t-47.5 -166q-18 -114 -47.5 -175t-63.5 -61l-12 2q-25 6 -25 41q0 26 17 85q25 88 30 110zM316 737q22 22 50.5 57t47.5 63
q8 14 43 14q13 0 22.5 -4.5t9.5 -13.5q-41 -36 -71 -66q-19 -19 -55 -58q-24 0 -35.5 1.5t-11.5 6.5z" />
    <glyph glyph-name="Aacute" unicode="&#xc1;" horiz-adv-x="648" 
d="M141 301q74 119 135 194q78 95 155 146q88 58 176 58q39 0 56 -19t17 -53q0 -38 -20 -98q-14 -39 -27 -78l-80 -267q-7 -28 -14.5 -49.5t-7.5 -25.5q2 -8 6 -26t4 -26q0 -21 -10 -34q-13 -17 -45 -21q-24 0 -40 14.5t-16 44.5l2 20q0 67 -89 107q-73 33 -150 33
q-34 -50 -64 -116q-21 -46 -33 -85q-1 -11 -17.5 -15.5t-43.5 -4.5q-12 1 -21.5 1.5t-15.5 0.5h-10q4 13 55 121q32 66 43 90l-70 -10q-8 0 -10 10q5 23 11 46q10 28 30 32q41 4 65 5.5t29 4.5zM463 201q18 81 52 193q21 68 42 137q6 20 11.5 39.5t5.5 29.5q0 13 -11 13
q-5 0 -14.5 -4t-30.5 -15q-61 -35 -153 -142q-42 -48 -119 -149q52 -7 113.5 -31t103.5 -71zM595 737q22 22 50.5 57t47.5 63q8 14 43 14q13 0 22.5 -4.5t9.5 -13.5q-41 -36 -71 -66q-19 -19 -55 -58q-24 0 -35.5 1.5t-11.5 6.5z" />
    <glyph glyph-name="Acircumflex" unicode="&#xc2;" horiz-adv-x="648" 
d="M141 301q74 119 135 194q78 95 155 146q88 58 176 58q39 0 56 -19t17 -53q0 -38 -20 -98q-14 -39 -27 -78l-80 -267q-7 -28 -14.5 -49.5t-7.5 -25.5q2 -8 6 -26t4 -26q0 -21 -10 -34q-13 -17 -45 -21q-24 0 -40 14.5t-16 44.5l2 20q0 67 -89 107q-73 33 -150 33
q-34 -50 -64 -116q-21 -46 -33 -85q-1 -11 -17.5 -15.5t-43.5 -4.5q-12 1 -21.5 1.5t-15.5 0.5h-10q4 13 55 121q32 66 43 90l-70 -10q-8 0 -10 10q5 23 11 46q10 28 30 32q41 4 65 5.5t29 4.5zM463 201q18 81 52 193q21 68 42 137q6 20 11.5 39.5t5.5 29.5q0 13 -11 13
q-5 0 -14.5 -4t-30.5 -15q-61 -35 -153 -142q-42 -48 -119 -149q52 -7 113.5 -31t103.5 -71zM699 754q-3 20 -16.5 27.5t-39.5 7.5q-7 0 -19.5 -5t-24.5 -10q-26 -10 -65 -39q-30 -22 -54 -22q-12 3 -12 17q0 15 7 24q41 47 93.5 75.5t97.5 28.5q41 0 62.5 -24.5t21.5 -79.5
q0 -10 -9.5 -21.5t-20.5 -11.5q-15 0 -21 33z" />
    <glyph glyph-name="Atilde" unicode="&#xc3;" horiz-adv-x="648" 
d="M141 301q74 119 135 194q78 95 155 146q88 58 176 58q39 0 56 -19t17 -53q0 -38 -20 -98q-14 -39 -27 -78l-80 -267q-7 -28 -14.5 -49.5t-7.5 -25.5q2 -8 6 -26t4 -26q0 -21 -10 -34q-13 -17 -45 -21q-24 0 -40 14.5t-16 44.5l2 20q0 67 -89 107q-73 33 -150 33
q-34 -50 -64 -116q-21 -46 -33 -85q-1 -11 -17.5 -15.5t-43.5 -4.5q-12 1 -21.5 1.5t-15.5 0.5h-10q4 13 55 121q32 66 43 90l-70 -10q-8 0 -10 10q5 23 11 46q10 28 30 32q41 4 65 5.5t29 4.5zM463 201q18 81 52 193q21 68 42 137q6 20 11.5 39.5t5.5 29.5q0 13 -11 13
q-5 0 -14.5 -4t-30.5 -15q-61 -35 -153 -142q-42 -48 -119 -149q52 -7 113.5 -31t103.5 -71zM579 826q0 -23 22.5 -34.5t59.5 -11.5q17 0 31.5 5.5t24.5 14.5q20 22 40 45q16 16 41 16q9 -6 9 -18q0 -13 -8 -23q-38 -50 -71.5 -71t-78.5 -21q-123 0 -123 107q0 8 9.5 17.5
t20.5 9.5q10 0 16.5 -8t6.5 -28z" />
    <glyph glyph-name="Adieresis" unicode="&#xc4;" horiz-adv-x="648" 
d="M141 301q74 119 135 194q78 95 155 146q88 58 176 58q39 0 56 -19t17 -53q0 -38 -20 -98q-14 -39 -27 -78l-80 -267q-7 -28 -14.5 -49.5t-7.5 -25.5q2 -8 6 -26t4 -26q0 -21 -10 -34q-13 -17 -45 -21q-24 0 -40 14.5t-16 44.5l2 20q0 67 -89 107q-73 33 -150 33
q-34 -50 -64 -116q-21 -46 -33 -85q-1 -11 -17.5 -15.5t-43.5 -4.5q-12 1 -21.5 1.5t-15.5 0.5h-10q4 13 55 121q32 66 43 90l-70 -10q-8 0 -10 10q5 23 11 46q10 28 30 32q41 4 65 5.5t29 4.5zM463 201q18 81 52 193q21 68 42 137q6 20 11.5 39.5t5.5 29.5q0 13 -11 13
q-5 0 -14.5 -4t-30.5 -15q-61 -35 -153 -142q-42 -48 -119 -149q52 -7 113.5 -31t103.5 -71zM534 799q6 21 22 35t34 14q30 0 30 -46q-5 -18 -20.5 -32.5t-33.5 -14.5q-32 0 -32 44zM672 799q6 21 22 35t34 14q30 0 30 -46q-5 -18 -20.5 -32.5t-33.5 -14.5q-32 0 -32 44z
" />
    <glyph glyph-name="Aring" unicode="&#xc5;" horiz-adv-x="611" 
d="M137 105q28 24 65 94q43 81 79 194q45 140 106 215q72 89 168 89q49 -4 72 -31.5t23 -73.5q0 -51 -29 -124q-25 -63 -72 -140q-4 -6 -24.5 -9.5t-35.5 -5.5t-30.5 -6t-24.5 -6q-8 3 -8 8q28 49 57 100q60 105 70 152l2 14q0 29 -28 29q-17 0 -39.5 -18.5t-42.5 -54.5
q-34 -65 -75 -169q-48 -124 -61 -153q-35 -80 -67 -119q13 -2 39 -5t43 -3q61 0 119 7.5t112 19.5q-6 -31 -11 -62q-9 -34 -26 -37q-72 -10 -182 -10q-71 0 -119.5 4.5t-70.5 13.5q-58 -22 -103 -22q-44 0 -70 17t-26 44q0 30 30.5 43t77.5 13q26 0 43 -2t39 -6zM520 737
q22 22 50.5 57t47.5 63q8 14 43 14q13 0 22.5 -4.5t9.5 -13.5q-41 -36 -71 -66q-19 -19 -55 -58q-24 0 -35.5 1.5t-11.5 6.5z" />
    <glyph glyph-name="AE" unicode="&#xc6;" horiz-adv-x="557" 
d="M410 199q12 0 41.5 -14t32.5 -27q-22 -70 -99 -118t-166 -48q-63 0 -113.5 26.5t-76 71.5t-25.5 101q0 59 24.5 125t63.5 125q68 103 157 173q108 85 208 85q69 0 107 -37t38 -107q-7 -83 -97 -172q-81 -80 -167 -108l-39 -9q-13 0 -16 17q2 12 3 17.5t1 10.5q8 38 27 55
q29 18 49 30q60 37 87 64q39 39 54 93l2 12q0 42 -61 42q-18 0 -37 -5t-45 -18q-81 -43 -155 -140q-55 -72 -87 -147q-8 -21 -13.5 -45.5t-5.5 -46.5q0 -46 22.5 -79t70.5 -40l32 -3q62 0 117 42q42 32 66 74zM430 737q22 22 50.5 57t47.5 63q8 14 43 14q13 0 22.5 -4.5
t9.5 -13.5q-41 -36 -71 -66q-19 -19 -55 -58q-24 0 -35.5 1.5t-11.5 6.5z" />
    <glyph glyph-name="Ccedilla" unicode="&#xc7;" horiz-adv-x="557" 
d="M173 -4q-36 6 -66 22q-52 27 -77.5 72t-25.5 101q0 59 24.5 125t63.5 125q68 103 157 173q108 85 208 85q69 0 107 -37t38 -107q-7 -83 -97 -172q-81 -80 -167 -108l-39 -9q-13 0 -16 17q2 12 3 17.5t1 10.5q8 38 27 55q29 18 49 30q60 37 87 64q39 39 54 93l2 12
q0 42 -61 42q-18 0 -37 -5t-45 -18q-81 -43 -155 -140q-55 -72 -87 -147q-8 -21 -13.5 -45.5t-5.5 -46.5q0 -46 22.5 -79t70.5 -40l32 -3q62 0 117 42q42 32 66 74q12 0 41.5 -14t32.5 -27q-22 -70 -97 -118t-163 -48l-24 -47q39 0 63 -17t24 -52q0 -34 -32.5 -55t-73.5 -21
q-45 0 -71 7.5t-41 19.5q-5 5 -5 12q0 9 7 16t16 7q6 -1 7 -2q13 -9 25.5 -14t37.5 -5q53 0 53 36q0 24 -18 35.5t-42 11.5q-20 0 -20 6l2 9q9 12 14 19q21 29 27 38z" />
    <glyph glyph-name="Egrave" unicode="&#xc8;" horiz-adv-x="557" 
d="M410 199q12 0 41.5 -14t32.5 -27q-22 -70 -99 -118t-166 -48q-63 0 -113.5 26.5t-76 71.5t-25.5 101q0 59 24.5 125t63.5 125q68 103 157 173q108 85 208 85q69 0 107 -37t38 -107q-7 -83 -97 -172q-81 -80 -167 -108l-39 -9q-13 0 -16 17q2 12 3 17.5t1 10.5q8 38 27 55
q29 18 49 30q60 37 87 64q39 39 54 93l2 12q0 42 -61 42q-18 0 -37 -5t-45 -18q-81 -43 -155 -140q-55 -72 -87 -147q-8 -21 -13.5 -45.5t-5.5 -46.5q0 -46 22.5 -79t70.5 -40l32 -3q62 0 117 42q42 32 66 74zM456 833q3 -20 16.5 -27.5t39.5 -7.5q7 0 19.5 5t24.5 10
q26 10 65 39q30 22 54 22q12 -3 12 -17q0 -15 -7 -24q-41 -47 -93.5 -75.5t-97.5 -28.5q-41 0 -62.5 24.5t-21.5 79.5q0 10 9.5 21.5t20.5 11.5q15 0 21 -33z" />
    <glyph glyph-name="Eacute" unicode="&#xc9;" horiz-adv-x="520" 
d="M113 313q-16 24 -23.5 46t-7.5 47q0 117 98 205t218 88q65 0 93 -21q23 -18 23 -51q0 -39 -28 -82q-13 -20 -54 -68q-2 -3 -31 -48q-20 -32 -36 -40q-20 6 -40 22q-24 19 -28 38q6 12 8 15.5t77 92.5q28 33 28 45q-5 3 -8 4q-12 5 -23 5q-23 0 -49.5 -10.5t-52.5 -34.5
q-43 -34 -66.5 -75t-30.5 -95q0 -33 21 -65q2 -3 28 -36l3 -10q0 -16 -83 -68t-83 -92q11 -45 61 -45q56 0 120 35q72 40 120 110q2 4 16 4h49q21 0 26 -4t5 -10q-33 -83 -117 -147q-98 -74 -211 -74l-24 -1q-69 0 -107 33q-26 23 -33 56l-2 27q0 68 45 118q49 40 99 80v6z
M376 737q22 22 50.5 57t47.5 63q8 14 43 14q13 0 22.5 -4.5t9.5 -13.5q-41 -36 -71 -66q-19 -19 -55 -58q-24 0 -35.5 1.5t-11.5 6.5z" />
    <glyph glyph-name="Ecircumflex" unicode="&#xca;" horiz-adv-x="519" 
d="M89 -6q-57 5 -89 37q-23 22 -29 51l-2 27q0 68 45 118q49 40 99 80v6q-16 24 -23.5 46t-7.5 47q0 117 98 205t218 88q65 0 93 -21q23 -18 23 -51q0 -39 -28 -82q-13 -20 -54 -68q-2 -3 -31 -48q-20 -32 -36 -40q-20 6 -40 22q-24 19 -28 38q6 12 8 15.5t77 92.5
q28 33 28 45q-5 3 -8 4q-12 5 -23 5q-23 0 -49.5 -10.5t-52.5 -34.5q-43 -34 -66.5 -75t-30.5 -95q0 -33 21 -65q2 -3 28 -36l3 -10q0 -16 -83 -68t-83 -92q11 -45 61 -45q56 0 120 35q72 40 120 110q2 4 16 4h49q21 0 26 -4t5 -10q-33 -83 -113 -146q-94 -74 -205 -74
q-40 -40 -54 -65t-14 -52q0 -36 47 -36q8 0 19.5 4t15 6.5t8.5 3.5q15 0 15 -18q0 -9 -7 -14.5t-32 -14t-37 -8.5q-47 0 -74 21t-27 56q0 42 25 72q19 23 59 44z" />
    <glyph glyph-name="Edieresis" unicode="&#xcb;" horiz-adv-x="520" 
d="M113 313q-16 24 -23.5 46t-7.5 47q0 117 98 205t218 88q65 0 93 -21q23 -18 23 -51q0 -39 -28 -82q-13 -20 -54 -68q-2 -3 -31 -48q-20 -32 -36 -40q-20 6 -40 22q-24 19 -28 38q6 12 8 15.5t77 92.5q28 33 28 45q-5 3 -8 4q-12 5 -23 5q-23 0 -49.5 -10.5t-52.5 -34.5
q-43 -34 -66.5 -75t-30.5 -95q0 -33 21 -65q2 -3 28 -36l3 -10q0 -16 -83 -68t-83 -92q11 -45 61 -45q56 0 120 35q72 40 120 110q2 4 16 4h49q21 0 26 -4t5 -10q-33 -83 -117 -147q-98 -74 -211 -74l-24 -1q-69 0 -107 33q-26 23 -33 56l-2 27q0 68 45 118q49 40 99 80v6z
M345 799q6 21 22 35t34 14q30 0 30 -46q-5 -18 -20.5 -32.5t-33.5 -14.5q-32 0 -32 44zM483 799q6 21 22 35t34 14q30 0 30 -46q-5 -18 -20.5 -32.5t-33.5 -14.5q-32 0 -32 44z" />
    <glyph glyph-name="Igrave" unicode="&#xcc;" horiz-adv-x="520" 
d="M113 313q-16 24 -23.5 46t-7.5 47q0 117 98 205t218 88q65 0 93 -21q23 -18 23 -51q0 -39 -28 -82q-13 -20 -54 -68q-2 -3 -31 -48q-20 -32 -36 -40q-20 6 -40 22q-24 19 -28 38q6 12 8 15.5t77 92.5q28 33 28 45q-5 3 -8 4q-12 5 -23 5q-23 0 -49.5 -10.5t-52.5 -34.5
q-43 -34 -66.5 -75t-30.5 -95q0 -33 21 -65q2 -3 28 -36l3 -10q0 -16 -83 -68t-83 -92q11 -45 61 -45q56 0 120 35q72 40 120 110q2 4 16 4h49q21 0 26 -4t5 -10q-33 -83 -117 -147q-98 -74 -211 -74l-24 -1q-69 0 -107 33q-26 23 -33 56l-2 27q0 68 45 118q49 40 99 80v6z
M366 833q3 -20 16.5 -27.5t39.5 -7.5q7 0 19.5 5t24.5 10q26 10 65 39q30 22 54 22q12 -3 12 -17q0 -15 -7 -24q-41 -47 -93.5 -75.5t-97.5 -28.5q-41 0 -62.5 24.5t-21.5 79.5q0 10 9.5 21.5t20.5 11.5q15 0 21 -33z" />
    <glyph glyph-name="Iacute" unicode="&#xcd;" horiz-adv-x="443" 
d="M287 309q42 97 60 148t32 106l4 35q0 21 -16 21q-12 0 -31 -16t-29 -33q-29 -40 -50 -99q-14 -40 -25 -86q-7 -6 -49 -28.5t-54 -22.5q-5 2 -8 21q0 91 77 217q92 151 202 151q44 -4 63 -33.5t19 -78.5q0 -75 -44 -196q-2 -4 -57 -138q-75 -154 -174 -229
q-77 -58 -152 -58q-33 0 -54 11.5t-21 27.5q9 19 23 40q21 31 34 31q9 -2 17 -4t20 -4q66 0 132 82q43 53 81 135zM358 737q22 22 50.5 57t47.5 63q8 14 43 14q13 0 22.5 -4.5t9.5 -13.5q-41 -36 -71 -66q-19 -19 -55 -58q-24 0 -35.5 1.5t-11.5 6.5z" />
    <glyph glyph-name="Icircumflex" unicode="&#xce;" horiz-adv-x="443" 
d="M287 309q42 97 60 148t32 106l4 35q0 21 -16 21q-12 0 -31 -16t-29 -33q-29 -40 -50 -99q-14 -40 -25 -86q-7 -6 -49 -28.5t-54 -22.5q-5 2 -8 21q0 91 77 217q92 151 202 151q44 -4 63 -33.5t19 -78.5q0 -75 -44 -196q-2 -4 -57 -138q-75 -154 -174 -229
q-77 -58 -152 -58q-33 0 -54 11.5t-21 27.5q9 19 23 40q21 31 34 31q9 -2 17 -4t20 -4q66 0 132 82q43 53 81 135zM480 754q-3 20 -16.5 27.5t-39.5 7.5q-7 0 -19.5 -5t-24.5 -10q-26 -10 -65 -39q-30 -22 -54 -22q-12 3 -12 17q0 15 7 24q41 47 93.5 75.5t97.5 28.5
q41 0 62.5 -24.5t21.5 -79.5q0 -10 -9.5 -21.5t-20.5 -11.5q-15 0 -21 33z" />
    <glyph glyph-name="Idieresis" unicode="&#xcf;" horiz-adv-x="797" 
d="M469 488q-25 24 -45 39q-62 47 -141 78q-18 6 -33 6q-20 0 -23 -23q11 -44 52 -84q53 -44 78 -66v-8q0 -17 -10 -37t-29 -28q-19 0 -83 58q-69 62 -87 106q-16 43 -19 76q0 50 39 75q30 19 74 19q90 0 193 -65q34 -21 86 -66q3 4 22 29q13 18 16 18q15 -6 33 -19t33 -32
q-1 -7 -19 -35q-9 -14 -10 -21l2 -4l92 -118q39 -63 44 -115l3 -48q0 -70 -27 -118q-33 -58 -108 -89q-45 -16 -131 -16q-82 0 -171 9q-16 1 -40 5q-38 -7 -69 -10.5t-56 -3.5q-52 0 -79 8q-48 14 -52 51q0 34 34 49q26 11 66 11q35 0 74 -5t84 -10q16 2 17 3q37 28 110 173
t80 208zM545 414q-43 -117 -82 -194t-82 -128l74 -6q73 0 124 28q64 35 64 103q0 57 -40 124q-30 50 -58 73zM453 833q3 -20 16.5 -27.5t39.5 -7.5q7 0 19.5 5t24.5 10q26 10 65 39q30 22 54 22q12 -3 12 -17q0 -15 -7 -24q-41 -47 -93.5 -75.5t-97.5 -28.5
q-41 0 -62.5 24.5t-21.5 79.5q0 10 9.5 21.5t20.5 11.5q15 0 21 -33z" />
    <glyph glyph-name="glyph150" unicode="&#xd0;" horiz-adv-x="797" 
d="M271 258h106q36 69 62.5 133t29.5 97q-25 24 -45 39q-62 47 -141 78q-18 6 -33 6q-20 0 -23 -23q11 -44 52 -84q53 -44 78 -66v-8q0 -17 -10 -37t-29 -28q-19 0 -83 58q-69 62 -87 106q-16 43 -19 76q0 50 39 75q30 19 74 19q90 0 193 -65q34 -21 86 -66q3 4 22 29
q13 18 16 18q15 -6 33 -19t33 -32q-1 -7 -19 -35q-9 -14 -10 -21l2 -4l92 -118q39 -63 44 -115l3 -48q0 -70 -27 -118q-33 -58 -108 -89q-45 -16 -131 -16q-82 0 -171 9q-16 1 -40 5q-38 -7 -69 -10.5t-56 -3.5q-52 0 -79 8q-48 14 -52 51q0 34 34 49q26 11 66 11
q35 0 74 -5t84 -10q25 4 46 35q14 23 20 33h-98q-11 0 -13 4l4 6l35 66q5 10 10 10h5zM586 258q8 0 8 -6v-6l-31 -62q-9 -12 -18 -12h-107q-13 -22 -28 -43q-11 -15 -29 -37l74 -6q73 0 124 28q64 35 64 103q0 57 -40 124q-30 50 -58 73q-23 -58 -33 -84q-20 -50 -30 -72
h104z" />
    <glyph glyph-name="Ntilde" unicode="&#xd1;" horiz-adv-x="611" 
d="M-47 -18q48 51 119 186q56 105 126 260q21 47 97 220q8 23 27.5 36t40.5 13q26 0 42.5 -18.5t16.5 -55.5v-420q13 26 76 213q22 67 65.5 141t59.5 74q2 0 3.5 -1.5l2.5 -2.5q7 -22 12 -48t7 -50q0 -10 -17 -38q-28 -46 -47.5 -93t-46.5 -123t-45 -126q-27 -73 -41 -100
q-8 -21 -26.5 -35t-39.5 -14q-22 0 -35.5 18t-13.5 56v469q-43 -114 -97.5 -235.5t-93 -197t-55.5 -98.5q-9 -12 -15.5 -21t-15.5 -9h-106zM472 737q22 22 50.5 57t47.5 63q8 14 43 14q13 0 22.5 -4.5t9.5 -13.5q-41 -36 -71 -66q-19 -19 -55 -58q-24 0 -35.5 1.5t-11.5 6.5
z" />
    <glyph glyph-name="Ograve" unicode="&#xd2;" horiz-adv-x="611" 
d="M-47 -18q48 51 119 186q56 105 126 260q21 47 97 220q8 23 27.5 36t40.5 13q26 0 42.5 -18.5t16.5 -55.5v-420q13 26 76 213q22 67 65.5 141t59.5 74q2 0 3.5 -1.5l2.5 -2.5q7 -22 12 -48t7 -50q0 -10 -17 -38q-28 -46 -47.5 -93t-46.5 -123t-45 -126q-27 -73 -41 -100
q-8 -21 -26.5 -35t-39.5 -14q-22 0 -35.5 18t-13.5 56v469q-43 -114 -97.5 -235.5t-93 -197t-55.5 -98.5q-9 -12 -15.5 -21t-15.5 -9h-106zM465 833q3 -20 16.5 -27.5t39.5 -7.5q7 0 19.5 5t24.5 10q26 10 65 39q30 22 54 22q12 -3 12 -17q0 -15 -7 -24q-41 -47 -93.5 -75.5
t-97.5 -28.5q-41 0 -62.5 24.5t-21.5 79.5q0 10 9.5 21.5t20.5 11.5q15 0 21 -33z" />
    <glyph glyph-name="Oacute" unicode="&#xd3;" horiz-adv-x="594" 
d="M10 217q18 193 155.5 349.5t281.5 156.5h12q20 0 34.5 -7.5t14.5 -29.5q0 -44 -33 -52q-22 -3 -28 -3q-123 -20 -233 -156t-110 -272l3 -37q4 -39 27.5 -59.5t58.5 -20.5q67 0 133 55q57 47 110.5 149t53.5 163q0 47 -39 47q-30 0 -55 -35t-39 -94q-5 -21 -41 -38
q-28 -13 -58 -17l-4 2l-3 32q0 85 70.5 161.5t147.5 76.5q57 0 87 -37t30 -96q0 -65 -28 -142.5t-68 -132.5q-63 -88 -127 -133q-75 -53 -158 -53q-89 0 -139 45q-58 52 -58 162q1 4 1.5 9t0.5 7zM439 737q22 22 50.5 57t47.5 63q8 14 43 14q13 0 22.5 -4.5t9.5 -13.5
q-41 -36 -71 -66q-19 -19 -55 -58q-24 0 -35.5 1.5t-11.5 6.5z" />
    <glyph glyph-name="Ocircumflex" unicode="&#xd4;" horiz-adv-x="594" 
d="M10 217q18 193 155.5 349.5t281.5 156.5h12q20 0 34.5 -7.5t14.5 -29.5q0 -44 -33 -52q-22 -3 -28 -3q-123 -20 -233 -156t-110 -272l3 -37q4 -39 27.5 -59.5t58.5 -20.5q67 0 133 55q57 47 110.5 149t53.5 163q0 47 -39 47q-30 0 -55 -35t-39 -94q-5 -21 -41 -38
q-28 -13 -58 -17l-4 2l-3 32q0 85 70.5 161.5t147.5 76.5q57 0 87 -37t30 -96q0 -65 -28 -142.5t-68 -132.5q-63 -88 -127 -133q-75 -53 -158 -53q-89 0 -139 45q-58 52 -58 162q1 4 1.5 9t0.5 7zM573 754q-3 20 -16.5 27.5t-39.5 7.5q-7 0 -19.5 -5t-24.5 -10
q-26 -10 -65 -39q-30 -22 -54 -22q-12 3 -12 17q0 15 7 24q41 47 93.5 75.5t97.5 28.5q41 0 62.5 -24.5t21.5 -79.5q0 -10 -9.5 -21.5t-20.5 -11.5q-15 0 -21 33z" />
    <glyph glyph-name="Otilde" unicode="&#xd5;" horiz-adv-x="594" 
d="M10 217q18 193 155.5 349.5t281.5 156.5h12q20 0 34.5 -7.5t14.5 -29.5q0 -44 -33 -52q-22 -3 -28 -3q-123 -20 -233 -156t-110 -272l3 -37q4 -39 27.5 -59.5t58.5 -20.5q67 0 133 55q57 47 110.5 149t53.5 163q0 47 -39 47q-30 0 -55 -35t-39 -94q-5 -21 -41 -38
q-28 -13 -58 -17l-4 2l-3 32q0 85 70.5 161.5t147.5 76.5q57 0 87 -37t30 -96q0 -65 -28 -142.5t-68 -132.5q-63 -88 -127 -133q-75 -53 -158 -53q-89 0 -139 45q-58 52 -58 162q1 4 1.5 9t0.5 7zM352 737q22 22 50.5 57t47.5 63q8 14 43 14q13 0 22.5 -4.5t9.5 -13.5
q-41 -36 -71 -66q-19 -19 -55 -58q-24 0 -35.5 1.5t-11.5 6.5zM518 736q22 22 50.5 57t47.5 63q8 14 43 14q13 0 22.5 -4.5t9.5 -13.5q-41 -36 -71 -66q-19 -19 -55 -58q-24 0 -35.5 1.5t-11.5 6.5z" />
    <glyph glyph-name="Odieresis" unicode="&#xd6;" horiz-adv-x="594" 
d="M10 217q18 193 155.5 349.5t281.5 156.5h12q20 0 34.5 -7.5t14.5 -29.5q0 -44 -33 -52q-22 -3 -28 -3q-123 -20 -233 -156t-110 -272l3 -37q4 -39 27.5 -59.5t58.5 -20.5q67 0 133 55q57 47 110.5 149t53.5 163q0 47 -39 47q-30 0 -55 -35t-39 -94q-5 -21 -41 -38
q-28 -13 -58 -17l-4 2l-3 32q0 85 70.5 161.5t147.5 76.5q57 0 87 -37t30 -96q0 -65 -28 -142.5t-68 -132.5q-63 -88 -127 -133q-75 -53 -158 -53q-89 0 -139 45q-58 52 -58 162q1 4 1.5 9t0.5 7zM396 799q6 21 22 35t34 14q30 0 30 -46q-5 -18 -20.5 -32.5t-33.5 -14.5
q-32 0 -32 44zM534 799q6 21 22 35t34 14q30 0 30 -46q-5 -18 -20.5 -32.5t-33.5 -14.5q-32 0 -32 44z" />
    <glyph glyph-name="multiply" unicode="&#xd7;" horiz-adv-x="600" 
d="M292 199l-116 137q-8 10 -8 14q0 7 29 40l136 -161l178 155q4 -12 9.5 -24t5.5 -17q0 -7 -10 -16l-153 -135l120 -146q2 -2 4 -10q0 -6 -10.5 -19.5l-17.5 -22.5l-138 165l-188 -156q-19 31 -19 39q0 7 11 16z" />
    <glyph glyph-name="Oslash" unicode="&#xd8;" horiz-adv-x="463" 
d="M20 232q34 98 68 197q41 111 94 190q24 37 62 57.5t78 20.5q73 0 112 -52q27 -38 27 -122q0 -90 -33 -165q-38 -88 -106 -114q-19 -8 -27 -11q-15 -7 -16 -16q3 -13 16 -26q33 -33 78.5 -93t54.5 -86l2 -8q0 -5 -8 -12t-27 -19q-26 -18 -38 -18l-3 2q-45 65 -91 123
q-35 43 -79 92q-17 20 -20 51q2 19 13 36t36 30q81 41 111 81q43 56 43 157q0 32 -14.5 57t-39.5 25q-17 0 -34.5 -13t-34.5 -41q-40 -66 -75.5 -159t-47.5 -166q-18 -114 -47.5 -175t-63.5 -61l-12 2q-25 6 -25 41q0 26 17 85q25 88 30 110zM321 833q3 -20 16.5 -27.5
t39.5 -7.5q7 0 19.5 5t24.5 10q26 10 65 39q30 22 54 22q12 -3 12 -17q0 -15 -7 -24q-41 -47 -93.5 -75.5t-97.5 -28.5q-41 0 -62.5 24.5t-21.5 79.5q0 10 9.5 21.5t20.5 11.5q15 0 21 -33z" />
    <glyph glyph-name="Ugrave" unicode="&#xd9;" horiz-adv-x="686" 
d="M88 508q34 80 87 129q63 58 139 58q52 0 82 -21q38 -27 38 -88q-6 -52 -53 -156q-29 -65 -92 -187.5t-72 -144.5l230 232q47 49 95 98q41 43 75.5 85t46.5 69q6 11 32.5 21t47.5 10q20 0 20 -13q0 -8 -2 -12q-55 -105 -84 -165q-61 -124 -93 -213q-44 -121 -44 -189
q0 -10 -35.5 -17.5t-64.5 -7.5l-3 25q0 46 25 121q21 65 58 141q-81 -82 -161 -164q-70 -65 -131 -107q-27 -18 -57 -18q-26 0 -45.5 17.5t-19.5 47.5q2 19 4.5 27.5t9.5 24.5q56 135 94 217q32 67 90 178q12 24 17.5 42t5.5 32q0 25 -25 25q-13 0 -25.5 -5t-25.5 -14
q-36 -28 -62 -83q-23 -60 -45 -120q-11 -13 -39 -31q-35 -22 -53 -22q-14 4 -14 14q0 23 15.5 73.5t33.5 90.5zM594 758q26 0 40 18.5t14 41.5q0 24 -21 24q-25 0 -40 -21q-11 -16 -15 -42q0 -21 22 -21zM586 729q-21 0 -32.5 12.5t-11.5 31.5q0 36 24 65q28 33 70 33
q21 0 32.5 -12.5t11.5 -34.5q0 -34 -26.5 -64.5t-67.5 -30.5z" />
    <glyph glyph-name="Uacute" unicode="&#xda;" horiz-adv-x="686" 
d="M88 508q34 80 87 129q63 58 139 58q52 0 82 -21q38 -27 38 -88q-6 -52 -53 -156q-29 -65 -92 -187.5t-72 -144.5l230 232q47 49 95 98q41 43 75.5 85t46.5 69q6 11 32.5 21t47.5 10q20 0 20 -13q0 -8 -2 -12q-55 -105 -84 -165q-61 -124 -93 -213q-44 -121 -44 -189
q0 -10 -35.5 -17.5t-64.5 -7.5l-3 25q0 46 25 121q21 65 58 141q-81 -82 -161 -164q-70 -65 -131 -107q-27 -18 -57 -18q-26 0 -45.5 17.5t-19.5 47.5q2 19 4.5 27.5t9.5 24.5q56 135 94 217q32 67 90 178q12 24 17.5 42t5.5 32q0 25 -25 25q-13 0 -25.5 -5t-25.5 -14
q-36 -28 -62 -83q-23 -60 -45 -120q-11 -13 -39 -31q-35 -22 -53 -22q-14 4 -14 14q0 23 15.5 73.5t33.5 90.5zM556 737q22 22 50.5 57t47.5 63q8 14 43 14q13 0 22.5 -4.5t9.5 -13.5q-41 -36 -71 -66q-19 -19 -55 -58q-24 0 -35.5 1.5t-11.5 6.5z" />
    <glyph glyph-name="Ucircumflex" unicode="&#xdb;" horiz-adv-x="686" 
d="M88 508q34 80 87 129q63 58 139 58q52 0 82 -21q38 -27 38 -88q-6 -52 -53 -156q-29 -65 -92 -187.5t-72 -144.5l230 232q47 49 95 98q41 43 75.5 85t46.5 69q6 11 32.5 21t47.5 10q20 0 20 -13q0 -8 -2 -12q-55 -105 -84 -165q-61 -124 -93 -213q-44 -121 -44 -189
q0 -10 -35.5 -17.5t-64.5 -7.5l-3 25q0 46 25 121q21 65 58 141q-81 -82 -161 -164q-70 -65 -131 -107q-27 -18 -57 -18q-26 0 -45.5 17.5t-19.5 47.5q2 19 4.5 27.5t9.5 24.5q56 135 94 217q32 67 90 178q12 24 17.5 42t5.5 32q0 25 -25 25q-13 0 -25.5 -5t-25.5 -14
q-36 -28 -62 -83q-23 -60 -45 -120q-11 -13 -39 -31q-35 -22 -53 -22q-14 4 -14 14q0 23 15.5 73.5t33.5 90.5zM481 737q22 22 50.5 57t47.5 63q8 14 43 14q13 0 22.5 -4.5t9.5 -13.5q-41 -36 -71 -66q-19 -19 -55 -58q-24 0 -35.5 1.5t-11.5 6.5zM647 736q22 22 50.5 57
t47.5 63q8 14 43 14q13 0 22.5 -4.5t9.5 -13.5q-41 -36 -71 -66q-19 -19 -55 -58q-24 0 -35.5 1.5t-11.5 6.5z" />
    <glyph glyph-name="Udieresis" unicode="&#xdc;" horiz-adv-x="686" 
d="M88 508q34 80 87 129q63 58 139 58q52 0 82 -21q38 -27 38 -88q-6 -52 -53 -156q-29 -65 -92 -187.5t-72 -144.5l230 232q47 49 95 98q41 43 75.5 85t46.5 69q6 11 32.5 21t47.5 10q20 0 20 -13q0 -8 -2 -12q-55 -105 -84 -165q-61 -124 -93 -213q-44 -121 -44 -189
q0 -10 -35.5 -17.5t-64.5 -7.5l-3 25q0 46 25 121q21 65 58 141q-81 -82 -161 -164q-70 -65 -131 -107q-27 -18 -57 -18q-26 0 -45.5 17.5t-19.5 47.5q2 19 4.5 27.5t9.5 24.5q56 135 94 217q32 67 90 178q12 24 17.5 42t5.5 32q0 25 -25 25q-13 0 -25.5 -5t-25.5 -14
q-36 -28 -62 -83q-23 -60 -45 -120q-11 -13 -39 -31q-35 -22 -53 -22q-14 4 -14 14q0 23 15.5 73.5t33.5 90.5zM522 796q6 21 22 35t34 14q30 0 30 -46q-5 -18 -20.5 -32.5t-33.5 -14.5q-32 0 -32 44zM660 796q6 21 22 35t34 14q30 0 30 -46q-5 -18 -20.5 -32.5t-33.5 -14.5
q-32 0 -32 44z" />
    <glyph glyph-name="Yacute" unicode="&#xdd;" horiz-adv-x="668" 
d="M23 340q11 101 64 196q42 75 89 114q26 24 59.5 36.5t65.5 12.5q41 0 70.5 -18.5t38.5 -51.5l2 -20q0 -49 -39 -140q-48 -102 -96 -203q-10 -29 -42 -98q-24 -51 -38 -80l6 -4q55 46 111 93q107 91 177 169q99 111 124 195q1 10 17 16t36 6q19 0 30 -5t11 -13
q-37 -103 -75 -196q-47 -115 -99 -224q-48 -106 -72 -154q-40 -81 -74 -134q-38 -60 -71 -85q-8 -4 -19 -4q-16 0 -32 9.5t-17 25.5q2 9 5.5 14.5t8.5 11.5q20 20 97 172q69 136 112 230l-4 2q-29 -39 -80 -90q-61 -62 -102 -86q-37 -21 -60 -30q-33 -13 -61 -13
q-30 0 -49.5 14.5t-22.5 44.5q0 21 7 43q2 6 30 68q68 153 94 212q47 106 57 128q20 45 27 64q2 6 2 18q0 21 -28 21q-15 0 -30.5 -6.5t-23.5 -14.5q-27 -22 -49 -65q-28 -52 -49 -136q-4 -11 -40 -36t-56 -25q-12 3 -12 16zM517 737q22 22 50.5 57t47.5 63q8 14 43 14
q13 0 22.5 -4.5t9.5 -13.5q-41 -36 -71 -66q-19 -19 -55 -58q-24 0 -35.5 1.5t-11.5 6.5z" />
    <glyph glyph-name="Thorn" unicode="&#xde;" horiz-adv-x="574" 
d="M59 496q4 43 101 77q64 23 205 49l184 34q14 22 33 36.5t43 14.5q22 0 36.5 -15.5t14.5 -37.5q0 -8 -1 -12.5t-7 -16.5q-13 -18 -27 -28t-14 -11q-41 -97 -81 -193q-62 -145 -107 -245q-58 -127 -82 -164q-5 -7 -41 -7h-21h-14q-27 0 -36 1.5t-11 7.5l6 10q62 86 155 280
q97 201 113 283h-6q-41 0 -186.5 -34t-145.5 -50q0 -3 53 -35q30 -18 54 -34q0 -16 -26 -41t-40 -25q-50 21 -93 58q-59 50 -59 98zM206 -205q6 28 24 89q6 20 17 56q3 6 7 11t13 6h37q4 0 12 -6q4 -3 4 -9l-2 -10l-79 -143z" />
    <glyph glyph-name="germandbls" unicode="&#xdf;" 
d="M111 295q17 54 32 97q22 60 48 118q43 95 101 153q53 54 101 60q63 0 91 -31q24 -26 24 -75q0 -20 -4.5 -40t-11.5 -42q-14 -35 -67 -101q-17 -21 -50 -59q21 -13 39 -37t22 -61v-21q0 -38 -15 -75q-18 -44 -58 -89q34 9 82 46q23 19 47 38q14 0 14 -39q0 -17 -3.5 -29.5
t-12.5 -21.5q-45 -39 -95.5 -62.5t-89.5 -23.5q-26 3 -45 12q-5 -5 -22 -10.5t-33 -5.5q-24 0 -40 15t-19 40q3 13 10 13q9 4 29 6t45 2q23 15 46 40q27 29 50 68q14 22 20 40.5t6 35.5q0 29 -13.5 45.5t-24.5 16.5q-15 -8 -31 -11q-15 1 -26 10t-11 19q0 27 13 39l38 18
q34 24 78 85q53 74 53 124q0 35 -28 35q-47 0 -99 -88q-23 -39 -46 -94q-4 -9 -71 -191q-36 -96 -71 -198q-39 -113 -54 -156t-23.5 -82.5t-15.5 -73.5q-6 -23 -20 -35t-31 -12t-29 13t-12 36l2 19q16 70 45 148q42 112 84 225q-16 -13 -26 -21q-33 -28 -51 -45q-7 0 -7 31
q0 42 9 53q49 43 74 67q48 44 53 62z" />
    <glyph glyph-name="agrave" unicode="&#xe0;" horiz-adv-x="369" 
d="M109 318q-14 18 -17 39q0 26 15.5 43.5t40.5 17.5q21 0 35 -10.5t16.5 -25t4 -23t7.5 -13.5q4 0 20 2t27 2q25 0 41.5 -14.5t16.5 -38.5q0 -18 -7 -37l-79 -156l-1 -4q0 -6 11 -10l8 2q16 6 52.5 31t49.5 39q3 5 9 10l2 2q3 0 5.5 -2t5.5 -5t3 -38q0 -27 -6 -33
q-68 -58 -118 -81q-42 -19 -81 -19q-25 0 -40 13t-15 34q10 50 42 115l56 110q0 11 -18 11q-24 0 -50 -34l-22 -30q-31 -35 -82 -82q-47 -43 -61 -51q-2 6 -2 9q-3 15 -3 24q0 24 1.5 35.5t5.5 15.5q47 39 92 100q14 20 35 52zM226 440q22 22 50.5 57t47.5 63q8 14 43 14
q13 0 22.5 -4.5t9.5 -13.5q-41 -36 -71 -66q-19 -19 -55 -58q-24 0 -35.5 1.5t-11.5 6.5z" />
    <glyph glyph-name="aacute" unicode="&#xe1;" horiz-adv-x="426" 
d="M289 88q14 0 50.5 24t74.5 58q1 1 6 2q10 0 10 -35q0 -33 -23 -57q-3 -3 -93 -60q-17 -10 -36.5 -17t-39.5 -7q-21 0 -29.5 8t-11.5 31l2 10q-30 -29 -37 -33q-29 -18 -74 -18q-54 0 -80 42q-22 35 -22 91q0 101 89 167.5t204 66.5q31 0 51.5 -1.5t23.5 -5t4.5 -20
t2.5 -25.5v-22q0 -10 -6 -10q-15 7 -34.5 12.5t-37.5 5.5q-54 0 -116 -37q-70 -42 -81 -94l-8 -51q0 -18 7 -26.5t19 -10.5q50 5 97 64q20 24 65 102q5 -2 18.5 -4t16.5 -2h51q-32 -67 -43 -92q-20 -43 -20 -56zM226 443q22 22 50.5 57t47.5 63q8 14 43 14q13 0 22.5 -4.5
t9.5 -13.5q-41 -36 -71 -66q-19 -19 -55 -58q-24 0 -35.5 1.5t-11.5 6.5z" />
    <glyph glyph-name="acircumflex" unicode="&#xe2;" horiz-adv-x="426" 
d="M289 88q14 0 50.5 24t74.5 58q1 1 6 2q10 0 10 -35q0 -33 -23 -57q-3 -3 -93 -60q-17 -10 -36.5 -17t-39.5 -7q-21 0 -29.5 8t-11.5 31l2 10q-30 -29 -37 -33q-29 -18 -74 -18q-54 0 -80 42q-22 35 -22 91q0 101 89 167.5t204 66.5q31 0 51.5 -1.5t23.5 -5t4.5 -20
t2.5 -25.5v-22q0 -10 -6 -10q-15 7 -34.5 12.5t-37.5 5.5q-54 0 -116 -37q-70 -42 -81 -94l-8 -51q0 -18 7 -26.5t19 -10.5q50 5 97 64q20 24 65 102q5 -2 18.5 -4t16.5 -2h51q-32 -67 -43 -92q-20 -43 -20 -56zM387 460q-3 20 -16.5 27.5t-39.5 7.5q-7 0 -19.5 -5
t-24.5 -10q-26 -10 -65 -39q-30 -22 -54 -22q-12 3 -12 17q0 15 7 24q41 47 93.5 75.5t97.5 28.5q41 0 62.5 -24.5t21.5 -79.5q0 -10 -9.5 -21.5t-20.5 -11.5q-15 0 -21 33z" />
    <glyph glyph-name="atilde" unicode="&#xe3;" horiz-adv-x="426" 
d="M289 88q14 0 50.5 24t74.5 58q1 1 6 2q10 0 10 -35q0 -33 -23 -57q-3 -3 -93 -60q-17 -10 -36.5 -17t-39.5 -7q-21 0 -29.5 8t-11.5 31l2 10q-30 -29 -37 -33q-29 -18 -74 -18q-54 0 -80 42q-22 35 -22 91q0 101 89 167.5t204 66.5q31 0 51.5 -1.5t23.5 -5t4.5 -20
t2.5 -25.5v-22q0 -10 -6 -10q-15 7 -34.5 12.5t-37.5 5.5q-54 0 -116 -37q-70 -42 -81 -94l-8 -51q0 -18 7 -26.5t19 -10.5q50 5 97 64q20 24 65 102q5 -2 18.5 -4t16.5 -2h51q-32 -67 -43 -92q-20 -43 -20 -56zM225 532q0 -23 22.5 -34.5t59.5 -11.5q17 0 31.5 5.5
t24.5 14.5q20 22 40 45q16 16 41 16q9 -6 9 -18q0 -13 -8 -23q-38 -50 -71.5 -71t-78.5 -21q-123 0 -123 107q0 8 9.5 17.5t20.5 9.5q10 0 16.5 -8t6.5 -28z" />
    <glyph glyph-name="adieresis" unicode="&#xe4;" horiz-adv-x="426" 
d="M289 88q14 0 50.5 24t74.5 58q1 1 6 2q10 0 10 -35q0 -33 -23 -57q-3 -3 -93 -60q-17 -10 -36.5 -17t-39.5 -7q-21 0 -29.5 8t-11.5 31l2 10q-30 -29 -37 -33q-29 -18 -74 -18q-54 0 -80 42q-22 35 -22 91q0 101 89 167.5t204 66.5q31 0 51.5 -1.5t23.5 -5t4.5 -20
t2.5 -25.5v-22q0 -10 -6 -10q-15 7 -34.5 12.5t-37.5 5.5q-54 0 -116 -37q-70 -42 -81 -94l-8 -51q0 -18 7 -26.5t19 -10.5q50 5 97 64q20 24 65 102q5 -2 18.5 -4t16.5 -2h51q-32 -67 -43 -92q-20 -43 -20 -56zM195 505q6 21 22 35t34 14q30 0 30 -46q-5 -18 -20.5 -32.5
t-33.5 -14.5q-32 0 -32 44zM333 505q6 21 22 35t34 14q30 0 30 -46q-5 -18 -20.5 -32.5t-33.5 -14.5q-32 0 -32 44z" />
    <glyph glyph-name="aring" unicode="&#xe5;" horiz-adv-x="260" 
d="M100 281q27 82 52 155q33 96 94 255q11 34 43 34q30 0 33 -30q0 -45 -17.5 -111t-40.5 -115q-27 -60 -54 -121.5t-48 -120.5q-26 -70 -39 -125q0 -7 10 -10l12 4q25 15 65 47q27 22 42 33q12 0 12 -37q0 -52 -61 -90q-34 -22 -107 -47q-15 -6 -32 -6q-19 0 -31.5 12
t-14.5 29l2 10q2 16 8.5 37t14.5 43l-2 4q-29 -23 -57 -45q-3 0 -5 9.5t-2 21.5q0 45 53 93q37 34 48 50q14 10 22 21zM274 746q22 22 50.5 57t47.5 63q8 14 43 14q13 0 22.5 -4.5t9.5 -13.5q-41 -36 -71 -66q-19 -19 -55 -58q-24 0 -35.5 1.5t-11.5 6.5z" />
    <glyph glyph-name="ae" unicode="&#xe6;" horiz-adv-x="352" 
d="M344 172q8 0 9.5 -11.5t1.5 -25.5q0 -33 -26 -57q-5 -4 -56 -39q-26 -17 -66.5 -31t-83.5 -14q-51 0 -83 17q-39 21 -46 67l-2 47q0 81 45 141t125 84q19 4 40 7.5t36 3.5q35 0 59 -10q35 -14 35 -44q0 -25 -11.5 -56.5t-19.5 -37.5h-71q-15 0 -17 2q13 25 14 27
q7 16 7 31q0 14 -4 19t-17 5q-51 0 -89 -48.5t-38 -100.5q0 -46 17 -65q12 -13 34 -15l17 2q41 0 100 37q22 14 90 65zM220 443q22 22 50.5 57t47.5 63q8 14 43 14q13 0 22.5 -4.5t9.5 -13.5q-41 -36 -71 -66q-19 -19 -55 -58q-24 0 -35.5 1.5t-11.5 6.5z" />
    <glyph glyph-name="ccedilla" unicode="&#xe7;" horiz-adv-x="352" 
d="M92 -4q-40 5 -64 23q-28 21 -34 59l-2 47q0 81 45 141t125 84q19 4 40 7.5t36 3.5q35 0 59 -10q35 -14 35 -44q0 -25 -11.5 -56.5t-19.5 -37.5h-71q-15 0 -17 2q13 25 14 27q7 16 7 31q0 14 -4 19t-17 5q-51 0 -89 -48.5t-38 -100.5q0 -46 17 -65q12 -13 34 -15l17 2
q41 0 100 37q22 14 90 65q8 0 9.5 -11.5t1.5 -25.5q0 -33 -26 -57q-5 -4 -56 -39q-25 -18 -54 -29q-38 -15 -75 -15l-25 -50q39 0 63 -17t24 -52q0 -34 -32.5 -55t-73.5 -21q-45 0 -71 7.5t-41 19.5q-5 5 -5 12q0 9 7 16t16 7q6 -1 7 -2q13 -9 25.5 -14t37.5 -5q53 0 53 36
q0 24 -18 35.5t-42 11.5q-20 0 -20 6l2 9q9 12 14 19q21 29 27 38z" />
    <glyph glyph-name="egrave" unicode="&#xe8;" horiz-adv-x="352" 
d="M344 172q8 0 9.5 -11.5t1.5 -25.5q0 -33 -26 -57q-5 -4 -56 -39q-26 -17 -66.5 -31t-83.5 -14q-51 0 -83 17q-39 21 -46 67l-2 47q0 81 45 141t125 84q19 4 40 7.5t36 3.5q35 0 59 -10q35 -14 35 -44q0 -25 -11.5 -56.5t-19.5 -37.5h-71q-15 0 -17 2q13 25 14 27
q7 16 7 31q0 14 -4 19t-17 5q-51 0 -89 -48.5t-38 -100.5q0 -46 17 -65q12 -13 34 -15l17 2q41 0 100 37q22 14 90 65zM216 539q3 -20 16.5 -27.5t39.5 -7.5q7 0 19.5 5t24.5 10q26 10 65 39q30 22 54 22q12 -3 12 -17q0 -15 -7 -24q-41 -47 -93.5 -75.5t-97.5 -28.5
q-41 0 -62.5 24.5t-21.5 79.5q0 10 9.5 21.5t20.5 11.5q15 0 21 -33z" />
    <glyph glyph-name="eacute" unicode="&#xe9;" horiz-adv-x="352" 
d="M84 178q58 7 103 33.5t45 52.5q0 11 -9 19t-20 8q-31 0 -70 -36.5t-49 -76.5zM346 172q9 0 9 -35q0 -16 -2 -28t-7 -17q-36 -36 -89 -62q-69 -34 -134 -34q-18 0 -35 2t-31 8q-35 11 -51 43.5t-16 77.5q0 95 73.5 165.5t170.5 70.5q43 0 67.5 -19.5t24.5 -60.5
q0 -52 -47 -95q-37 -33 -95 -55q-28 -12 -57 -15t-34 -6t-9 -12q0 -12 20.5 -22t45.5 -10q71 23 103 39q52 25 93 65zM202 443q22 22 50.5 57t47.5 63q8 14 43 14q13 0 22.5 -4.5t9.5 -13.5q-41 -36 -71 -66q-19 -19 -55 -58q-24 0 -35.5 1.5t-11.5 6.5z" />
    <glyph glyph-name="ecircumflex" unicode="&#xea;" horiz-adv-x="352" 
d="M84 178q58 7 103 33.5t45 52.5q0 11 -9 19t-20 8q-31 0 -70 -36.5t-49 -76.5zM95 -3q-17 3 -22.5 4t-15.5 5q-35 11 -51 43.5t-16 77.5q0 95 73.5 165.5t170.5 70.5q43 0 67.5 -19.5t24.5 -60.5q0 -52 -47 -95q-37 -33 -95 -55q-28 -12 -57 -15t-34 -6t-9 -12
q0 -12 20.5 -22t45.5 -10q71 23 103 39q52 25 93 65q9 0 9 -35q0 -16 -2 -28t-7 -17q-31 -31 -78 -56q-60 -32 -119 -38q-41 -41 -56 -67.5t-15 -52.5q0 -36 47 -36q8 0 19.5 4t15 6.5t8.5 3.5q15 0 15 -18q0 -9 -7 -14.5t-32 -14t-37 -8.5q-47 0 -74 21t-27 56q0 43 27 74
q20 23 62 45z" />
    <glyph glyph-name="edieresis" unicode="&#xeb;" horiz-adv-x="352" 
d="M108 502q6 21 22 35t34 14q30 0 30 -46q-5 -18 -20.5 -32.5t-33.5 -14.5q-32 0 -32 44zM246 502q6 21 22 35t34 14q30 0 30 -46q-5 -18 -20.5 -32.5t-33.5 -14.5q-32 0 -32 44zM84 178q58 7 103 33.5t45 52.5q0 11 -9 19t-20 8q-31 0 -70 -36.5t-49 -76.5zM346 172
q9 0 9 -35q0 -16 -2 -28t-7 -17q-36 -36 -89 -62q-69 -34 -134 -34q-18 0 -35 2t-31 8q-35 11 -51 43.5t-16 77.5q0 95 73.5 165.5t170.5 70.5q43 0 67.5 -19.5t24.5 -60.5q0 -52 -47 -95q-37 -33 -95 -55q-28 -12 -57 -15t-34 -6t-9 -12q0 -12 20.5 -22t45.5 -10
q71 23 103 39q52 25 93 65z" />
    <glyph glyph-name="igrave" unicode="&#xec;" horiz-adv-x="352" 
d="M84 178q58 7 103 33.5t45 52.5q0 11 -9 19t-20 8q-31 0 -70 -36.5t-49 -76.5zM346 172q9 0 9 -35q0 -16 -2 -28t-7 -17q-36 -36 -89 -62q-69 -34 -134 -34q-18 0 -35 2t-31 8q-35 11 -51 43.5t-16 77.5q0 95 73.5 165.5t170.5 70.5q43 0 67.5 -19.5t24.5 -60.5
q0 -52 -47 -95q-37 -33 -95 -55q-28 -12 -57 -15t-34 -6t-9 -12q0 -12 20.5 -22t45.5 -10q71 23 103 39q52 25 93 65zM195 539q3 -20 16.5 -27.5t39.5 -7.5q7 0 19.5 5t24.5 10q26 10 65 39q30 22 54 22q12 -3 12 -17q0 -15 -7 -24q-41 -47 -93.5 -75.5t-97.5 -28.5
q-41 0 -62.5 24.5t-21.5 79.5q0 10 9.5 21.5t20.5 11.5q15 0 21 -33z" />
    <glyph glyph-name="iacute" unicode="&#xed;" horiz-adv-x="260" 
d="M141 350h93q-33 -72 -50 -109q-52 -114 -59 -136l-2 -9q4 -5 6 -6q30 7 71 40q14 11 38 32q10 10 16 10q8 0 8 -14v-21q0 -47 -54 -84q-28 -19 -97 -47q-18 -8 -54 -8q-24 0 -35.5 7t-15.5 28q0 17 10 41.5t19 46.5l-2 2l-17 -14q-7 -9 -19.5 -18t-16.5 -9l-1 37l1 43
q13 13 55 48q64 54 84 91q6 8 15 29q2 7 7 20zM163 443q22 22 50.5 57t47.5 63q8 14 43 14q13 0 22.5 -4.5t9.5 -13.5q-41 -36 -71 -66q-19 -19 -55 -58q-24 0 -35.5 1.5t-11.5 6.5z" />
    <glyph glyph-name="icircumflex" unicode="&#xee;" horiz-adv-x="260" 
d="M141 350h93q-33 -72 -50 -109q-52 -114 -59 -136l-2 -9q4 -5 6 -6q30 7 71 40q14 11 38 32q10 10 16 10q8 0 8 -14v-21q0 -47 -54 -84q-28 -19 -97 -47q-18 -8 -54 -8q-24 0 -35.5 7t-15.5 28q0 17 10 41.5t19 46.5l-2 2l-17 -14q-7 -9 -19.5 -18t-16.5 -9l-1 37l1 43
q13 13 55 48q64 54 84 91q6 8 15 29q2 7 7 20zM303 460q-3 20 -16.5 27.5t-39.5 7.5q-7 0 -19.5 -5t-24.5 -10q-26 -10 -65 -39q-30 -22 -54 -22q-12 3 -12 17q0 15 7 24q41 47 93.5 75.5t97.5 28.5q41 0 62.5 -24.5t21.5 -79.5q0 -10 -9.5 -21.5t-20.5 -11.5q-15 0 -21 33z
" />
    <glyph glyph-name="idieresis" unicode="&#xef;" horiz-adv-x="463" 
d="M301 246q50 65 93 178.5t53 206.5l-2 2q-48 -78 -87 -181.5t-59 -203.5zM227 281q0 6 -16 6q-39 0 -82 -34q-55 -44 -55 -115l2 -25q4 -36 35 -39l22 6q26 12 46 27t20 26q0 35 11 84q6 27 17 64zM248 352q21 80 55 156q39 88 88 152q26 35 44 50t32 15q20 0 30.5 -20.5
t10.5 -50.5l2 -36q0 -117 -60.5 -254.5t-158.5 -248.5q-7 -10 -10 -23q0 -14 26 -18q38 10 95 55q25 20 51 41q6 0 10 -13.5t4 -29.5v-14q-7 -31 -85 -76q-73 -41 -107 -45h-15q-20 0 -34 9.5t-27 37.5q-28 -23 -56.5 -33t-64.5 -10q-37 0 -58.5 17.5t-27.5 50.5
q-6 42 -6 73q0 90 62.5 153.5t152.5 63.5h23t24 -2zM642 716q2 -3 4.5 -7.5t2.5 -8.5l-3 -9q-9 -12 -42 -64q-25 -40 -29 -40l-25 7q-4 1 -4 10q0 18 14 61q4 14 15 41q7 10 8 11q5 5 16 7q27 0 43 -8z" />
    <glyph glyph-name="eth" unicode="&#xf0;" horiz-adv-x="463" 
d="M403 451h-44q-40 -105 -60 -203l2 -2q27 35 54 89t48 116zM429 537q13 49 18 94l-2 2q-22 -36 -51 -96h35zM227 281q0 6 -16 6q-39 0 -82 -34q-55 -44 -55 -115l2 -25q4 -36 35 -39l22 6q26 12 46 27t20 26q0 35 11 84q6 27 17 64zM503 537h56q8 0 8 -6v-6l-31 -62
q-9 -12 -18 -12h-36q-27 -88 -76 -174.5t-115 -161.5q-7 -10 -10 -23q0 -14 26 -18q38 10 95 55q25 20 51 41q6 0 10 -13.5t4 -29.5v-14q-7 -31 -85 -76q-73 -41 -107 -45h-15q-20 0 -34 9.5t-27 37.5q-28 -23 -56.5 -33t-64.5 -10q-37 0 -58.5 17.5t-27.5 50.5q-6 42 -6 73
q0 90 62.5 153.5t152.5 63.5h23t24 -2q12 46 32 99h-77q-11 0 -13 4l4 6l35 66q5 10 10 10h5h73q33 68 74 123q26 35 44 50t32 15q20 0 30.5 -20.5t10.5 -50.5l2 -36q0 -42 -7 -81z" />
    <glyph glyph-name="ntilde" unicode="&#xf1;" 
d="M121 313q8 18 11 25q7 14 13 14h84q-2 -7 -35 -78q-10 -23 -32 -69l-2 -2l2 -2q15 5 27 18q42 31 94 69q71 51 88 60q21 7 39 7q17 0 31 -3.5t14 -27.5q0 -13 -5 -29t-22 -53l-36 -72q-23 -47 -33 -74q4 -5 8 -6q16 4 31 14q39 26 66 46q12 9 30 24q6 0 10 -7.5t4 -31.5
q0 -37 -26 -57l-98 -58q-49 -24 -79 -24q-54 0 -57 35q3 22 13 48t33 74q7 16 22 44q4 8 4 18q-2 4 -4 4q-4 0 -12 -6q-2 -1 -31 -25q-71 -60 -124 -105q-65 -55 -94 -77q-13 -10 -30 -10q-29 0 -29 33l2 18l27 70q-13 -12 -19 -17q-21 -18 -26 -18q-1 10 -1.5 18.5
t-1.5 20.5q0 26 2.5 35.5t14.5 19.5q33 22 77 71t50 66zM298 443q22 22 50.5 57t47.5 63q8 14 43 14q13 0 22.5 -4.5t9.5 -13.5q-41 -36 -71 -66q-19 -19 -55 -58q-24 0 -35.5 1.5t-11.5 6.5z" />
    <glyph glyph-name="ograve" unicode="&#xf2;" 
d="M121 313q8 18 11 25q7 14 13 14h84q-2 -7 -35 -78q-10 -23 -32 -69l-2 -2l2 -2q15 5 27 18q42 31 94 69q71 51 88 60q21 7 39 7q17 0 31 -3.5t14 -27.5q0 -13 -5 -29t-22 -53l-36 -72q-23 -47 -33 -74q4 -5 8 -6q16 4 31 14q39 26 66 46q12 9 30 24q6 0 10 -7.5t4 -31.5
q0 -37 -26 -57l-98 -58q-49 -24 -79 -24q-54 0 -57 35q3 22 13 48t33 74q7 16 22 44q4 8 4 18q-2 4 -4 4q-4 0 -12 -6q-2 -1 -31 -25q-71 -60 -124 -105q-65 -55 -94 -77q-13 -10 -30 -10q-29 0 -29 33l2 18l27 70q-13 -12 -19 -17q-21 -18 -26 -18q-1 10 -1.5 18.5
t-1.5 20.5q0 26 2.5 35.5t14.5 19.5q33 22 77 71t50 66zM288 539q3 -20 16.5 -27.5t39.5 -7.5q7 0 19.5 5t24.5 10q26 10 65 39q30 22 54 22q12 -3 12 -17q0 -15 -7 -24q-41 -47 -93.5 -75.5t-97.5 -28.5q-41 0 -62.5 24.5t-21.5 79.5q0 10 9.5 21.5t20.5 11.5q15 0 21 -33z
" />
    <glyph glyph-name="oacute" unicode="&#xf3;" horiz-adv-x="369" 
d="M207 385q55 0 86 -35q27 -30 27 -73q0 -39 -19 -52q6 -18 6 -34q0 -13 -3 -22l-9 -21l12 -3q13 0 27.5 7.5t28.5 19.5q8 0 8 -35q0 -73 -78 -73q-6 1 -14 2.5t-13 5.5q-65 -78 -162 -78q-51 0 -79 22q-43 33 -43 118l2 36q8 75 59 137q65 78 164 78zM193 113q0 3 -7.5 19
t-7.5 30q4 12 4 18q5 25 27.5 45.5t22.5 26.5q0 18 -11.5 29.5t-31.5 11.5q-51 0 -84 -55q-29 -48 -29 -101q3 -37 20 -51q8 -3 17 -6t16 -4q17 2 34 10t30 27zM190 443q22 22 50.5 57t47.5 63q8 14 43 14q13 0 22.5 -4.5t9.5 -13.5q-41 -36 -71 -66q-19 -19 -55 -58
q-24 0 -35.5 1.5t-11.5 6.5z" />
    <glyph glyph-name="ocircumflex" unicode="&#xf4;" horiz-adv-x="369" 
d="M207 385q55 0 86 -35q27 -30 27 -73q0 -39 -19 -52q6 -18 6 -34q0 -13 -3 -22l-9 -21l12 -3q13 0 27.5 7.5t28.5 19.5q8 0 8 -35q0 -73 -78 -73q-6 1 -14 2.5t-13 5.5q-65 -78 -162 -78q-51 0 -79 22q-43 33 -43 118l2 36q8 75 59 137q65 78 164 78zM193 113q0 3 -7.5 19
t-7.5 30q4 12 4 18q5 25 27.5 45.5t22.5 26.5q0 18 -11.5 29.5t-31.5 11.5q-51 0 -84 -55q-29 -48 -29 -101q3 -37 20 -51q8 -3 17 -6t16 -4q17 2 34 10t30 27zM312 460q-3 20 -16.5 27.5t-39.5 7.5q-7 0 -19.5 -5t-24.5 -10q-26 -10 -65 -39q-30 -22 -54 -22q-12 3 -12 17
q0 15 7 24q41 47 93.5 75.5t97.5 28.5q41 0 62.5 -24.5t21.5 -79.5q0 -10 -9.5 -21.5t-20.5 -11.5q-15 0 -21 33z" />
    <glyph glyph-name="otilde" unicode="&#xf5;" horiz-adv-x="369" 
d="M207 385q55 0 86 -35q27 -30 27 -73q0 -39 -19 -52q6 -18 6 -34q0 -13 -3 -22l-9 -21l12 -3q13 0 27.5 7.5t28.5 19.5q8 0 8 -35q0 -73 -78 -73q-6 1 -14 2.5t-13 5.5q-65 -78 -162 -78q-51 0 -79 22q-43 33 -43 118l2 36q8 75 59 137q65 78 164 78zM193 113q0 3 -7.5 19
t-7.5 30q4 12 4 18q5 25 27.5 45.5t22.5 26.5q0 18 -11.5 29.5t-31.5 11.5q-51 0 -84 -55q-29 -48 -29 -101q3 -37 20 -51q8 -3 17 -6t16 -4q17 2 34 10t30 27zM88 443q22 22 50.5 57t47.5 63q8 14 43 14q13 0 22.5 -4.5t9.5 -13.5q-41 -36 -71 -66q-19 -19 -55 -58
q-24 0 -35.5 1.5t-11.5 6.5zM254 442q22 22 50.5 57t47.5 63q8 14 43 14q13 0 22.5 -4.5t9.5 -13.5q-41 -36 -71 -66q-19 -19 -55 -58q-24 0 -35.5 1.5t-11.5 6.5z" />
    <glyph glyph-name="odieresis" unicode="&#xf6;" horiz-adv-x="369" 
d="M207 385q55 0 86 -35q27 -30 27 -73q0 -39 -19 -52q6 -18 6 -34q0 -13 -3 -22l-9 -21l12 -3q13 0 27.5 7.5t28.5 19.5q8 0 8 -35q0 -73 -78 -73q-6 1 -14 2.5t-13 5.5q-65 -78 -162 -78q-51 0 -79 22q-43 33 -43 118l2 36q8 75 59 137q65 78 164 78zM193 113q0 3 -7.5 19
t-7.5 30q4 12 4 18q5 25 27.5 45.5t22.5 26.5q0 18 -11.5 29.5t-31.5 11.5q-51 0 -84 -55q-29 -48 -29 -101q3 -37 20 -51q8 -3 17 -6t16 -4q17 2 34 10t30 27zM132 502q6 21 22 35t34 14q30 0 30 -46q-5 -18 -20.5 -32.5t-33.5 -14.5q-32 0 -32 44zM270 502q6 21 22 35
t34 14q30 0 30 -46q-5 -18 -20.5 -32.5t-33.5 -14.5q-32 0 -32 44z" />
    <glyph glyph-name="divide" unicode="&#xf7;" horiz-adv-x="513" 
d="M172 -5q-56 0 -56 55q0 31 21.5 58.5t52.5 27.5q25 0 41 -20t16 -51q-3 -26 -25 -48t-50 -22zM283 316q-58 0 -58 54q15 46 22 58q19 30 54 30q25 0 41 -20t16 -50q0 -26 -23 -49t-52 -23zM28 255h500l-20 -59h-500z" />
    <glyph glyph-name="oslash" unicode="&#xf8;" horiz-adv-x="369" 
d="M109 318q-14 18 -17 39q0 26 15.5 43.5t40.5 17.5q21 0 35 -10.5t16.5 -25t4 -23t7.5 -13.5q4 0 20 2t27 2q25 0 41.5 -14.5t16.5 -38.5q0 -18 -7 -37l-79 -156l-1 -4q0 -6 11 -10l8 2q16 6 52.5 31t49.5 39q3 5 9 10l2 2q3 0 5.5 -2t5.5 -5t3 -38q0 -27 -6 -33
q-68 -58 -118 -81q-42 -19 -81 -19q-25 0 -40 13t-15 34q10 50 42 115l56 110q0 11 -18 11q-24 0 -50 -34l-22 -30q-31 -35 -82 -82q-47 -43 -61 -51q-2 6 -2 9q-3 15 -3 24q0 24 1.5 35.5t5.5 15.5q47 39 92 100q14 20 35 52zM231 539q3 -20 16.5 -27.5t39.5 -7.5
q7 0 19.5 5t24.5 10q26 10 65 39q30 22 54 22q12 -3 12 -17q0 -15 -7 -24q-41 -47 -93.5 -75.5t-97.5 -28.5q-41 0 -62.5 24.5t-21.5 79.5q0 10 9.5 21.5t20.5 11.5q15 0 21 -33z" />
    <glyph glyph-name="ugrave" unicode="&#xf9;" 
d="M438 350q39 0 39 -10l-2 -8l-110 -232q4 -5 8 -6l25 8q36 21 67 46q11 9 27 24l4 2q4 0 7 -11t3 -26q0 -35 -29 -61q-11 -10 -61 -39q-82 -43 -111 -43q-52 0 -55 37q10 61 41 114l-4 3q-41 -40 -91 -76q-59 -43 -114 -68q-20 -8 -43 -8q-19 0 -30 8.5t-11 28.5
q0 11 7 35t20 47l-2 2l-41 -35q-1 2 -1 4q-4 14 -4 33q0 14 0.5 27t6.5 20q39 34 79 69q45 42 64 83q7 24 10.5 28t16.5 4h65q8 0 8 -10q0 -12 -10 -22q-45 -85 -53 -101q-29 -58 -45 -106l2 -2q5 1 10.5 3.5t14.5 8.5q54 36 114 94l103 103q14 13 28 27q7 5 31 5h16z
M339 461q26 0 40 18.5t14 41.5q0 24 -21 24q-25 0 -40 -21q-11 -16 -15 -42q0 -21 22 -21zM331 432q-21 0 -32.5 12.5t-11.5 31.5q0 36 24 65q28 33 70 33q21 0 32.5 -12.5t11.5 -34.5q0 -34 -26.5 -64.5t-67.5 -30.5z" />
    <glyph glyph-name="uacute" unicode="&#xfa;" 
d="M438 350q39 0 39 -10l-2 -8l-110 -232q4 -5 8 -6l25 8q36 21 67 46q11 9 27 24l4 2q4 0 7 -11t3 -26q0 -35 -29 -61q-11 -10 -61 -39q-82 -43 -111 -43q-52 0 -55 37q10 61 41 114l-4 3q-41 -40 -91 -76q-59 -43 -114 -68q-20 -8 -43 -8q-19 0 -30 8.5t-11 28.5
q0 11 7 35t20 47l-2 2l-41 -35q-1 2 -1 4q-4 14 -4 33q0 14 0.5 27t6.5 20q39 34 79 69q45 42 64 83q7 24 10.5 28t16.5 4h65q8 0 8 -10q0 -12 -10 -22q-45 -85 -53 -101q-29 -58 -45 -106l2 -2q5 1 10.5 3.5t14.5 8.5q54 36 114 94l103 103q14 13 28 27q7 5 31 5h16z
M298 443q22 22 50.5 57t47.5 63q8 14 43 14q13 0 22.5 -4.5t9.5 -13.5q-41 -36 -71 -66q-19 -19 -55 -58q-24 0 -35.5 1.5t-11.5 6.5z" />
    <glyph glyph-name="ucircumflex" unicode="&#xfb;" 
d="M438 350q39 0 39 -10l-2 -8l-110 -232q4 -5 8 -6l25 8q36 21 67 46q11 9 27 24l4 2q4 0 7 -11t3 -26q0 -35 -29 -61q-11 -10 -61 -39q-82 -43 -111 -43q-52 0 -55 37q10 61 41 114l-4 3q-41 -40 -91 -76q-59 -43 -114 -68q-20 -8 -43 -8q-19 0 -30 8.5t-11 28.5
q0 11 7 35t20 47l-2 2l-41 -35q-1 2 -1 4q-4 14 -4 33q0 14 0.5 27t6.5 20q39 34 79 69q45 42 64 83q7 24 10.5 28t16.5 4h65q8 0 8 -10q0 -12 -10 -22q-45 -85 -53 -101q-29 -58 -45 -106l2 -2q5 1 10.5 3.5t14.5 8.5q54 36 114 94l103 103q14 13 28 27q7 5 31 5h16z
M229 443q22 22 50.5 57t47.5 63q8 14 43 14q13 0 22.5 -4.5t9.5 -13.5q-41 -36 -71 -66q-19 -19 -55 -58q-24 0 -35.5 1.5t-11.5 6.5zM395 442q22 22 50.5 57t47.5 63q8 14 43 14q13 0 22.5 -4.5t9.5 -13.5q-41 -36 -71 -66q-19 -19 -55 -58q-24 0 -35.5 1.5t-11.5 6.5z" />
    <glyph glyph-name="udieresis" unicode="&#xfc;" 
d="M438 350q39 0 39 -10l-2 -8l-110 -232q4 -5 8 -6l25 8q36 21 67 46q11 9 27 24l4 2q4 0 7 -11t3 -26q0 -35 -29 -61q-11 -10 -61 -39q-82 -43 -111 -43q-52 0 -55 37q10 61 41 114l-4 3q-41 -40 -91 -76q-59 -43 -114 -68q-20 -8 -43 -8q-19 0 -30 8.5t-11 28.5
q0 11 7 35t20 47l-2 2l-41 -35q-1 2 -1 4q-4 14 -4 33q0 14 0.5 27t6.5 20q39 34 79 69q45 42 64 83q7 24 10.5 28t16.5 4h65q8 0 8 -10q0 -12 -10 -22q-45 -85 -53 -101q-29 -58 -45 -106l2 -2q5 1 10.5 3.5t14.5 8.5q54 36 114 94l103 103q14 13 28 27q7 5 31 5h16z
M255 505q6 21 22 35t34 14q30 0 30 -46q-5 -18 -20.5 -32.5t-33.5 -14.5q-32 0 -32 44zM393 505q6 21 22 35t34 14q30 0 30 -46q-5 -18 -20.5 -32.5t-33.5 -14.5q-32 0 -32 44z" />
    <glyph glyph-name="yacute" unicode="&#xfd;" horiz-adv-x="463" 
d="M225 350l-106 -229l2 -4l139 121l113 112h74q-33 -77 -51 -118q-47 -107 -72 -160q22 14 55 40l80 64q4 0 8 -14.5t4 -30.5q0 -23 -9 -35q-5 -7 -17 -14l-116 -94q-65 -54 -79 -78q-15 -22 -41 -81.5t-38 -80t-28 -31t-32 -10.5q-21 0 -32 15.5t-11 37.5q1 5 2.5 9
t1.5 12q9 35 36 79q40 60 81 120q17 29 43.5 91t38.5 81l-3 2q-65 -54 -118 -96q-59 -47 -86 -56q-5 -2 -17.5 -4t-15.5 -2q-18 0 -25 7t-8 20q0 20 12 50q8 20 17 40l-4 4l-15 -15q-17 -16 -24 -16t-7 19v24q1 11 1.5 21.5t5.5 17.5q36 31 71.5 64.5t55.5 58.5l26 59h88z
M277 443q22 22 50.5 57t47.5 63q8 14 43 14q13 0 22.5 -4.5t9.5 -13.5q-41 -36 -71 -66q-19 -19 -55 -58q-24 0 -35.5 1.5t-11.5 6.5z" />
    <glyph glyph-name="thorn" unicode="&#xfe;" horiz-adv-x="277" 
d="M193 486q15 63 32.5 105t36.5 65q7 11 22 23t27 12q23 -4 23 -41q0 -35 -19 -79.5t-36 -84.5h47q12 0 12 -27q0 -16 -7.5 -29.5t-19.5 -13.5h-55q-13 -30 -53 -117q-60 -128 -74 -203q0 -11 10 -14q31 8 68 38q30 26 61 52q10 0 12.5 -13t2.5 -22q-1 -7 -2 -19.5
t-11 -25.5q-17 -19 -76 -54q-67 -40 -100 -44q-35 0 -52 11.5t-19 29.5q13 36 19 54q12 35 15 56l-71 -61q-5 0 -8 10.5t-3 24.5q0 16 3 31t8 18q14 9 72 69q62 64 71 85q3 7 17.5 45.5t17.5 48.5h-57q-2 3 -3 5q-5 9 -6 15q2 21 9.5 35.5t21.5 14.5h64zM8 -208q6 28 24 89
q6 20 17 56q3 6 7 11t13 6h37q4 0 12 -6q4 -3 4 -9l-2 -10l-79 -143z" />
    <glyph glyph-name="ydieresis" unicode="&#xff;" horiz-adv-x="342" 
d="M223 410q-21 0 -32 13t-13 32q11 33 20 45q16 21 46 21q20 0 31.5 -14t11.5 -36q0 -26 -17.5 -43.5t-46.5 -17.5z" />
    <glyph glyph-name="Abreve" unicode="&#x102;" horiz-adv-x="648" 
d="M141 301q74 119 135 194q78 95 155 146q88 58 176 58q39 0 56 -19t17 -53q0 -38 -20 -98q-14 -39 -27 -78l-80 -267q-7 -28 -14.5 -49.5t-7.5 -25.5q2 -8 6 -26t4 -26q0 -21 -10 -34q-13 -17 -45 -21q-24 0 -40 14.5t-16 44.5l2 20q0 67 -89 107q-73 33 -150 33
q-34 -50 -64 -116q-21 -46 -33 -85q-1 -11 -17.5 -15.5t-43.5 -4.5q-12 1 -21.5 1.5t-15.5 0.5h-10q4 13 55 121q32 66 43 90l-70 -10q-8 0 -10 10q5 23 11 46q10 28 30 32q41 4 65 5.5t29 4.5zM463 201q18 81 52 193q21 68 42 137q6 20 11.5 39.5t5.5 29.5q0 13 -11 13
q-5 0 -14.5 -4t-30.5 -15q-61 -35 -153 -142q-42 -48 -119 -149q52 -7 113.5 -31t103.5 -71zM579 826q0 -23 22.5 -34.5t59.5 -11.5q17 0 31.5 5.5t24.5 14.5q20 22 40 45q16 16 41 16q9 -6 9 -18q0 -13 -8 -23q-38 -50 -71.5 -71t-78.5 -21q-123 0 -123 107q0 8 9.5 17.5
t20.5 9.5q10 0 16.5 -8t6.5 -28z" />
    <glyph glyph-name="abreve" unicode="&#x103;" horiz-adv-x="426" 
d="M289 88q14 0 50.5 24t74.5 58q1 1 6 2q10 0 10 -35q0 -33 -23 -57q-3 -3 -93 -60q-17 -10 -36.5 -17t-39.5 -7q-21 0 -29.5 8t-11.5 31l2 10q-30 -29 -37 -33q-29 -18 -74 -18q-54 0 -80 42q-22 35 -22 91q0 101 89 167.5t204 66.5q31 0 51.5 -1.5t23.5 -5t4.5 -20
t2.5 -25.5v-22q0 -10 -6 -10q-15 7 -34.5 12.5t-37.5 5.5q-54 0 -116 -37q-70 -42 -81 -94l-8 -51q0 -18 7 -26.5t19 -10.5q50 5 97 64q20 24 65 102q5 -2 18.5 -4t16.5 -2h51q-32 -67 -43 -92q-20 -43 -20 -56zM225 532q0 -23 22.5 -34.5t59.5 -11.5q17 0 31.5 5.5
t24.5 14.5q20 22 40 45q16 16 41 16q9 -6 9 -18q0 -13 -8 -23q-38 -50 -71.5 -71t-78.5 -21q-123 0 -123 107q0 8 9.5 17.5t20.5 9.5q10 0 16.5 -8t6.5 -28z" />
    <glyph glyph-name="Aogonek" unicode="&#x104;" horiz-adv-x="648" 
d="M452 13q-22 15 -22 48l2 20q0 67 -89 107q-73 33 -150 33q-34 -50 -64 -116q-21 -46 -33 -85q-1 -11 -17.5 -15.5t-43.5 -4.5q-12 1 -21.5 1.5t-15.5 0.5h-10q4 13 55 121q32 66 43 90l-70 -10q-8 0 -10 10q5 23 11 46q10 28 30 32q41 4 65 5.5t29 4.5q74 119 135 194
q78 95 155 146q88 58 176 58q39 0 56 -19t17 -53q0 -38 -20 -98q-14 -39 -27 -78l-80 -267q-7 -28 -14.5 -49.5t-7.5 -25.5q2 -8 6 -26t4 -26q0 -19 -10.5 -33.5t-36.5 -20.5q-43 -47 -57 -73t-14 -53q0 -36 47 -36q8 0 19.5 4t15 6.5t8.5 3.5q15 0 15 -18q0 -9 -7 -14.5
t-32 -14t-37 -8.5q-47 0 -74 21t-27 56q0 53 43 92q16 14 58 44zM463 201q18 81 52 193q21 68 42 137q6 20 11.5 39.5t5.5 29.5q0 13 -11 13q-5 0 -14.5 -4t-30.5 -15q-61 -35 -153 -142q-42 -48 -119 -149q52 -7 113.5 -31t103.5 -71z" />
    <glyph glyph-name="aogonek" unicode="&#x105;" horiz-adv-x="426" 
d="M219 -2q-18 7 -22 37l2 10q-30 -29 -37 -33q-29 -18 -74 -18q-54 0 -80 42q-22 35 -22 91q0 101 89 167.5t204 66.5q31 0 51.5 -1.5t23.5 -5t4.5 -20t2.5 -25.5v-22q0 -10 -6 -10q-15 7 -34.5 12.5t-37.5 5.5q-54 0 -116 -37q-70 -42 -81 -94l-8 -51q0 -18 7 -26.5
t19 -10.5q50 5 97 64q20 24 65 102q5 -2 18.5 -4t16.5 -2h51q-32 -67 -43 -92q-20 -43 -20 -56q14 0 50.5 24t74.5 58q1 1 6 2q10 0 10 -35q0 -33 -23 -57q-3 -3 -93 -60q-14 -8 -23 -12t-24 -8q-39 -42 -54 -69.5t-15 -53.5q0 -36 47 -36q8 0 19.5 4t15 6.5t8.5 3.5
q15 0 15 -18q0 -9 -7 -14.5t-32 -14t-37 -8.5q-47 0 -74 21t-27 56q0 45 28 76q20 22 65 45z" />
    <glyph glyph-name="Cacute" unicode="&#x106;" horiz-adv-x="557" 
d="M410 199q12 0 41.5 -14t32.5 -27q-22 -70 -99 -118t-166 -48q-63 0 -113.5 26.5t-76 71.5t-25.5 101q0 59 24.5 125t63.5 125q68 103 157 173q108 85 208 85q69 0 107 -37t38 -107q-7 -83 -97 -172q-81 -80 -167 -108l-39 -9q-13 0 -16 17q2 12 3 17.5t1 10.5q8 38 27 55
q29 18 49 30q60 37 87 64q39 39 54 93l2 12q0 42 -61 42q-18 0 -37 -5t-45 -18q-81 -43 -155 -140q-55 -72 -87 -147q-8 -21 -13.5 -45.5t-5.5 -46.5q0 -46 22.5 -79t70.5 -40l32 -3q62 0 117 42q42 32 66 74zM430 737q22 22 50.5 57t47.5 63q8 14 43 14q13 0 22.5 -4.5
t9.5 -13.5q-41 -36 -71 -66q-19 -19 -55 -58q-24 0 -35.5 1.5t-11.5 6.5z" />
    <glyph glyph-name="cacute" unicode="&#x107;" horiz-adv-x="352" 
d="M344 172q8 0 9.5 -11.5t1.5 -25.5q0 -33 -26 -57q-5 -4 -56 -39q-26 -17 -66.5 -31t-83.5 -14q-51 0 -83 17q-39 21 -46 67l-2 47q0 81 45 141t125 84q19 4 40 7.5t36 3.5q35 0 59 -10q35 -14 35 -44q0 -25 -11.5 -56.5t-19.5 -37.5h-71q-15 0 -17 2q13 25 14 27
q7 16 7 31q0 14 -4 19t-17 5q-51 0 -89 -48.5t-38 -100.5q0 -46 17 -65q12 -13 34 -15l17 2q41 0 100 37q22 14 90 65zM220 443q22 22 50.5 57t47.5 63q8 14 43 14q13 0 22.5 -4.5t9.5 -13.5q-41 -36 -71 -66q-19 -19 -55 -58q-24 0 -35.5 1.5t-11.5 6.5z" />
    <glyph glyph-name="Ccaron" unicode="&#x10c;" horiz-adv-x="557" 
d="M410 199q12 0 41.5 -14t32.5 -27q-22 -70 -99 -118t-166 -48q-63 0 -113.5 26.5t-76 71.5t-25.5 101q0 59 24.5 125t63.5 125q68 103 157 173q108 85 208 85q69 0 107 -37t38 -107q-7 -83 -97 -172q-81 -80 -167 -108l-39 -9q-13 0 -16 17q2 12 3 17.5t1 10.5q8 38 27 55
q29 18 49 30q60 37 87 64q39 39 54 93l2 12q0 42 -61 42q-18 0 -37 -5t-45 -18q-81 -43 -155 -140q-55 -72 -87 -147q-8 -21 -13.5 -45.5t-5.5 -46.5q0 -46 22.5 -79t70.5 -40l32 -3q62 0 117 42q42 32 66 74zM456 833q3 -20 16.5 -27.5t39.5 -7.5q7 0 19.5 5t24.5 10
q26 10 65 39q30 22 54 22q12 -3 12 -17q0 -15 -7 -24q-41 -47 -93.5 -75.5t-97.5 -28.5q-41 0 -62.5 24.5t-21.5 79.5q0 10 9.5 21.5t20.5 11.5q15 0 21 -33z" />
    <glyph glyph-name="ccaron" unicode="&#x10d;" horiz-adv-x="352" 
d="M344 172q8 0 9.5 -11.5t1.5 -25.5q0 -33 -26 -57q-5 -4 -56 -39q-26 -17 -66.5 -31t-83.5 -14q-51 0 -83 17q-39 21 -46 67l-2 47q0 81 45 141t125 84q19 4 40 7.5t36 3.5q35 0 59 -10q35 -14 35 -44q0 -25 -11.5 -56.5t-19.5 -37.5h-71q-15 0 -17 2q13 25 14 27
q7 16 7 31q0 14 -4 19t-17 5q-51 0 -89 -48.5t-38 -100.5q0 -46 17 -65q12 -13 34 -15l17 2q41 0 100 37q22 14 90 65zM216 539q3 -20 16.5 -27.5t39.5 -7.5q7 0 19.5 5t24.5 10q26 10 65 39q30 22 54 22q12 -3 12 -17q0 -15 -7 -24q-41 -47 -93.5 -75.5t-97.5 -28.5
q-41 0 -62.5 24.5t-21.5 79.5q0 10 9.5 21.5t20.5 11.5q15 0 21 -33z" />
    <glyph glyph-name="Dcaron" unicode="&#x10e;" horiz-adv-x="797" 
d="M469 488q-25 24 -45 39q-62 47 -141 78q-18 6 -33 6q-20 0 -23 -23q11 -44 52 -84q53 -44 78 -66v-8q0 -17 -10 -37t-29 -28q-19 0 -83 58q-69 62 -87 106q-16 43 -19 76q0 50 39 75q30 19 74 19q90 0 193 -65q34 -21 86 -66q3 4 22 29q13 18 16 18q15 -6 33 -19t33 -32
q-1 -7 -19 -35q-9 -14 -10 -21l2 -4l92 -118q39 -63 44 -115l3 -48q0 -70 -27 -118q-33 -58 -108 -89q-45 -16 -131 -16q-82 0 -171 9q-16 1 -40 5q-38 -7 -69 -10.5t-56 -3.5q-52 0 -79 8q-48 14 -52 51q0 34 34 49q26 11 66 11q35 0 74 -5t84 -10q16 2 17 3q37 28 110 173
t80 208zM545 414q-43 -117 -82 -194t-82 -128l74 -6q73 0 124 28q64 35 64 103q0 57 -40 124q-30 50 -58 73zM453 833q3 -20 16.5 -27.5t39.5 -7.5q7 0 19.5 5t24.5 10q26 10 65 39q30 22 54 22q12 -3 12 -17q0 -15 -7 -24q-41 -47 -93.5 -75.5t-97.5 -28.5
q-41 0 -62.5 24.5t-21.5 79.5q0 10 9.5 21.5t20.5 11.5q15 0 21 -33z" />
    <glyph glyph-name="dcaron" unicode="&#x10f;" horiz-adv-x="463" 
d="M301 246q50 65 93 178.5t53 206.5l-2 2q-48 -78 -87 -181.5t-59 -203.5zM227 281q0 6 -16 6q-39 0 -82 -34q-55 -44 -55 -115l2 -25q4 -36 35 -39l22 6q26 12 46 27t20 26q0 35 11 84q6 27 17 64zM248 352q21 80 55 156q39 88 88 152q26 35 44 50t32 15q20 0 30.5 -20.5
t10.5 -50.5l2 -36q0 -117 -60.5 -254.5t-158.5 -248.5q-7 -10 -10 -23q0 -14 26 -18q38 10 95 55q25 20 51 41q6 0 10 -13.5t4 -29.5v-14q-7 -31 -85 -76q-73 -41 -107 -45h-15q-20 0 -34 9.5t-27 37.5q-28 -23 -56.5 -33t-64.5 -10q-37 0 -58.5 17.5t-27.5 50.5
q-6 42 -6 73q0 90 62.5 153.5t152.5 63.5h23t24 -2zM642 716q2 -3 4.5 -7.5t2.5 -8.5l-3 -9q-9 -12 -42 -64q-25 -40 -29 -40l-25 7q-4 1 -4 10q0 18 14 61q4 14 15 41q7 10 8 11q5 5 16 7q27 0 43 -8z" />
    <glyph glyph-name="Eth" unicode="&#x110;" horiz-adv-x="797" 
d="M271 258h106q36 69 62.5 133t29.5 97q-25 24 -45 39q-62 47 -141 78q-18 6 -33 6q-20 0 -23 -23q11 -44 52 -84q53 -44 78 -66v-8q0 -17 -10 -37t-29 -28q-19 0 -83 58q-69 62 -87 106q-16 43 -19 76q0 50 39 75q30 19 74 19q90 0 193 -65q34 -21 86 -66q3 4 22 29
q13 18 16 18q15 -6 33 -19t33 -32q-1 -7 -19 -35q-9 -14 -10 -21l2 -4l92 -118q39 -63 44 -115l3 -48q0 -70 -27 -118q-33 -58 -108 -89q-45 -16 -131 -16q-82 0 -171 9q-16 1 -40 5q-38 -7 -69 -10.5t-56 -3.5q-52 0 -79 8q-48 14 -52 51q0 34 34 49q26 11 66 11
q35 0 74 -5t84 -10q25 4 46 35q14 23 20 33h-98q-11 0 -13 4l4 6l35 66q5 10 10 10h5zM586 258q8 0 8 -6v-6l-31 -62q-9 -12 -18 -12h-107q-13 -22 -28 -43q-11 -15 -29 -37l74 -6q73 0 124 28q64 35 64 103q0 57 -40 124q-30 50 -58 73q-23 -58 -33 -84q-20 -50 -30 -72
h104z" />
    <glyph glyph-name="dcroat" unicode="&#x111;" horiz-adv-x="463" 
d="M403 451h-44q-40 -105 -60 -203l2 -2q27 35 54 89t48 116zM429 537q13 49 18 94l-2 2q-22 -36 -51 -96h35zM227 281q0 6 -16 6q-39 0 -82 -34q-55 -44 -55 -115l2 -25q4 -36 35 -39l22 6q26 12 46 27t20 26q0 35 11 84q6 27 17 64zM503 537h56q8 0 8 -6v-6l-31 -62
q-9 -12 -18 -12h-36q-27 -88 -76 -174.5t-115 -161.5q-7 -10 -10 -23q0 -14 26 -18q38 10 95 55q25 20 51 41q6 0 10 -13.5t4 -29.5v-14q-7 -31 -85 -76q-73 -41 -107 -45h-15q-20 0 -34 9.5t-27 37.5q-28 -23 -56.5 -33t-64.5 -10q-37 0 -58.5 17.5t-27.5 50.5q-6 42 -6 73
q0 90 62.5 153.5t152.5 63.5h23t24 -2q12 46 32 99h-77q-11 0 -13 4l4 6l35 66q5 10 10 10h5h73q33 68 74 123q26 35 44 50t32 15q20 0 30.5 -20.5t10.5 -50.5l2 -36q0 -42 -7 -81z" />
    <glyph glyph-name="Eogonek" unicode="&#x118;" horiz-adv-x="519" 
d="M89 -6q-57 5 -89 37q-23 22 -29 51l-2 27q0 68 45 118q49 40 99 80v6q-16 24 -23.5 46t-7.5 47q0 117 98 205t218 88q65 0 93 -21q23 -18 23 -51q0 -39 -28 -82q-13 -20 -54 -68q-2 -3 -31 -48q-20 -32 -36 -40q-20 6 -40 22q-24 19 -28 38q6 12 8 15.5t77 92.5
q28 33 28 45q-5 3 -8 4q-12 5 -23 5q-23 0 -49.5 -10.5t-52.5 -34.5q-43 -34 -66.5 -75t-30.5 -95q0 -33 21 -65q2 -3 28 -36l3 -10q0 -16 -83 -68t-83 -92q11 -45 61 -45q56 0 120 35q72 40 120 110q2 4 16 4h49q21 0 26 -4t5 -10q-33 -83 -113 -146q-94 -74 -205 -74
q-40 -40 -54 -65t-14 -52q0 -36 47 -36q8 0 19.5 4t15 6.5t8.5 3.5q15 0 15 -18q0 -9 -7 -14.5t-32 -14t-37 -8.5q-47 0 -74 21t-27 56q0 42 25 72q19 23 59 44z" />
    <glyph glyph-name="eogonek" unicode="&#x119;" horiz-adv-x="352" 
d="M84 178q58 7 103 33.5t45 52.5q0 11 -9 19t-20 8q-31 0 -70 -36.5t-49 -76.5zM95 -3q-17 3 -22.5 4t-15.5 5q-35 11 -51 43.5t-16 77.5q0 95 73.5 165.5t170.5 70.5q43 0 67.5 -19.5t24.5 -60.5q0 -52 -47 -95q-37 -33 -95 -55q-28 -12 -57 -15t-34 -6t-9 -12
q0 -12 20.5 -22t45.5 -10q71 23 103 39q52 25 93 65q9 0 9 -35q0 -16 -2 -28t-7 -17q-31 -31 -78 -56q-60 -32 -119 -38q-41 -41 -56 -67.5t-15 -52.5q0 -36 47 -36q8 0 19.5 4t15 6.5t8.5 3.5q15 0 15 -18q0 -9 -7 -14.5t-32 -14t-37 -8.5q-47 0 -74 21t-27 56q0 43 27 74
q20 23 62 45z" />
    <glyph glyph-name="Ecaron" unicode="&#x11a;" horiz-adv-x="520" 
d="M113 313q-16 24 -23.5 46t-7.5 47q0 117 98 205t218 88q65 0 93 -21q23 -18 23 -51q0 -39 -28 -82q-13 -20 -54 -68q-2 -3 -31 -48q-20 -32 -36 -40q-20 6 -40 22q-24 19 -28 38q6 12 8 15.5t77 92.5q28 33 28 45q-5 3 -8 4q-12 5 -23 5q-23 0 -49.5 -10.5t-52.5 -34.5
q-43 -34 -66.5 -75t-30.5 -95q0 -33 21 -65q2 -3 28 -36l3 -10q0 -16 -83 -68t-83 -92q11 -45 61 -45q56 0 120 35q72 40 120 110q2 4 16 4h49q21 0 26 -4t5 -10q-33 -83 -117 -147q-98 -74 -211 -74l-24 -1q-69 0 -107 33q-26 23 -33 56l-2 27q0 68 45 118q49 40 99 80v6z
M366 833q3 -20 16.5 -27.5t39.5 -7.5q7 0 19.5 5t24.5 10q26 10 65 39q30 22 54 22q12 -3 12 -17q0 -15 -7 -24q-41 -47 -93.5 -75.5t-97.5 -28.5q-41 0 -62.5 24.5t-21.5 79.5q0 10 9.5 21.5t20.5 11.5q15 0 21 -33z" />
    <glyph glyph-name="ecaron" unicode="&#x11b;" horiz-adv-x="352" 
d="M84 178q58 7 103 33.5t45 52.5q0 11 -9 19t-20 8q-31 0 -70 -36.5t-49 -76.5zM346 172q9 0 9 -35q0 -16 -2 -28t-7 -17q-36 -36 -89 -62q-69 -34 -134 -34q-18 0 -35 2t-31 8q-35 11 -51 43.5t-16 77.5q0 95 73.5 165.5t170.5 70.5q43 0 67.5 -19.5t24.5 -60.5
q0 -52 -47 -95q-37 -33 -95 -55q-28 -12 -57 -15t-34 -6t-9 -12q0 -12 20.5 -22t45.5 -10q71 23 103 39q52 25 93 65zM195 539q3 -20 16.5 -27.5t39.5 -7.5q7 0 19.5 5t24.5 10q26 10 65 39q30 22 54 22q12 -3 12 -17q0 -15 -7 -24q-41 -47 -93.5 -75.5t-97.5 -28.5
q-41 0 -62.5 24.5t-21.5 79.5q0 10 9.5 21.5t20.5 11.5q15 0 21 -33z" />
    <glyph glyph-name="Lacute" unicode="&#x139;" horiz-adv-x="611" 
d="M137 105q28 24 65 94q43 81 79 194q45 140 106 215q72 89 168 89q49 -4 72 -31.5t23 -73.5q0 -51 -29 -124q-25 -63 -72 -140q-4 -6 -24.5 -9.5t-35.5 -5.5t-30.5 -6t-24.5 -6q-8 3 -8 8q28 49 57 100q60 105 70 152l2 14q0 29 -28 29q-17 0 -39.5 -18.5t-42.5 -54.5
q-34 -65 -75 -169q-48 -124 -61 -153q-35 -80 -67 -119q13 -2 39 -5t43 -3q61 0 119 7.5t112 19.5q-6 -31 -11 -62q-9 -34 -26 -37q-72 -10 -182 -10q-71 0 -119.5 4.5t-70.5 13.5q-58 -22 -103 -22q-44 0 -70 17t-26 44q0 30 30.5 43t77.5 13q26 0 43 -2t39 -6zM520 737
q22 22 50.5 57t47.5 63q8 14 43 14q13 0 22.5 -4.5t9.5 -13.5q-41 -36 -71 -66q-19 -19 -55 -58q-24 0 -35.5 1.5t-11.5 6.5z" />
    <glyph glyph-name="lacute" unicode="&#x13a;" horiz-adv-x="260" 
d="M100 281q27 82 52 155q33 96 94 255q11 34 43 34q30 0 33 -30q0 -45 -17.5 -111t-40.5 -115q-27 -60 -54 -121.5t-48 -120.5q-26 -70 -39 -125q0 -7 10 -10l12 4q25 15 65 47q27 22 42 33q12 0 12 -37q0 -52 -61 -90q-34 -22 -107 -47q-15 -6 -32 -6q-19 0 -31.5 12
t-14.5 29l2 10q2 16 8.5 37t14.5 43l-2 4q-29 -23 -57 -45q-3 0 -5 9.5t-2 21.5q0 45 53 93q37 34 48 50q14 10 22 21zM274 746q22 22 50.5 57t47.5 63q8 14 43 14q13 0 22.5 -4.5t9.5 -13.5q-41 -36 -71 -66q-19 -19 -55 -58q-24 0 -35.5 1.5t-11.5 6.5z" />
    <glyph glyph-name="Lcaron" unicode="&#x13d;" horiz-adv-x="611" 
d="M137 105q28 24 65 94q43 81 79 194q45 140 106 215q72 89 168 89q49 -4 72 -31.5t23 -73.5q0 -51 -29 -124q-25 -63 -72 -140q-4 -6 -24.5 -9.5t-35.5 -5.5t-30.5 -6t-24.5 -6q-8 3 -8 8q28 49 57 100q60 105 70 152l2 14q0 29 -28 29q-17 0 -39.5 -18.5t-42.5 -54.5
q-34 -65 -75 -169q-48 -124 -61 -153q-35 -80 -67 -119q13 -2 39 -5t43 -3q61 0 119 7.5t112 19.5q-6 -31 -11 -62q-9 -34 -26 -37q-72 -10 -182 -10q-71 0 -119.5 4.5t-70.5 13.5q-58 -22 -103 -22q-44 0 -70 17t-26 44q0 30 30.5 43t77.5 13q26 0 43 -2t39 -6zM543 833
q3 -20 16.5 -27.5t39.5 -7.5q7 0 19.5 5t24.5 10q26 10 65 39q30 22 54 22q12 -3 12 -17q0 -15 -7 -24q-41 -47 -93.5 -75.5t-97.5 -28.5q-41 0 -62.5 24.5t-21.5 79.5q0 10 9.5 21.5t20.5 11.5q15 0 21 -33z" />
    <glyph glyph-name="lcaron" unicode="&#x13e;" horiz-adv-x="260" 
d="M100 281q27 82 52 155q33 96 94 255q11 34 43 34q30 0 33 -30q0 -45 -17.5 -111t-40.5 -115q-27 -60 -54 -121.5t-48 -120.5q-26 -70 -39 -125q0 -7 10 -10l12 4q25 15 65 47q27 22 42 33q12 0 12 -37q0 -52 -61 -90q-34 -22 -107 -47q-15 -6 -32 -6q-19 0 -31.5 12
t-14.5 29l2 10q2 16 8.5 37t14.5 43l-2 4q-29 -23 -57 -45q-3 0 -5 9.5t-2 21.5q0 45 53 93q37 34 48 50q14 10 22 21zM434 717q2 -3 4.5 -8t2.5 -9l-3 -9q-11 -15 -42 -64q-25 -40 -29 -40l-25 7q-4 1 -4 10q0 18 14 61q4 14 15 41q5 7 6 9q5 7 18 9q14 0 24.5 -2t18.5 -5z
" />
    <glyph glyph-name="Lslash" unicode="&#x141;" horiz-adv-x="611" 
d="M325 246q22 0 56 -3t45 -3q21 0 28 3q7 -5 7 -14l-4 -23q-1 -6 -4.5 -11.5t-7.5 -10.5q-7 -11 -21 -11q-9 -2 -15 -3t-19 -1q-34 0 -94 9q-25 -52 -54 -88q13 -2 39 -5t43 -3q61 0 119 7.5t112 19.5q-6 -31 -11 -62q-9 -34 -26 -37q-72 -10 -182 -10q-71 0 -119.5 4.5
t-70.5 13.5q-58 -22 -103 -22q-44 0 -70 17t-26 44q0 30 30.5 43t77.5 13q26 0 43 -2t39 -6q27 24 63 90l-83 17l-17 6q-9 3 -13.5 3.5t-4.5 4.5l2 6q2 5 16 15t16 12q7 8 19.5 12t22.5 4q7 0 11.5 -1t10.5 -2l52 -9q14 33 29 73.5t20 56.5q45 140 106 215q72 89 168 89
q49 -4 72 -31.5t23 -73.5q0 -51 -29 -124q-25 -63 -72 -140q-4 -6 -24.5 -9.5t-35.5 -5.5t-30.5 -6t-24.5 -6q-8 3 -8 8q28 49 57 100q60 105 70 152l2 14q0 29 -28 29q-17 0 -39.5 -18.5t-42.5 -54.5q-30 -57 -66 -147z" />
    <glyph glyph-name="lslash" unicode="&#x142;" horiz-adv-x="260" 
d="M322 692q0 -45 -17.5 -109.5t-40.5 -113.5q-27 -60 -54 -121.5t-48 -120.5q-26 -70 -39 -125q0 -7 10 -10l12 4q25 15 65 47q27 22 42 33q12 0 12 -37q0 -52 -61 -90q-34 -22 -107 -47q-15 -6 -32 -6q-19 0 -31.5 12t-14.5 29l2 10q2 16 8.5 37t14.5 43l-2 4
q-29 -23 -57 -45q-3 0 -5 9.5t-2 21.5q0 45 53 93q37 34 48 50q14 10 22 21q29 92 70 205q30 83 75 202l-77 -7l-22 -2q-9 0 -15 3t-14 14q0 6 -4 14l-4 16q0 9 5 11.5t6.5 3.5t2.5 2q155 18 231 18q58 0 78 -9q14 0 20 -13q10 -20 10 -23l2 -21q0 -11 -9 -15
q-28 12 -133 12z" />
    <glyph glyph-name="Nacute" unicode="&#x143;" horiz-adv-x="611" 
d="M-47 -18q48 51 119 186q56 105 126 260q21 47 97 220q8 23 27.5 36t40.5 13q26 0 42.5 -18.5t16.5 -55.5v-420q13 26 76 213q22 67 65.5 141t59.5 74q2 0 3.5 -1.5l2.5 -2.5q7 -22 12 -48t7 -50q0 -10 -17 -38q-28 -46 -47.5 -93t-46.5 -123t-45 -126q-27 -73 -41 -100
q-8 -21 -26.5 -35t-39.5 -14q-22 0 -35.5 18t-13.5 56v469q-43 -114 -97.5 -235.5t-93 -197t-55.5 -98.5q-9 -12 -15.5 -21t-15.5 -9h-106zM472 737q22 22 50.5 57t47.5 63q8 14 43 14q13 0 22.5 -4.5t9.5 -13.5q-41 -36 -71 -66q-19 -19 -55 -58q-24 0 -35.5 1.5t-11.5 6.5
z" />
    <glyph glyph-name="nacute" unicode="&#x144;" 
d="M121 313q8 18 11 25q7 14 13 14h84q-2 -7 -35 -78q-10 -23 -32 -69l-2 -2l2 -2q15 5 27 18q42 31 94 69q71 51 88 60q21 7 39 7q17 0 31 -3.5t14 -27.5q0 -13 -5 -29t-22 -53l-36 -72q-23 -47 -33 -74q4 -5 8 -6q16 4 31 14q39 26 66 46q12 9 30 24q6 0 10 -7.5t4 -31.5
q0 -37 -26 -57l-98 -58q-49 -24 -79 -24q-54 0 -57 35q3 22 13 48t33 74q7 16 22 44q4 8 4 18q-2 4 -4 4q-4 0 -12 -6q-2 -1 -31 -25q-71 -60 -124 -105q-65 -55 -94 -77q-13 -10 -30 -10q-29 0 -29 33l2 18l27 70q-13 -12 -19 -17q-21 -18 -26 -18q-1 10 -1.5 18.5
t-1.5 20.5q0 26 2.5 35.5t14.5 19.5q33 22 77 71t50 66zM298 443q22 22 50.5 57t47.5 63q8 14 43 14q13 0 22.5 -4.5t9.5 -13.5q-41 -36 -71 -66q-19 -19 -55 -58q-24 0 -35.5 1.5t-11.5 6.5z" />
    <glyph glyph-name="Ncaron" unicode="&#x147;" horiz-adv-x="611" 
d="M-47 -18q48 51 119 186q56 105 126 260q21 47 97 220q8 23 27.5 36t40.5 13q26 0 42.5 -18.5t16.5 -55.5v-420q13 26 76 213q22 67 65.5 141t59.5 74q2 0 3.5 -1.5l2.5 -2.5q7 -22 12 -48t7 -50q0 -10 -17 -38q-28 -46 -47.5 -93t-46.5 -123t-45 -126q-27 -73 -41 -100
q-8 -21 -26.5 -35t-39.5 -14q-22 0 -35.5 18t-13.5 56v469q-43 -114 -97.5 -235.5t-93 -197t-55.5 -98.5q-9 -12 -15.5 -21t-15.5 -9h-106zM465 833q3 -20 16.5 -27.5t39.5 -7.5q7 0 19.5 5t24.5 10q26 10 65 39q30 22 54 22q12 -3 12 -17q0 -15 -7 -24q-41 -47 -93.5 -75.5
t-97.5 -28.5q-41 0 -62.5 24.5t-21.5 79.5q0 10 9.5 21.5t20.5 11.5q15 0 21 -33z" />
    <glyph glyph-name="ncaron" unicode="&#x148;" 
d="M121 313q8 18 11 25q7 14 13 14h84q-2 -7 -35 -78q-10 -23 -32 -69l-2 -2l2 -2q15 5 27 18q42 31 94 69q71 51 88 60q21 7 39 7q17 0 31 -3.5t14 -27.5q0 -13 -5 -29t-22 -53l-36 -72q-23 -47 -33 -74q4 -5 8 -6q16 4 31 14q39 26 66 46q12 9 30 24q6 0 10 -7.5t4 -31.5
q0 -37 -26 -57l-98 -58q-49 -24 -79 -24q-54 0 -57 35q3 22 13 48t33 74q7 16 22 44q4 8 4 18q-2 4 -4 4q-4 0 -12 -6q-2 -1 -31 -25q-71 -60 -124 -105q-65 -55 -94 -77q-13 -10 -30 -10q-29 0 -29 33l2 18l27 70q-13 -12 -19 -17q-21 -18 -26 -18q-1 10 -1.5 18.5
t-1.5 20.5q0 26 2.5 35.5t14.5 19.5q33 22 77 71t50 66zM288 539q3 -20 16.5 -27.5t39.5 -7.5q7 0 19.5 5t24.5 10q26 10 65 39q30 22 54 22q12 -3 12 -17q0 -15 -7 -24q-41 -47 -93.5 -75.5t-97.5 -28.5q-41 0 -62.5 24.5t-21.5 79.5q0 10 9.5 21.5t20.5 11.5q15 0 21 -33z
" />
    <glyph glyph-name="Ohungarumlaut" unicode="&#x150;" horiz-adv-x="594" 
d="M10 217q18 193 155.5 349.5t281.5 156.5h12q20 0 34.5 -7.5t14.5 -29.5q0 -44 -33 -52q-22 -3 -28 -3q-123 -20 -233 -156t-110 -272l3 -37q4 -39 27.5 -59.5t58.5 -20.5q67 0 133 55q57 47 110.5 149t53.5 163q0 47 -39 47q-30 0 -55 -35t-39 -94q-5 -21 -41 -38
q-28 -13 -58 -17l-4 2l-3 32q0 85 70.5 161.5t147.5 76.5q57 0 87 -37t30 -96q0 -65 -28 -142.5t-68 -132.5q-63 -88 -127 -133q-75 -53 -158 -53q-89 0 -139 45q-58 52 -58 162q1 4 1.5 9t0.5 7zM352 737q22 22 50.5 57t47.5 63q8 14 43 14q13 0 22.5 -4.5t9.5 -13.5
q-41 -36 -71 -66q-19 -19 -55 -58q-24 0 -35.5 1.5t-11.5 6.5zM518 736q22 22 50.5 57t47.5 63q8 14 43 14q13 0 22.5 -4.5t9.5 -13.5q-41 -36 -71 -66q-19 -19 -55 -58q-24 0 -35.5 1.5t-11.5 6.5z" />
    <glyph glyph-name="ohungarumlaut" unicode="&#x151;" horiz-adv-x="369" 
d="M207 385q55 0 86 -35q27 -30 27 -73q0 -39 -19 -52q6 -18 6 -34q0 -13 -3 -22l-9 -21l12 -3q13 0 27.5 7.5t28.5 19.5q8 0 8 -35q0 -73 -78 -73q-6 1 -14 2.5t-13 5.5q-65 -78 -162 -78q-51 0 -79 22q-43 33 -43 118l2 36q8 75 59 137q65 78 164 78zM193 113q0 3 -7.5 19
t-7.5 30q4 12 4 18q5 25 27.5 45.5t22.5 26.5q0 18 -11.5 29.5t-31.5 11.5q-51 0 -84 -55q-29 -48 -29 -101q3 -37 20 -51q8 -3 17 -6t16 -4q17 2 34 10t30 27zM88 443q22 22 50.5 57t47.5 63q8 14 43 14q13 0 22.5 -4.5t9.5 -13.5q-41 -36 -71 -66q-19 -19 -55 -58
q-24 0 -35.5 1.5t-11.5 6.5zM254 442q22 22 50.5 57t47.5 63q8 14 43 14q13 0 22.5 -4.5t9.5 -13.5q-41 -36 -71 -66q-19 -19 -55 -58q-24 0 -35.5 1.5t-11.5 6.5z" />
    <glyph glyph-name="OE" unicode="&#x152;" horiz-adv-x="557" 
d="M-43 133q6 57 74 90q60 29 137 29q36 0 62 -6q7 -1 10.5 -10t3.5 -23q0 -21 -5.5 -36.5t-15.5 -20.5l-90 4q-29 0 -53 -8.5t-27 -30.5q2 -12 13 -20.5t32 -8.5l97 -8q20 0 32.5 1t49.5 7q58 9 89.5 31.5t31.5 52.5q0 41 -50 70l-134 70q-71 47 -71 123l3 38
q18 102 119 165q91 57 202 57q60 0 93 -28q30 -25 30 -66q0 -76 -84 -131q-65 -42 -152 -58q-17 0 -20 33q0 21 6 40t14 21q42 11 86 33q56 29 56 53q0 5 -9.5 8t-23.5 3q-77 0 -145 -37q-82 -45 -82 -115q2 -19 12 -35.5t33 -30.5q35 -22 61 -36l78 -40q35 -21 57.5 -54
t22.5 -71q0 -101 -107 -153q-84 -41 -194 -41q-99 0 -153 20q-89 33 -89 119zM457 737q22 22 50.5 57t47.5 63q8 14 43 14q13 0 22.5 -4.5t9.5 -13.5q-41 -36 -71 -66q-19 -19 -55 -58q-24 0 -35.5 1.5t-11.5 6.5z" />
    <glyph glyph-name="oe" unicode="&#x153;" horiz-adv-x="332" 
d="M202 458q22 22 50.5 57t47.5 63q8 14 43 14q13 0 22.5 -4.5t9.5 -13.5q-41 -36 -71 -66q-19 -19 -55 -58q-24 0 -35.5 1.5t-11.5 6.5zM27 205q45 43 83 88.5t50 67.5q0 32 8 43q12 17 48 17q25 0 34 -4t9 -16q-1 -8 -7 -19q-9 -17 -10 -21v-97q0 -60 -4 -87
q-7 -49 -29 -81q13 0 52 27q23 16 52 39q8 10 15 10q12 0 12 -16v-19q0 -38 -40 -73q-32 -28 -75 -43q-21 -7 -42 -11.5t-35 -5.5q-5 2 -12 2h-11q-11 0 -24 -5t-25 -5q-32 0 -51 12q-23 15 -23 45q3 19 21 19q13 0 28 -3t29 -6q38 9 55 62q13 40 13 90q0 12 -0.5 14t-2.5 3
q-5 0 -92 -87q-46 -46 -69 -63q-5 0 -5 35l1 47q2 5 27 25z" />
    <glyph glyph-name="Racute" unicode="&#x154;" horiz-adv-x="463" 
d="M20 232q34 98 68 197q41 111 94 190q24 37 62 57.5t78 20.5q73 0 112 -52q27 -38 27 -122q0 -90 -33 -165q-38 -88 -106 -114q-19 -8 -27 -11q-15 -7 -16 -16q3 -13 16 -26q33 -33 78.5 -93t54.5 -86l2 -8q0 -5 -8 -12t-27 -19q-26 -18 -38 -18l-3 2q-45 65 -91 123
q-35 43 -79 92q-17 20 -20 51q2 19 13 36t36 30q81 41 111 81q43 56 43 157q0 32 -14.5 57t-39.5 25q-17 0 -34.5 -13t-34.5 -41q-40 -66 -75.5 -159t-47.5 -166q-18 -114 -47.5 -175t-63.5 -61l-12 2q-25 6 -25 41q0 26 17 85q25 88 30 110zM316 737q22 22 50.5 57t47.5 63
q8 14 43 14q13 0 22.5 -4.5t9.5 -13.5q-41 -36 -71 -66q-19 -19 -55 -58q-24 0 -35.5 1.5t-11.5 6.5z" />
    <glyph glyph-name="racute" unicode="&#x155;" horiz-adv-x="369" 
d="M109 318q-14 18 -17 39q0 26 15.5 43.5t40.5 17.5q21 0 35 -10.5t16.5 -25t4 -23t7.5 -13.5q4 0 20 2t27 2q25 0 41.5 -14.5t16.5 -38.5q0 -18 -7 -37l-79 -156l-1 -4q0 -6 11 -10l8 2q16 6 52.5 31t49.5 39q3 5 9 10l2 2q3 0 5.5 -2t5.5 -5t3 -38q0 -27 -6 -33
q-68 -58 -118 -81q-42 -19 -81 -19q-25 0 -40 13t-15 34q10 50 42 115l56 110q0 11 -18 11q-24 0 -50 -34l-22 -30q-31 -35 -82 -82q-47 -43 -61 -51q-2 6 -2 9q-3 15 -3 24q0 24 1.5 35.5t5.5 15.5q47 39 92 100q14 20 35 52zM226 440q22 22 50.5 57t47.5 63q8 14 43 14
q13 0 22.5 -4.5t9.5 -13.5q-41 -36 -71 -66q-19 -19 -55 -58q-24 0 -35.5 1.5t-11.5 6.5z" />
    <glyph glyph-name="Rcaron" unicode="&#x158;" horiz-adv-x="463" 
d="M20 232q34 98 68 197q41 111 94 190q24 37 62 57.5t78 20.5q73 0 112 -52q27 -38 27 -122q0 -90 -33 -165q-38 -88 -106 -114q-19 -8 -27 -11q-15 -7 -16 -16q3 -13 16 -26q33 -33 78.5 -93t54.5 -86l2 -8q0 -5 -8 -12t-27 -19q-26 -18 -38 -18l-3 2q-45 65 -91 123
q-35 43 -79 92q-17 20 -20 51q2 19 13 36t36 30q81 41 111 81q43 56 43 157q0 32 -14.5 57t-39.5 25q-17 0 -34.5 -13t-34.5 -41q-40 -66 -75.5 -159t-47.5 -166q-18 -114 -47.5 -175t-63.5 -61l-12 2q-25 6 -25 41q0 26 17 85q25 88 30 110zM321 833q3 -20 16.5 -27.5
t39.5 -7.5q7 0 19.5 5t24.5 10q26 10 65 39q30 22 54 22q12 -3 12 -17q0 -15 -7 -24q-41 -47 -93.5 -75.5t-97.5 -28.5q-41 0 -62.5 24.5t-21.5 79.5q0 10 9.5 21.5t20.5 11.5q15 0 21 -33z" />
    <glyph glyph-name="rcaron" unicode="&#x159;" horiz-adv-x="369" 
d="M109 318q-14 18 -17 39q0 26 15.5 43.5t40.5 17.5q21 0 35 -10.5t16.5 -25t4 -23t7.5 -13.5q4 0 20 2t27 2q25 0 41.5 -14.5t16.5 -38.5q0 -18 -7 -37l-79 -156l-1 -4q0 -6 11 -10l8 2q16 6 52.5 31t49.5 39q3 5 9 10l2 2q3 0 5.5 -2t5.5 -5t3 -38q0 -27 -6 -33
q-68 -58 -118 -81q-42 -19 -81 -19q-25 0 -40 13t-15 34q10 50 42 115l56 110q0 11 -18 11q-24 0 -50 -34l-22 -30q-31 -35 -82 -82q-47 -43 -61 -51q-2 6 -2 9q-3 15 -3 24q0 24 1.5 35.5t5.5 15.5q47 39 92 100q14 20 35 52zM231 539q3 -20 16.5 -27.5t39.5 -7.5
q7 0 19.5 5t24.5 10q26 10 65 39q30 22 54 22q12 -3 12 -17q0 -15 -7 -24q-41 -47 -93.5 -75.5t-97.5 -28.5q-41 0 -62.5 24.5t-21.5 79.5q0 10 9.5 21.5t20.5 11.5q15 0 21 -33z" />
    <glyph glyph-name="Sacute" unicode="&#x15a;" horiz-adv-x="557" 
d="M-43 133q6 57 74 90q60 29 137 29q36 0 62 -6q7 -1 10.5 -10t3.5 -23q0 -21 -5.5 -36.5t-15.5 -20.5l-90 4q-29 0 -53 -8.5t-27 -30.5q2 -12 13 -20.5t32 -8.5l97 -8q20 0 32.5 1t49.5 7q58 9 89.5 31.5t31.5 52.5q0 41 -50 70l-134 70q-71 47 -71 123l3 38
q18 102 119 165q91 57 202 57q60 0 93 -28q30 -25 30 -66q0 -76 -84 -131q-65 -42 -152 -58q-17 0 -20 33q0 21 6 40t14 21q42 11 86 33q56 29 56 53q0 5 -9.5 8t-23.5 3q-77 0 -145 -37q-82 -45 -82 -115q2 -19 12 -35.5t33 -30.5q35 -22 61 -36l78 -40q35 -21 57.5 -54
t22.5 -71q0 -101 -107 -153q-84 -41 -194 -41q-99 0 -153 20q-89 33 -89 119zM457 737q22 22 50.5 57t47.5 63q8 14 43 14q13 0 22.5 -4.5t9.5 -13.5q-41 -36 -71 -66q-19 -19 -55 -58q-24 0 -35.5 1.5t-11.5 6.5z" />
    <glyph glyph-name="sacute" unicode="&#x15b;" horiz-adv-x="332" 
d="M202 458q22 22 50.5 57t47.5 63q8 14 43 14q13 0 22.5 -4.5t9.5 -13.5q-41 -36 -71 -66q-19 -19 -55 -58q-24 0 -35.5 1.5t-11.5 6.5zM27 205q45 43 83 88.5t50 67.5q0 32 8 43q12 17 48 17q25 0 34 -4t9 -16q-1 -8 -7 -19q-9 -17 -10 -21v-97q0 -60 -4 -87
q-7 -49 -29 -81q13 0 52 27q23 16 52 39q8 10 15 10q12 0 12 -16v-19q0 -38 -40 -73q-32 -28 -75 -43q-21 -7 -42 -11.5t-35 -5.5q-5 2 -12 2h-11q-11 0 -24 -5t-25 -5q-32 0 -51 12q-23 15 -23 45q3 19 21 19q13 0 28 -3t29 -6q38 9 55 62q13 40 13 90q0 12 -0.5 14t-2.5 3
q-5 0 -92 -87q-46 -46 -69 -63q-5 0 -5 35l1 47q2 5 27 25z" />
    <glyph glyph-name="Scedilla" unicode="&#x15e;" horiz-adv-x="557" 
d="M166 -5q-85 0 -137 25q-72 35 -72 113q6 57 74 90q60 29 137 29q36 0 62 -6q7 -1 10.5 -10t3.5 -23q0 -21 -5.5 -36.5t-15.5 -20.5l-90 4q-29 0 -53 -8.5t-27 -30.5q2 -12 13 -20.5t32 -8.5l97 -8q20 0 32.5 1t49.5 7q58 9 89.5 31.5t31.5 52.5q0 41 -50 70l-134 70
q-71 47 -71 123l3 38q18 102 119 165q91 57 202 57q60 0 93 -28q30 -25 30 -66q0 -76 -84 -131q-65 -42 -152 -58q-17 0 -20 33q0 21 6 40t14 21q42 11 86 33q56 29 56 53q0 5 -9.5 8t-23.5 3q-77 0 -145 -37q-82 -45 -82 -115q2 -19 12 -35.5t33 -30.5q35 -22 61 -36
l78 -40q35 -21 57.5 -54t22.5 -71q0 -96 -97 -150q-80 -44 -184 -44l-25 -49q39 0 63 -17t24 -52q0 -34 -32.5 -55t-73.5 -21q-45 0 -71 7.5t-41 19.5q-5 5 -5 12q0 9 7 16t16 7q6 -1 7 -2q13 -9 25.5 -14t37.5 -5q53 0 53 36q0 24 -18 35.5t-42 11.5q-20 0 -20 6l2 9
q9 11 14 18q13 17 26 38z" />
    <glyph glyph-name="scedilla" unicode="&#x15f;" horiz-adv-x="332" 
d="M76 -4q-32 0 -51 12q-23 15 -23 45q3 19 21 19q13 0 28 -3t29 -6q38 9 55 62q13 40 13 90q0 12 -0.5 14t-2.5 3q-5 0 -92 -87q-46 -46 -69 -63q-5 0 -5 35l1 47q2 5 27 25l20 16q45 43 83 88.5t50 67.5q0 37 14 68q19 42 53 42q22 0 32 -19q7 -14 7 -38q0 -20 -10 -33
q-13 -18 -14 -20v-97q0 -60 -4 -87q-7 -49 -29 -81q13 0 52 27q23 16 52 39q8 10 15 10q12 0 12 -16v-19q0 -38 -40 -73q-32 -28 -75 -43q-21 -7 -42 -11.5t-35 -5.5l-38 -59q39 0 63 -17t24 -52q0 -34 -32.5 -55t-73.5 -21q-45 0 -71 7.5t-41 19.5q-5 5 -5 12q0 9 7 16
t16 7q6 -1 7 -2q13 -9 25.5 -14t37.5 -5q53 0 53 36q0 24 -18 35.5t-42 11.5q-20 0 -20 6l2 9q8 10 12 17q14 21 22 40z" />
    <glyph glyph-name="Scaron" unicode="&#x160;" horiz-adv-x="557" 
d="M-43 133q6 57 74 90q60 29 137 29q36 0 62 -6q7 -1 10.5 -10t3.5 -23q0 -21 -5.5 -36.5t-15.5 -20.5l-90 4q-29 0 -53 -8.5t-27 -30.5q2 -12 13 -20.5t32 -8.5l97 -8q20 0 32.5 1t49.5 7q58 9 89.5 31.5t31.5 52.5q0 41 -50 70l-134 70q-71 47 -71 123l3 38
q18 102 119 165q91 57 202 57q60 0 93 -28q30 -25 30 -66q0 -76 -84 -131q-65 -42 -152 -58q-17 0 -20 33q0 21 6 40t14 21q42 11 86 33q56 29 56 53q0 5 -9.5 8t-23.5 3q-77 0 -145 -37q-82 -45 -82 -115q2 -19 12 -35.5t33 -30.5q35 -22 61 -36l78 -40q35 -21 57.5 -54
t22.5 -71q0 -101 -107 -153q-84 -41 -194 -41q-99 0 -153 20q-89 33 -89 119zM441 833q3 -20 16.5 -27.5t39.5 -7.5q7 0 19.5 5t24.5 10q26 10 65 39q30 22 54 22q12 -3 12 -17q0 -15 -7 -24q-41 -47 -93.5 -75.5t-97.5 -28.5q-41 0 -62.5 24.5t-21.5 79.5q0 10 9.5 21.5
t20.5 11.5q15 0 21 -33z" />
    <glyph glyph-name="scaron" unicode="&#x161;" horiz-adv-x="332" 
d="M27 205q45 43 83 88.5t50 67.5q0 32 8 43q12 17 48 17q25 0 34 -4t9 -16q-1 -8 -7 -19q-9 -17 -10 -21v-97q0 -60 -4 -87q-7 -49 -29 -81q13 0 52 27q23 16 52 39q8 10 15 10q12 0 12 -16v-19q0 -38 -40 -73q-32 -28 -75 -43q-21 -7 -42 -11.5t-35 -5.5q-5 2 -12 2h-11
q-11 0 -24 -5t-25 -5q-32 0 -51 12q-23 15 -23 45q3 19 21 19q13 0 28 -3t29 -6q38 9 55 62q13 40 13 90q0 12 -0.5 14t-2.5 3q-5 0 -92 -87q-46 -46 -69 -63q-5 0 -5 35l1 47q2 5 27 25zM195 539q3 -20 16.5 -27.5t39.5 -7.5q7 0 19.5 5t24.5 10q26 10 65 39q30 22 54 22
q12 -3 12 -17q0 -15 -7 -24q-41 -47 -93.5 -75.5t-97.5 -28.5q-41 0 -62.5 24.5t-21.5 79.5q0 10 9.5 21.5t20.5 11.5q15 0 21 -33z" />
    <glyph glyph-name="Tcedilla" unicode="&#x162;" horiz-adv-x="574" 
d="M59 496q4 43 101 77q64 23 205 49l184 34q14 22 33 36.5t43 14.5q22 0 36.5 -15.5t14.5 -37.5q0 -8 -1 -12.5t-7 -16.5q-13 -18 -27 -28t-14 -11q-41 -97 -81 -193q-62 -145 -107 -245q-58 -127 -82 -164q-5 -7 -41 -7h-21h-14q-27 0 -36 1.5t-11 7.5l6 10q62 86 155 280
q97 201 113 283h-6q-41 0 -186.5 -34t-145.5 -50q0 -3 53 -35q30 -18 54 -34q0 -16 -26 -41t-40 -25q-50 21 -93 58q-59 50 -59 98zM206 -205q6 28 24 89q6 20 17 56q3 6 7 11t13 6h37q4 0 12 -6q4 -3 4 -9l-2 -10l-79 -143z" />
    <glyph glyph-name="tcedilla" unicode="&#x163;" horiz-adv-x="277" 
d="M193 486q15 63 32.5 105t36.5 65q7 11 22 23t27 12q23 -4 23 -41q0 -35 -19 -79.5t-36 -84.5h47q12 0 12 -27q0 -16 -7.5 -29.5t-19.5 -13.5h-55q-13 -30 -53 -117q-60 -128 -74 -203q0 -11 10 -14q31 8 68 38q30 26 61 52q10 0 12.5 -13t2.5 -22q-1 -7 -2 -19.5
t-11 -25.5q-17 -19 -76 -54q-67 -40 -100 -44q-35 0 -52 11.5t-19 29.5q13 36 19 54q12 35 15 56l-71 -61q-5 0 -8 10.5t-3 24.5q0 16 3 31t8 18q14 9 72 69q62 64 71 85q3 7 17.5 45.5t17.5 48.5h-57q-2 3 -3 5q-5 9 -6 15q2 21 9.5 35.5t21.5 14.5h64zM8 -208q6 28 24 89
q6 20 17 56q3 6 7 11t13 6h37q4 0 12 -6q4 -3 4 -9l-2 -10l-79 -143z" />
    <glyph glyph-name="Tcaron" unicode="&#x164;" horiz-adv-x="574" 
d="M59 496q4 43 101 77q64 23 205 49l184 34q14 22 33 36.5t43 14.5q22 0 36.5 -15.5t14.5 -37.5q0 -8 -1 -12.5t-7 -16.5q-13 -18 -27 -28t-14 -11q-41 -97 -81 -193q-62 -145 -107 -245q-58 -127 -82 -164q-5 -7 -41 -7h-21h-14q-27 0 -36 1.5t-11 7.5l6 10q62 86 155 280
q97 201 113 283h-6q-41 0 -186.5 -34t-145.5 -50q0 -3 53 -35q30 -18 54 -34q0 -16 -26 -41t-40 -25q-50 21 -93 58q-59 50 -59 98zM510 833q3 -20 16.5 -27.5t39.5 -7.5q7 0 19.5 5t24.5 10q26 10 65 39q30 22 54 22q12 -3 12 -17q0 -15 -7 -24q-41 -47 -93.5 -75.5
t-97.5 -28.5q-41 0 -62.5 24.5t-21.5 79.5q0 10 9.5 21.5t20.5 11.5q15 0 21 -33z" />
    <glyph glyph-name="tcaron" unicode="&#x165;" horiz-adv-x="277" 
d="M193 486q15 63 32.5 105t36.5 65q7 11 22 23t27 12q23 -4 23 -41q0 -35 -19 -79.5t-36 -84.5h47q12 0 12 -27q0 -16 -7.5 -29.5t-19.5 -13.5h-55q-13 -30 -53 -117q-60 -128 -74 -203q0 -11 10 -14q31 8 68 38q30 26 61 52q10 0 12.5 -13t2.5 -22q-1 -7 -2 -19.5
t-11 -25.5q-17 -19 -76 -54q-67 -40 -100 -44q-35 0 -52 11.5t-19 29.5q13 36 19 54q12 35 15 56l-71 -61q-5 0 -8 10.5t-3 24.5q0 16 3 31t8 18q14 9 72 69q62 64 71 85q3 7 17.5 45.5t17.5 48.5h-57q-2 3 -3 5q-5 9 -6 15q2 21 9.5 35.5t21.5 14.5h64zM446 683
q2 -3 4.5 -7.5t2.5 -8.5l-3 -9q-5 -7 -42 -62q-25 -37 -29 -37l-25 2q-4 1 -4 10q0 19 14 61q4 14 15 40q3 5 7 10.5t17 7.5q29 0 43 -7z" />
    <glyph glyph-name="Uring" unicode="&#x16e;" horiz-adv-x="686" 
d="M88 508q34 80 87 129q63 58 139 58q52 0 82 -21q38 -27 38 -88q-6 -52 -53 -156q-29 -65 -92 -187.5t-72 -144.5l230 232q47 49 95 98q41 43 75.5 85t46.5 69q6 11 32.5 21t47.5 10q20 0 20 -13q0 -8 -2 -12q-55 -105 -84 -165q-61 -124 -93 -213q-44 -121 -44 -189
q0 -10 -35.5 -17.5t-64.5 -7.5l-3 25q0 46 25 121q21 65 58 141q-81 -82 -161 -164q-70 -65 -131 -107q-27 -18 -57 -18q-26 0 -45.5 17.5t-19.5 47.5q2 19 4.5 27.5t9.5 24.5q56 135 94 217q32 67 90 178q12 24 17.5 42t5.5 32q0 25 -25 25q-13 0 -25.5 -5t-25.5 -14
q-36 -28 -62 -83q-23 -60 -45 -120q-11 -13 -39 -31q-35 -22 -53 -22q-14 4 -14 14q0 23 15.5 73.5t33.5 90.5zM594 758q26 0 40 18.5t14 41.5q0 24 -21 24q-25 0 -40 -21q-11 -16 -15 -42q0 -21 22 -21zM586 729q-21 0 -32.5 12.5t-11.5 31.5q0 36 24 65q28 33 70 33
q21 0 32.5 -12.5t11.5 -34.5q0 -34 -26.5 -64.5t-67.5 -30.5z" />
    <glyph glyph-name="uring" unicode="&#x16f;" 
d="M438 350q39 0 39 -10l-2 -8l-110 -232q4 -5 8 -6l25 8q36 21 67 46q11 9 27 24l4 2q4 0 7 -11t3 -26q0 -35 -29 -61q-11 -10 -61 -39q-82 -43 -111 -43q-52 0 -55 37q10 61 41 114l-4 3q-41 -40 -91 -76q-59 -43 -114 -68q-20 -8 -43 -8q-19 0 -30 8.5t-11 28.5
q0 11 7 35t20 47l-2 2l-41 -35q-1 2 -1 4q-4 14 -4 33q0 14 0.5 27t6.5 20q39 34 79 69q45 42 64 83q7 24 10.5 28t16.5 4h65q8 0 8 -10q0 -12 -10 -22q-45 -85 -53 -101q-29 -58 -45 -106l2 -2q5 1 10.5 3.5t14.5 8.5q54 36 114 94l103 103q14 13 28 27q7 5 31 5h16z
M339 461q26 0 40 18.5t14 41.5q0 24 -21 24q-25 0 -40 -21q-11 -16 -15 -42q0 -21 22 -21zM331 432q-21 0 -32.5 12.5t-11.5 31.5q0 36 24 65q28 33 70 33q21 0 32.5 -12.5t11.5 -34.5q0 -34 -26.5 -64.5t-67.5 -30.5z" />
    <glyph glyph-name="Uhungarumlaut" unicode="&#x170;" horiz-adv-x="686" 
d="M88 508q34 80 87 129q63 58 139 58q52 0 82 -21q38 -27 38 -88q-6 -52 -53 -156q-29 -65 -92 -187.5t-72 -144.5l230 232q47 49 95 98q41 43 75.5 85t46.5 69q6 11 32.5 21t47.5 10q20 0 20 -13q0 -8 -2 -12q-55 -105 -84 -165q-61 -124 -93 -213q-44 -121 -44 -189
q0 -10 -35.5 -17.5t-64.5 -7.5l-3 25q0 46 25 121q21 65 58 141q-81 -82 -161 -164q-70 -65 -131 -107q-27 -18 -57 -18q-26 0 -45.5 17.5t-19.5 47.5q2 19 4.5 27.5t9.5 24.5q56 135 94 217q32 67 90 178q12 24 17.5 42t5.5 32q0 25 -25 25q-13 0 -25.5 -5t-25.5 -14
q-36 -28 -62 -83q-23 -60 -45 -120q-11 -13 -39 -31q-35 -22 -53 -22q-14 4 -14 14q0 23 15.5 73.5t33.5 90.5zM481 737q22 22 50.5 57t47.5 63q8 14 43 14q13 0 22.5 -4.5t9.5 -13.5q-41 -36 -71 -66q-19 -19 -55 -58q-24 0 -35.5 1.5t-11.5 6.5zM647 736q22 22 50.5 57
t47.5 63q8 14 43 14q13 0 22.5 -4.5t9.5 -13.5q-41 -36 -71 -66q-19 -19 -55 -58q-24 0 -35.5 1.5t-11.5 6.5z" />
    <glyph glyph-name="uhungarumlaut" unicode="&#x171;" 
d="M438 350q39 0 39 -10l-2 -8l-110 -232q4 -5 8 -6l25 8q36 21 67 46q11 9 27 24l4 2q4 0 7 -11t3 -26q0 -35 -29 -61q-11 -10 -61 -39q-82 -43 -111 -43q-52 0 -55 37q10 61 41 114l-4 3q-41 -40 -91 -76q-59 -43 -114 -68q-20 -8 -43 -8q-19 0 -30 8.5t-11 28.5
q0 11 7 35t20 47l-2 2l-41 -35q-1 2 -1 4q-4 14 -4 33q0 14 0.5 27t6.5 20q39 34 79 69q45 42 64 83q7 24 10.5 28t16.5 4h65q8 0 8 -10q0 -12 -10 -22q-45 -85 -53 -101q-29 -58 -45 -106l2 -2q5 1 10.5 3.5t14.5 8.5q54 36 114 94l103 103q14 13 28 27q7 5 31 5h16z
M229 443q22 22 50.5 57t47.5 63q8 14 43 14q13 0 22.5 -4.5t9.5 -13.5q-41 -36 -71 -66q-19 -19 -55 -58q-24 0 -35.5 1.5t-11.5 6.5zM395 442q22 22 50.5 57t47.5 63q8 14 43 14q13 0 22.5 -4.5t9.5 -13.5q-41 -36 -71 -66q-19 -19 -55 -58q-24 0 -35.5 1.5t-11.5 6.5z" />
    <glyph glyph-name="Ydieresis" unicode="&#x178;" horiz-adv-x="443" 
d="M-16 166q18 14 91 88q99 100 181 100q46 0 75.5 -30.5t29.5 -77.5q0 -38 -23 -74q-7 -11 -90 -94q2 -12 10 -29q5 -11 8 -14q5 0 65 48.5t107 90.5q3 -3 5 -8t4 -14l2 -27q0 -16 -5 -25.5t-12 -15.5q-15 -12 -86 -66q-49 -37 -94 -73l-22 -56q-28 -63 -63 -109
q-47 -63 -95 -75q-26 -6 -51 -6q-34 0 -52 23.5t-18 58.5q0 29 21 58q26 35 81 73q16 11 53 32t49.5 29.5t12.5 32.5q0 31 -14 31q-9 -4 -15 -5q-19 -5 -35 -5q-20 3 -28.5 9t-12.5 23q0 28 26.5 46t58.5 18l28 -2q19 0 56.5 40.5t37.5 72.5q0 19 -9.5 33t-28.5 14
q-12 0 -27 -7t-35 -24q-33 -27 -81 -74q-76 -73 -103 -92q-5 0 -8 9t-3 22q0 16 1.5 31.5t7.5 19.5zM137 -113q-37 -15 -78 -47q-47 -37 -47 -61q4 -19 19 -19q26 0 57.5 36.5t48.5 90.5zM250 443q22 22 50.5 57t47.5 63q8 14 43 14q13 0 22.5 -4.5t9.5 -13.5
q-41 -36 -71 -66q-19 -19 -55 -58q-24 0 -35.5 1.5t-11.5 6.5z" />
    <glyph glyph-name="Zacute" unicode="&#x179;" horiz-adv-x="463" 
d="M166 314q29 33 98.5 88t102.5 92q20 21 28.5 38t8.5 32q0 20 -16.5 30t-41.5 10q-15 0 -22 -1q-8 -3 -11 -3q-56 -16 -103 -51q-40 -32 -79 -63q-2 3 -2 4q-3 7 -4 10q0 24 14 71t19 52q39 35 91.5 54.5t102.5 19.5q67 0 105 -32q43 -36 43 -106q0 -72 -69 -144
q-83 -62 -165 -124q64 -13 85 -35q32 -34 32 -99l-2 -32q0 -114 -91 -225q-75 -92 -159 -127q-35 -19 -86 -19q-54 0 -88 25q-39 29 -39 82q7 78 58 143q27 35 88 84q13 10 28 15.5t27 5.5q37 0 37 -33q0 -13 -8 -21q-2 -3 -85 -86q-36 -36 -43 -73q-2 -6 -2 -12v-9
q0 -33 31 -33q27 0 64 22t59 50q48 60 74 110q35 67 35 126q0 42 -30 59q-10 6 -67 20q-12 2 -21 17t-11 33q3 23 14 35zM349 737q22 22 50.5 57t47.5 63q8 14 43 14q13 0 22.5 -4.5t9.5 -13.5q-41 -36 -71 -66q-19 -19 -55 -58q-24 0 -35.5 1.5t-11.5 6.5z" />
    <glyph glyph-name="zacute" unicode="&#x17a;" horiz-adv-x="443" 
d="M-16 166q18 14 91 88q99 100 181 100q46 0 75.5 -30.5t29.5 -77.5q0 -38 -23 -74q-7 -11 -90 -94q2 -12 10 -29q5 -11 8 -14q5 0 65 48.5t107 90.5q3 -3 5 -8t4 -14l2 -27q0 -16 -5 -25.5t-12 -15.5q-15 -12 -86 -66q-49 -37 -94 -73l-22 -56q-28 -63 -63 -109
q-47 -63 -95 -75q-26 -6 -51 -6q-34 0 -52 23.5t-18 58.5q0 29 21 58q26 35 81 73q16 11 53 32t49.5 29.5t12.5 32.5q0 31 -14 31q-9 -4 -15 -5q-19 -5 -35 -5q-20 3 -28.5 9t-12.5 23q0 28 26.5 46t58.5 18l28 -2q19 0 56.5 40.5t37.5 72.5q0 19 -9.5 33t-28.5 14
q-12 0 -27 -7t-35 -24q-33 -27 -81 -74q-76 -73 -103 -92q-5 0 -8 9t-3 22q0 16 1.5 31.5t7.5 19.5zM137 -113q-37 -15 -78 -47q-47 -37 -47 -61q4 -19 19 -19q26 0 57.5 36.5t48.5 90.5zM250 443q22 22 50.5 57t47.5 63q8 14 43 14q13 0 22.5 -4.5t9.5 -13.5
q-41 -36 -71 -66q-19 -19 -55 -58q-24 0 -35.5 1.5t-11.5 6.5z" />
    <glyph glyph-name="Zdotaccent" unicode="&#x17b;" horiz-adv-x="463" 
d="M166 314q29 33 98.5 88t102.5 92q20 21 28.5 38t8.5 32q0 20 -16.5 30t-41.5 10q-15 0 -22 -1q-8 -3 -11 -3q-56 -16 -103 -51q-40 -32 -79 -63q-2 3 -2 4q-3 7 -4 10q0 24 14 71t19 52q39 35 91.5 54.5t102.5 19.5q67 0 105 -32q43 -36 43 -106q0 -72 -69 -144
q-83 -62 -165 -124q64 -13 85 -35q32 -34 32 -99l-2 -32q0 -114 -91 -225q-75 -92 -159 -127q-35 -19 -86 -19q-54 0 -88 25q-39 29 -39 82q7 78 58 143q27 35 88 84q13 10 28 15.5t27 5.5q37 0 37 -33q0 -13 -8 -21q-2 -3 -85 -86q-36 -36 -43 -73q-2 -6 -2 -12v-9
q0 -33 31 -33q27 0 64 22t59 50q48 60 74 110q35 67 35 126q0 42 -30 59q-10 6 -67 20q-12 2 -21 17t-11 33q3 23 14 35zM382 749q-21 0 -32 13t-13 32q11 33 20 45q16 21 46 21q20 0 31.5 -14t11.5 -36q0 -26 -17.5 -43.5t-46.5 -17.5z" />
    <glyph glyph-name="zdotaccent" unicode="&#x17c;" horiz-adv-x="443" 
d="M-16 166q18 14 91 88q99 100 181 100q46 0 75.5 -30.5t29.5 -77.5q0 -38 -23 -74q-7 -11 -90 -94q2 -12 10 -29q5 -11 8 -14q5 0 65 48.5t107 90.5q3 -3 5 -8t4 -14l2 -27q0 -16 -5 -25.5t-12 -15.5q-15 -12 -86 -66q-49 -37 -94 -73l-22 -56q-28 -63 -63 -109
q-47 -63 -95 -75q-26 -6 -51 -6q-34 0 -52 23.5t-18 58.5q0 29 21 58q26 35 81 73q16 11 53 32t49.5 29.5t12.5 32.5q0 31 -14 31q-9 -4 -15 -5q-19 -5 -35 -5q-20 3 -28.5 9t-12.5 23q0 28 26.5 46t58.5 18l28 -2q19 0 56.5 40.5t37.5 72.5q0 19 -9.5 33t-28.5 14
q-12 0 -27 -7t-35 -24q-33 -27 -81 -74q-76 -73 -103 -92q-5 0 -8 9t-3 22q0 16 1.5 31.5t7.5 19.5zM137 -113q-37 -15 -78 -47q-47 -37 -47 -61q4 -19 19 -19q26 0 57.5 36.5t48.5 90.5zM269 414q-21 0 -32 13t-13 32q11 33 20 45q16 21 46 21q20 0 31.5 -14t11.5 -36
q0 -26 -17.5 -43.5t-46.5 -17.5z" />
    <glyph glyph-name="Zcaron" unicode="&#x17d;" horiz-adv-x="463" 
d="M166 314q29 33 98.5 88t102.5 92q20 21 28.5 38t8.5 32q0 20 -16.5 30t-41.5 10q-15 0 -22 -1q-8 -3 -11 -3q-56 -16 -103 -51q-40 -32 -79 -63q-2 3 -2 4q-3 7 -4 10q0 24 14 71t19 52q39 35 91.5 54.5t102.5 19.5q67 0 105 -32q43 -36 43 -106q0 -72 -69 -144
q-83 -62 -165 -124q64 -13 85 -35q32 -34 32 -99l-2 -32q0 -114 -91 -225q-75 -92 -159 -127q-35 -19 -86 -19q-54 0 -88 25q-39 29 -39 82q7 78 58 143q27 35 88 84q13 10 28 15.5t27 5.5q37 0 37 -33q0 -13 -8 -21q-2 -3 -85 -86q-36 -36 -43 -73q-2 -6 -2 -12v-9
q0 -33 31 -33q27 0 64 22t59 50q48 60 74 110q35 67 35 126q0 42 -30 59q-10 6 -67 20q-12 2 -21 17t-11 33q3 23 14 35zM339 833q3 -20 16.5 -27.5t39.5 -7.5q7 0 19.5 5t24.5 10q26 10 65 39q30 22 54 22q12 -3 12 -17q0 -15 -7 -24q-41 -47 -93.5 -75.5t-97.5 -28.5
q-41 0 -62.5 24.5t-21.5 79.5q0 10 9.5 21.5t20.5 11.5q15 0 21 -33z" />
    <glyph glyph-name="zcaron" unicode="&#x17e;" horiz-adv-x="443" 
d="M-16 166q18 14 91 88q99 100 181 100q46 0 75.5 -30.5t29.5 -77.5q0 -38 -23 -74q-7 -11 -90 -94q2 -12 10 -29q5 -11 8 -14q5 0 65 48.5t107 90.5q3 -3 5 -8t4 -14l2 -27q0 -16 -5 -25.5t-12 -15.5q-15 -12 -86 -66q-49 -37 -94 -73l-22 -56q-28 -63 -63 -109
q-47 -63 -95 -75q-26 -6 -51 -6q-34 0 -52 23.5t-18 58.5q0 29 21 58q26 35 81 73q16 11 53 32t49.5 29.5t12.5 32.5q0 31 -14 31q-9 -4 -15 -5q-19 -5 -35 -5q-20 3 -28.5 9t-12.5 23q0 28 26.5 46t58.5 18l28 -2q19 0 56.5 40.5t37.5 72.5q0 19 -9.5 33t-28.5 14
q-12 0 -27 -7t-35 -24q-33 -27 -81 -74q-76 -73 -103 -92q-5 0 -8 9t-3 22q0 16 1.5 31.5t7.5 19.5zM137 -113q-37 -15 -78 -47q-47 -37 -47 -61q4 -19 19 -19q26 0 57.5 36.5t48.5 90.5zM243 539q3 -20 16.5 -27.5t39.5 -7.5q7 0 19.5 5t24.5 10q26 10 65 39q30 22 54 22
q12 -3 12 -17q0 -15 -7 -24q-41 -47 -93.5 -75.5t-97.5 -28.5q-41 0 -62.5 24.5t-21.5 79.5q0 10 9.5 21.5t20.5 11.5q15 0 21 -33z" />
    <glyph glyph-name="caron" unicode="&#x2c7;" horiz-adv-x="223" 
d="M129 539q3 -20 16.5 -27.5t39.5 -7.5q7 0 19.5 5t24.5 10q26 10 65 39q30 22 54 22q12 -3 12 -17q0 -15 -7 -24q-41 -47 -93.5 -75.5t-97.5 -28.5q-41 0 -62.5 24.5t-21.5 79.5q0 10 9.5 21.5t20.5 11.5q15 0 21 -33z" />
    <glyph glyph-name="breve" unicode="&#x2d8;" horiz-adv-x="223" 
d="M129 532q0 -23 22.5 -34.5t59.5 -11.5q17 0 31.5 5.5t24.5 14.5q20 22 40 45q16 16 41 16q9 -6 9 -18q0 -13 -8 -23q-38 -50 -71.5 -71t-78.5 -21q-123 0 -123 107q0 8 9.5 17.5t20.5 9.5q10 0 16.5 -8t6.5 -28z" />
    <glyph glyph-name="dotaccent" unicode="&#x2d9;" horiz-adv-x="342" 
d="M223 410q-21 0 -32 13t-13 32q11 33 20 45q16 21 46 21q20 0 31.5 -14t11.5 -36q0 -26 -17.5 -43.5t-46.5 -17.5z" />
    <glyph glyph-name="ring" unicode="&#x2da;" horiz-adv-x="225" 
d="M183 461q26 0 40 18.5t14 41.5q0 24 -21 24q-25 0 -40 -21q-11 -16 -15 -42q0 -21 22 -21zM175 432q-21 0 -32.5 12.5t-11.5 31.5q0 36 24 65q28 33 70 33q21 0 32.5 -12.5t11.5 -34.5q0 -34 -26.5 -64.5t-67.5 -30.5z" />
    <glyph glyph-name="ogonek" unicode="&#x2db;" horiz-adv-x="223" 
d="M-15 0h50q-44 -43 -59 -69t-15 -54q0 -36 47 -36q8 0 19.5 4t15 6.5t8.5 3.5q15 0 15 -18q0 -9 -7 -14.5t-32 -14t-37 -8.5q-47 0 -74 21t-27 56q0 46 29 77q20 22 67 46z" />
    <glyph glyph-name="hungarumlaut" unicode="&#x2dd;" horiz-adv-x="223" 
d="M88 443q22 22 50.5 57t47.5 63q8 14 43 14q13 0 22.5 -4.5t9.5 -13.5q-41 -36 -71 -66q-19 -19 -55 -58q-24 0 -35.5 1.5t-11.5 6.5zM254 442q22 22 50.5 57t47.5 63q8 14 43 14q13 0 22.5 -4.5t9.5 -13.5q-41 -36 -71 -66q-19 -19 -55 -58q-24 0 -35.5 1.5t-11.5 6.5z
" />
    <glyph glyph-name="endash" unicode="&#x2013;" 
d="M10 207h500l-20 -59h-500z" />
    <glyph glyph-name="emdash" unicode="&#x2014;" horiz-adv-x="1000" 
d="M8 207h693h309l-18 -59h-693h-307z" />
    <glyph glyph-name="quoteleft" unicode="&#x2018;" horiz-adv-x="203" 
d="M281 688l-93 -243q-6 -13 -22 -13h-94q-7 0 -9 6q1 7 5 15l168 246h37q8 0 8 -11z" />
    <glyph glyph-name="quoteright" unicode="&#x2019;" horiz-adv-x="203" 
d="M109 443l86 221q5 16 9.5 24.5t12.5 8.5h39h58q12 0 12 -8q-1 -2 -1 -3l-5 -10l-166 -244h-25q-20 0 -22 6z" />
    <glyph glyph-name="quotesinglbase" unicode="&#x201a;" horiz-adv-x="240" 
d="M-20 -129l94 242q4 10 6 12t16 2h93q8 0 8 -8q0 -3 -2.5 -7.5t-3.5 -6.5l-166 -246h-39q-6 0 -6 8v4z" />
    <glyph glyph-name="quotedblleft" unicode="&#x201c;" horiz-adv-x="406" 
d="M277 688l-93 -243q-2 -4 -3 -8q-3 -5 -19 -5h-90q-8 0 -11 6q2 6 3.5 9.5t3.5 5.5l164 246h41q6 0 6 -6zM393 443q-6 -13 -22 -13h-92q-8 0 -11 6q2 6 3.5 9.5t3.5 5.5l166 246h39q6 0 6 -8z" />
    <glyph glyph-name="quotedblright" unicode="&#x201d;" horiz-adv-x="406" 
d="M111 441l94 241q6 13 22 13h91q8 0 8 -7q0 -4 -4 -12l-166 -248h-39q-5 0 -8 6zM314 445l96 241q0 4 1.5 8.5t18.5 4.5h91q10 0 10 -8q-1 -2 -1 -3l-5 -10l-164 -244h-39q-8 0 -9 4z" />
    <glyph glyph-name="quotedblbase" unicode="&#x201e;" horiz-adv-x="406" 
d="M137 -121l88 225q2 7 5 14t10 7h39h59q12 0 12 -8q0 -4 -6 -13l-166 -245h-41q-4 0 -6 6zM-66 -121l87 225q2 7 5 14.5t11 8.5h98q11 0 11 -10q0 -5 -5 -13l-166 -245h-41q-4 0 -4 6z" />
    <glyph glyph-name="dagger" unicode="&#x2020;" horiz-adv-x="557" 
d="M139 -51l136 500h-168q-11 3 -13 10q3 18 6 37q6 24 23 24h10h160l51 164q1 8 9 11.5t30 3.5q37 0 37 -11q-4 -14 -6 -26l-37 -142h170q12 0 12 -14q0 -15 -9 -35.5t-21 -23.5q-1 1 -8 2h-166l-150 -523q-1 -6 -3 -11t-5 -5h-33h-29q-5 4 -6 8q1 9 7 24q1 2 3 7z" />
    <glyph glyph-name="daggerdbl" unicode="&#x2021;" horiz-adv-x="557" 
d="M295 525l53 172h58q4 -1 7 -3.5t3 -13.5v-14l-37 -139h146q20 0 20 -13q0 -22 -9 -40.5t-28 -18.5h-151l-89 -301h156q12 0 12 -11q0 -19 -7 -38t-23 -19h-154l-49 -174h-51h-6q-13 0 -15 18q4 8 4 13l37 141h-143q-19 0 -21 14q4 18 8 37q8 19 31 19h146l84 303h-156
l-4 -2q-1 1 -2 1q-6 4 -8 13q4 18 9 36q8 20 29 20h150z" />
    <glyph glyph-name="bullet" unicode="&#x2022;" 
d="M250 174q-74 0 -124 51t-50 125q0 71 50 122t124 51q70 0 121 -51t51 -122q0 -74 -50 -125t-122 -51z" />
    <glyph glyph-name="ellipsis" unicode="&#x2026;" horiz-adv-x="1000" 
d="M139 -6q-28 0 -43.5 15t-15.5 40q14 44 23 58q19 30 53 30q23 0 39 -20.5t16 -52.5q-3 -26 -23.5 -46.5t-48.5 -23.5zM473 -6q-59 0 -59 55q14 43 23 57q19 29 53 29q25 0 41 -20t16 -51q-3 -27 -24.5 -48.5t-49.5 -21.5zM807 -10q-29 0 -45 16t-16 43l2 10q3 30 25 53
t49 23q25 0 41 -20t16 -52q-3 -27 -23.5 -48.5t-48.5 -24.5z" />
    <glyph glyph-name="perthousand" unicode="&#x2030;" horiz-adv-x="1000" 
d="M803 68q55 0 91 56q32 49 32 106q0 53 -33 59q-37 0 -66 -24t-46 -68q-6 -14 -9.5 -34.5t-5.5 -39.5q0 -55 37 -55zM480 68q55 0 92 56q32 49 32 106q0 53 -34 59q-37 0 -66 -24t-45 -68q-7 -18 -10.5 -35.5t-5.5 -36.5q0 -25 10 -41t27 -16zM799 8q-45 0 -73.5 31.5
t-28.5 83.5q8 88 56 152q56 75 140 75q47 0 74 -30t27 -82q0 -86 -54 -155q-58 -75 -141 -75zM475 8q-45 0 -73.5 31.5t-28.5 83.5q8 89 57 153q56 74 140 74q48 0 75 -30t27 -84q0 -84 -56 -154q-60 -74 -141 -74zM102 14q44 72 136 198t145.5 186.5t69.5 80.5q7 9 12 17
q-37 -22 -60 -33q-69 -33 -114 -33q0 -64 -48 -133q-58 -84 -143 -84l-4 2q-51 0 -74.5 33.5t-23.5 83.5q0 80 55 149q61 76 146 76q48 -5 70 -33q16 -33 22 -44q38 0 100 30q73 36 121 74q13 0 30.5 -18.5t21.5 -36.5q0 -11 -80 -113q-76 -96 -152 -191q-62 -82 -107 -149
q-36 -54 -55 -90.5t-31.5 -51t-23.5 -14.5t-22 17.5t-13 31.5q2 10 6 18t16 27zM217 480q-16 16 -39 16q-35 0 -67 -38.5t-41 -86.5l-6 -43q0 -29 12 -41t28 -12q49 0 87 56q34 50 34 99q0 6 -7.5 13.5t-8.5 14t-2 7.5q3 14 10 15z" />
    <glyph glyph-name="guilsinglleft" unicode="&#x2039;" horiz-adv-x="332" 
d="M232 23h-74l-111 161l168 150h84l-168 -154z" />
    <glyph glyph-name="guilsinglright" unicode="&#x203a;" horiz-adv-x="332" 
d="M86 334h76l111 -162l-168 -149h-82l166 157z" />
    <glyph glyph-name="trademark" unicode="&#x2122;" horiz-adv-x="849" 
d="M76 568q4 42 166 73q64 11 128 23q8 14 19.5 22.5t26.5 8.5q14 0 22 -9t8 -23q0 -9 -5.5 -17.5t-12 -14t-11.5 -9.5q-25 -58 -49 -116q-48 -112 -63 -146q-34 -75 -50 -99q-4 -4 -25 -4h-12h-16q-20 0 -21 5l4 6q36 52 93.5 171t66.5 167q-29 0 -115.5 -20t-86.5 -30
q0 -2 22 -15q16 -10 42 -27q0 -9 -16 -24t-24 -15q-30 13 -56 35q-35 30 -35 58zM296 257q35 30 82 104q26 41 71 123l87 168q8 17 18 25t21 8q16 0 26 -12t10 -29q-7 -44 -32 -151q-8 -36 -24 -100q51 71 91.5 120.5t131.5 145.5q10 10 25 17.5t27 7.5q11 0 18 -7t7 -23
q0 -11 -1 -17t-7 -20q-63 -108 -101 -195q-42 -95 -42 -149l-1 -3q-5 -5 -14 -5l-25 -2q-15 0 -15 11q0 73 44 166q55 100 73 136q-71 -80 -129 -157q-52 -69 -103 -137q-6 -8 -13 -11.5t-17 -5.5q-24 3 -24 29q7 53 23 119q21 82 43 165q-40 -90 -95 -191
q-58 -105 -83 -130h-72z" />
    <glyph glyph-name="periodcentered" unicode="&#x2219;" horiz-adv-x="223" 
d="M78 135q-20 0 -23 27l2 14q5 16 19.5 27.5t28.5 11.5q24 0 24 -26q0 -21 -15.5 -37.5t-35.5 -16.5z" />
    </font>
</defs>
</svg>
